<svg width="10" height="14" viewBox="0 0 10 14" fill="none" xmlns="http://www.w3.org/2000/svg">
<path d="M0.733994 13.066V11.14L4.96399 7.918C5.22799 7.702 5.49799 7.474 5.77399 7.234C6.04999 6.982 6.30199 6.706 6.52999 6.406C6.76999 6.106 6.96199 5.788 7.10599 5.452C7.26199 5.116 7.33999 4.756 7.33999 4.372C7.33999 3.976 7.24999 3.628 7.06999 3.328C6.88999 3.028 6.61999 2.8 6.25999 2.644C5.91199 2.476 5.47399 2.392 4.94599 2.392C4.58599 2.392 4.24999 2.44 3.93799 2.536C3.62599 2.632 3.35599 2.8 3.12799 3.04C2.89999 3.28 2.72599 3.598 2.60599 3.994C2.49799 4.39 2.44399 4.882 2.44399 5.47L0.859994 5.2C0.835994 4.336 0.973994 3.586 1.27399 2.95C1.57399 2.302 2.02999 1.804 2.64199 1.456C3.26599 1.108 4.04599 0.934 4.98199 0.934C5.78599 0.934 6.48799 1.066 7.08799 1.33C7.68799 1.594 8.14999 1.978 8.47399 2.482C8.80999 2.974 8.97799 3.562 8.97799 4.246C8.97799 4.81 8.88199 5.332 8.68999 5.812C8.49799 6.28 8.25199 6.712 7.95199 7.108C7.65199 7.492 7.32199 7.84 6.96199 8.152C6.61399 8.452 6.27199 8.722 5.93599 8.962L2.53399 11.554V11.716L9.26599 11.644V13.066H0.733994Z" fill="white"/>
</svg>
