<svg width="10" height="14" viewBox="0 0 10 14" fill="none" xmlns="http://www.w3.org/2000/svg">
<path d="M4.85606 13.066C4.12406 13.066 3.48806 12.982 2.94806 12.814C2.42006 12.658 1.97606 12.43 1.61606 12.13C1.26806 11.818 0.998056 11.452 0.806056 11.032C0.626056 10.6 0.518056 10.126 0.482056 9.61L2.01206 9.16C2.03606 9.652 2.13206 10.066 2.30006 10.402C2.48006 10.726 2.70806 10.984 2.98406 11.176C3.26006 11.356 3.56006 11.488 3.88406 11.572C4.22006 11.644 4.54406 11.68 4.85606 11.68C5.42006 11.68 5.92406 11.608 6.36806 11.464C6.82406 11.308 7.19006 11.062 7.46606 10.726C7.74206 10.39 7.88006 9.958 7.88006 9.43C7.88006 8.746 7.67606 8.212 7.26806 7.828C6.86006 7.444 6.29006 7.174 5.55806 7.018C4.83806 6.862 3.98606 6.802 3.00206 6.838V5.758L7.17806 2.446V2.302L0.950056 2.338V0.933998H8.83406V2.698L4.96406 5.794V5.92C6.05606 5.92 6.93206 6.07 7.59206 6.37C8.26406 6.67 8.75006 7.084 9.05006 7.612C9.36206 8.14 9.51806 8.734 9.51806 9.394C9.51806 10.138 9.34406 10.786 8.99606 11.338C8.64806 11.878 8.12606 12.304 7.43006 12.616C6.74606 12.916 5.88806 13.066 4.85606 13.066Z" fill="white"/>
</svg>
