<svg width="390" height="692" viewBox="0 0 390 692" fill="none" xmlns="http://www.w3.org/2000/svg">
<mask id="mask0_143_8896" style="mask-type:alpha" maskUnits="userSpaceOnUse" x="0" y="0" width="390" height="692">
<rect width="390" height="692" rx="20" fill="url(#paint0_linear_143_8896)"/>
</mask>
<g mask="url(#mask0_143_8896)">
<path d="M483.5 529L508.634 640.576C512.877 659.413 527.587 674.123 546.424 678.366L658 703.5L546.424 728.634C527.587 732.877 512.877 747.587 508.634 766.424L483.5 878L458.366 766.424C454.123 747.587 439.413 732.877 420.576 728.634L309 703.5L420.576 678.366C439.413 674.123 454.123 659.413 458.366 640.576L483.5 529Z" fill="#0B6984" fill-opacity="0.8"/>
<path d="M367.5 312L392.634 423.576C396.877 442.413 411.587 457.123 430.424 461.366L542 486.5L430.424 511.634C411.587 515.877 396.877 530.587 392.634 549.424L367.5 661L342.366 549.424C338.123 530.587 323.413 515.877 304.576 511.634L193 486.5L304.576 461.366C323.413 457.123 338.123 442.413 342.366 423.576L367.5 312Z" fill="#0B6984" fill-opacity="0.8"/>
<path d="M-89.5 287L-64.3662 398.576C-60.123 417.413 -45.4129 432.123 -26.5762 436.366L85 461.5L-26.5762 486.634C-45.4129 490.877 -60.123 505.587 -64.3662 524.424L-89.5 636L-114.634 524.424C-118.877 505.587 -133.587 490.877 -152.424 486.634L-264 461.5L-152.424 436.366C-133.587 432.123 -118.877 417.413 -114.634 398.576L-89.5 287Z" fill="#0B6984" fill-opacity="0.8"/>
<path d="M63.5 81L88.6338 192.576C92.877 211.413 107.587 226.123 126.424 230.366L238 255.5L126.424 280.634C107.587 284.877 92.877 299.587 88.6338 318.424L63.5 430L38.3662 318.424C34.123 299.587 19.4129 284.877 0.576172 280.634L-111 255.5L0.576187 230.366C19.4129 226.123 34.123 211.413 38.3662 192.576L63.5 81Z" fill="#0B6984" fill-opacity="0.8"/>
</g>
<defs>
<linearGradient id="paint0_linear_143_8896" x1="195" y1="108.426" x2="195" y2="679.418" gradientUnits="userSpaceOnUse">
<stop stop-color="#0B6984" stop-opacity="0.75"/>
<stop offset="1" stop-color="#0B6984"/>
</linearGradient>
</defs>
</svg>
