<svg width="418" height="625" viewBox="0 0 418 625" fill="none" xmlns="http://www.w3.org/2000/svg">
<path d="M90.5 287L115.634 398.576C119.877 417.413 134.587 432.123 153.424 436.366L265 461.5L153.424 486.634C134.587 490.877 119.877 505.587 115.634 524.424L90.5 636L65.3662 524.424C61.123 505.587 46.4129 490.877 27.5762 486.634L-84 461.5L27.5762 436.366C46.4129 432.123 61.123 417.413 65.3662 398.576L90.5 287Z" fill="#0B6984" fill-opacity="0.8"/>
<path d="M243.5 81L268.634 192.576C272.877 211.413 287.587 226.123 306.424 230.366L418 255.5L306.424 280.634C287.587 284.877 272.877 299.587 268.634 318.424L243.5 430L218.366 318.424C214.123 299.587 199.413 284.877 180.576 280.634L69 255.5L180.576 230.366C199.413 226.123 214.123 211.413 218.366 192.576L243.5 81Z" fill="#0B6984" fill-opacity="0.8"/>
<path d="M0.5 0L25.6338 111.576C29.877 130.413 44.5871 145.123 63.4238 149.366L175 174.5L63.4238 199.634C44.5871 203.877 29.877 218.587 25.6338 237.424L0.5 349L-24.6338 237.424C-28.877 218.587 -43.5871 203.877 -62.4238 199.634L-174 174.5L-62.4238 149.366C-43.5871 145.123 -28.877 130.413 -24.6338 111.576L0.5 0Z" fill="#0B6984" fill-opacity="0.8"/>
</svg>
