<svg width="748" height="833" viewBox="0 0 748 833" fill="none" xmlns="http://www.w3.org/2000/svg">
<mask id="mask0_143_8416" style="mask-type:alpha" maskUnits="userSpaceOnUse" x="0" y="0" width="748" height="833">
<rect width="748" height="833" rx="20" fill="url(#paint0_linear_143_8416)"/>
</mask>
<g mask="url(#mask0_143_8416)">
<path d="M706.5 529L731.634 640.576C735.877 659.413 750.587 674.123 769.424 678.366L881 703.5L769.424 728.634C750.587 732.877 735.877 747.587 731.634 766.424L706.5 878L681.366 766.424C677.123 747.587 662.413 732.877 643.576 728.634L532 703.5L643.576 678.366C662.413 674.123 677.123 659.413 681.366 640.576L706.5 529Z" fill="#0B6984" fill-opacity="0.8"/>
<path d="M590.5 312L615.634 423.576C619.877 442.413 634.587 457.123 653.424 461.366L765 486.5L653.424 511.634C634.587 515.877 619.877 530.587 615.634 549.424L590.5 661L565.366 549.424C561.123 530.587 546.413 515.877 527.576 511.634L416 486.5L527.576 461.366C546.413 457.123 561.123 442.413 565.366 423.576L590.5 312Z" fill="#0B6984" fill-opacity="0.8"/>
<path d="M822.5 205L847.634 316.576C851.877 335.413 866.587 350.123 885.424 354.366L997 379.5L885.424 404.634C866.587 408.877 851.877 423.587 847.634 442.424L822.5 554L797.366 442.424C793.123 423.587 778.413 408.877 759.576 404.634L648 379.5L759.576 354.366C778.413 350.123 793.123 335.413 797.366 316.576L822.5 205Z" fill="#0B6984" fill-opacity="0.8"/>
<path d="M133.5 287L158.634 398.576C162.877 417.413 177.587 432.123 196.424 436.366L308 461.5L196.424 486.634C177.587 490.877 162.877 505.587 158.634 524.424L133.5 636L108.366 524.424C104.123 505.587 89.4129 490.877 70.5762 486.634L-41 461.5L70.5762 436.366C89.4129 432.123 104.123 417.413 108.366 398.576L133.5 287Z" fill="#0B6984" fill-opacity="0.8"/>
<path d="M286.5 81L311.634 192.576C315.877 211.413 330.587 226.123 349.424 230.366L461 255.5L349.424 280.634C330.587 284.877 315.877 299.587 311.634 318.424L286.5 430L261.366 318.424C257.123 299.587 242.413 284.877 223.576 280.634L112 255.5L223.576 230.366C242.413 226.123 257.123 211.413 261.366 192.576L286.5 81Z" fill="#0B6984" fill-opacity="0.8"/>
<path d="M43.5 0L68.6338 111.576C72.877 130.413 87.5871 145.123 106.424 149.366L218 174.5L106.424 199.634C87.5871 203.877 72.877 218.587 68.6338 237.424L43.5 349L18.3662 237.424C14.123 218.587 -0.587067 203.877 -19.4238 199.634L-131 174.5L-19.4238 149.366C-0.587051 145.123 14.123 130.413 18.3662 111.576L43.5 0Z" fill="#0B6984" fill-opacity="0.8"/>
</g>
<defs>
<linearGradient id="paint0_linear_143_8416" x1="374" y1="130.518" x2="374" y2="817.855" gradientUnits="userSpaceOnUse">
<stop stop-color="#0B6984" stop-opacity="0.75"/>
<stop offset="1" stop-color="#0B6984"/>
</linearGradient>
</defs>
</svg>
