<svg width="407" height="650" viewBox="0 0 407 650" fill="none" xmlns="http://www.w3.org/2000/svg">
<path d="M290.5 324L315.634 435.576C319.877 454.413 334.587 469.123 353.424 473.366L465 498.5L353.424 523.634C334.587 527.877 319.877 542.587 315.634 561.424L290.5 673L265.366 561.424C261.123 542.587 246.413 527.877 227.576 523.634L116 498.5L227.576 473.366C246.413 469.123 261.123 454.413 265.366 435.576L290.5 324Z" fill="#0B6984" fill-opacity="0.8"/>
<path d="M174.5 107L199.634 218.576C203.877 237.413 218.587 252.123 237.424 256.366L349 281.5L237.424 306.634C218.587 310.877 203.877 325.587 199.634 344.424L174.5 456L149.366 344.424C145.123 325.587 130.413 310.877 111.576 306.634L0 281.5L111.576 256.366C130.413 252.123 145.123 237.413 149.366 218.576L174.5 107Z" fill="#0B6984" fill-opacity="0.8"/>
<path d="M406.5 0L431.634 111.576C435.877 130.413 450.587 145.123 469.424 149.366L581 174.5L469.424 199.634C450.587 203.877 435.877 218.587 431.634 237.424L406.5 349L381.366 237.424C377.123 218.587 362.413 203.877 343.576 199.634L232 174.5L343.576 149.366C362.413 145.123 377.123 130.413 381.366 111.576L406.5 0Z" fill="#0B6984" fill-opacity="0.8"/>
</svg>
