<svg width="12" height="158" viewBox="0 0 12 158" fill="none" xmlns="http://www.w3.org/2000/svg">
<path d="M6 158L11.7735 148H0.226497L6 158ZM5 0V1.975H7V0L5 0ZM5 5.925L5 9.875H7L7 5.925H5ZM5 13.825V17.775H7V13.825H5ZM5 21.725V25.675H7V21.725H5ZM5 29.625V33.575H7V29.625H5ZM5 37.525V41.475H7L7 37.525H5ZM5 45.425V49.375H7L7 45.425H5ZM5 53.325V57.275H7V53.325H5ZM5 61.225V65.175H7V61.225H5ZM5 69.125V73.075H7V69.125H5ZM5 77.025L5 80.975H7L7 77.025H5ZM5 84.925V88.875H7V84.925H5ZM5 92.825L5 96.775H7L7 92.825H5ZM5 100.725V104.675H7V100.725H5ZM5 108.625V112.575H7V108.625H5ZM5 116.525V120.475H7V116.525H5ZM5 124.425V128.375H7L7 124.425H5ZM5 132.325V136.275H7L7 132.325H5ZM5 140.225V144.175H7V140.225H5ZM5 148.125V152.075H7V148.125H5ZM6 158L11.7735 148H0.226497L6 158ZM5 0V1.975H7V0L5 0ZM5 5.925L5 9.875H7L7 5.925H5ZM5 13.825V17.775H7V13.825H5ZM5 21.725V25.675H7V21.725H5ZM5 29.625V33.575H7V29.625H5ZM5 37.525V41.475H7L7 37.525H5ZM5 45.425V49.375H7L7 45.425H5ZM5 53.325V57.275H7V53.325H5ZM5 61.225V65.175H7V61.225H5ZM5 69.125V73.075H7V69.125H5ZM5 77.025L5 80.975H7L7 77.025H5ZM5 84.925V88.875H7V84.925H5ZM5 92.825L5 96.775H7L7 92.825H5ZM5 100.725V104.675H7V100.725H5ZM5 108.625V112.575H7V108.625H5ZM5 116.525V120.475H7V116.525H5ZM5 124.425V128.375H7L7 124.425H5ZM5 132.325V136.275H7L7 132.325H5ZM5 140.225V144.175H7V140.225H5ZM5 148.125V152.075H7V148.125H5Z" fill="#CD394B"/>
</svg>
