<svg width="13" height="9" viewBox="0 0 13 9" fill="none" xmlns="http://www.w3.org/2000/svg">
<path d="M11.3047 3.47705H0.86962C0.389604 3.47705 0 3.86666 0 4.34667C0 4.82669 0.389604 5.21629 0.86962 5.21629H11.3047C11.7848 5.21629 12.1744 4.82669 12.1744 4.34667C12.1744 3.86666 11.7848 3.47705 11.3047 3.47705Z" fill="#BDBDBD"/>
<path d="M11.9202 3.73275L8.44175 0.254356C8.10261 -0.0847853 7.55126 -0.0847853 7.21212 0.254356C6.87298 0.593497 6.87298 1.14485 7.21212 1.48399L10.0748 4.34671L7.21041 7.21115C6.87127 7.5503 6.87127 8.10165 7.21041 8.44079C7.37407 8.60336 7.5954 8.6946 7.82608 8.6946C8.05677 8.6946 8.27809 8.60336 8.44175 8.44079L11.9202 4.96239C12.2593 4.62316 12.2593 4.0719 11.9202 3.73275Z" fill="#BDBDBD"/>
</svg>
