<svg width="443" height="12" viewBox="0 0 443 12" fill="none" xmlns="http://www.w3.org/2000/svg">
<path d="M443 5.99996L433 0.226459L433 11.7735L443 5.99996ZM8.74228e-08 7L2.01364 7L2.01364 5L-8.74228e-08 5L8.74228e-08 7ZM6.04091 7L10.0682 7L10.0682 5L6.04091 5L6.04091 7ZM14.0955 7L18.1227 7L18.1227 5L14.0955 5L14.0955 7ZM22.15 7L26.1773 7L26.1773 5L22.15 5L22.15 7ZM30.2045 7L34.2318 7L34.2318 5L30.2045 5L30.2045 7ZM38.2591 7L42.2864 7L42.2864 5L38.2591 5L38.2591 7ZM46.3136 7L50.3409 7L50.3409 5L46.3136 5L46.3136 7ZM54.3682 7L58.3954 6.99999L58.3954 4.99999L54.3682 5L54.3682 7ZM62.4227 6.99999L66.45 6.99999L66.45 4.99999L62.4227 4.99999L62.4227 6.99999ZM70.4773 6.99999L74.5045 6.99999L74.5045 4.99999L70.4773 4.99999L70.4773 6.99999ZM78.5318 6.99999L82.5591 6.99999L82.5591 4.99999L78.5318 4.99999L78.5318 6.99999ZM86.5864 6.99999L90.6136 6.99999L90.6136 4.99999L86.5864 4.99999L86.5864 6.99999ZM94.6409 6.99999L98.6682 6.99999L98.6682 4.99999L94.6409 4.99999L94.6409 6.99999ZM102.695 6.99999L106.723 6.99999L106.723 4.99999L102.695 4.99999L102.695 6.99999ZM110.75 6.99999L114.777 6.99999L114.777 4.99999L110.75 4.99999L110.75 6.99999ZM118.805 6.99999L122.832 6.99999L122.832 4.99999L118.805 4.99999L118.805 6.99999ZM126.859 6.99999L130.886 6.99999L130.886 4.99999L126.859 4.99999L126.859 6.99999ZM134.914 6.99999L138.941 6.99999L138.941 4.99999L134.914 4.99999L134.914 6.99999ZM142.968 6.99999L146.995 6.99999L146.995 4.99999L142.968 4.99999L142.968 6.99999ZM151.023 6.99999L155.05 6.99999L155.05 4.99999L151.023 4.99999L151.023 6.99999ZM159.077 6.99999L163.105 6.99999L163.105 4.99999L159.077 4.99999L159.077 6.99999ZM167.132 6.99999L171.159 6.99999L171.159 4.99999L167.132 4.99999L167.132 6.99999ZM175.186 6.99998L179.214 6.99998L179.214 4.99998L175.186 4.99998L175.186 6.99998ZM183.241 6.99998L187.268 6.99998L187.268 4.99998L183.241 4.99998L183.241 6.99998ZM191.295 6.99998L195.323 6.99998L195.323 4.99998L191.295 4.99998L191.295 6.99998ZM199.35 6.99998L203.377 6.99998L203.377 4.99998L199.35 4.99998L199.35 6.99998ZM207.404 6.99998L211.432 6.99998L211.432 4.99998L207.404 4.99998L207.404 6.99998ZM215.459 6.99998L219.486 6.99998L219.486 4.99998L215.459 4.99998L215.459 6.99998ZM223.514 6.99998L227.541 6.99998L227.541 4.99998L223.514 4.99998L223.514 6.99998ZM231.568 6.99998L235.595 6.99998L235.595 4.99998L231.568 4.99998L231.568 6.99998ZM239.623 6.99998L243.65 6.99998L243.65 4.99998L239.623 4.99998L239.623 6.99998ZM247.677 6.99998L251.704 6.99998L251.704 4.99998L247.677 4.99998L247.677 6.99998ZM255.732 6.99998L259.759 6.99998L259.759 4.99998L255.732 4.99998L255.732 6.99998ZM263.786 6.99998L267.814 6.99998L267.814 4.99998L263.786 4.99998L263.786 6.99998ZM271.841 6.99998L275.868 6.99998L275.868 4.99998L271.841 4.99998L271.841 6.99998ZM279.895 6.99998L283.923 6.99998L283.923 4.99998L279.895 4.99998L279.895 6.99998ZM287.95 6.99997L291.977 6.99997L291.977 4.99997L287.95 4.99997L287.95 6.99997ZM296.004 6.99997L300.032 6.99997L300.032 4.99997L296.004 4.99997L296.004 6.99997ZM304.059 6.99997L308.086 6.99997L308.086 4.99997L304.059 4.99997L304.059 6.99997ZM312.114 6.99997L316.141 6.99997L316.141 4.99997L312.114 4.99997L312.114 6.99997ZM320.168 6.99997L324.195 6.99997L324.195 4.99997L320.168 4.99997L320.168 6.99997ZM328.223 6.99997L332.25 6.99997L332.25 4.99997L328.223 4.99997L328.223 6.99997ZM336.277 6.99997L340.305 6.99997L340.305 4.99997L336.277 4.99997L336.277 6.99997ZM344.332 6.99997L348.359 6.99997L348.359 4.99997L344.332 4.99997L344.332 6.99997ZM352.386 6.99997L356.414 6.99997L356.414 4.99997L352.386 4.99997L352.386 6.99997ZM360.441 6.99997L364.468 6.99997L364.468 4.99997L360.441 4.99997L360.441 6.99997ZM368.496 6.99997L372.523 6.99997L372.523 4.99997L368.496 4.99997L368.496 6.99997ZM376.55 6.99997L380.577 6.99997L380.577 4.99997L376.55 4.99997L376.55 6.99997ZM384.605 6.99997L388.632 6.99997L388.632 4.99997L384.605 4.99997L384.605 6.99997ZM392.659 6.99997L396.687 6.99997L396.687 4.99997L392.659 4.99997L392.659 6.99997ZM400.714 6.99996L404.741 6.99996L404.741 4.99996L400.714 4.99996L400.714 6.99996ZM408.768 6.99996L412.796 6.99996L412.796 4.99996L408.768 4.99996L408.768 6.99996ZM416.823 6.99996L420.85 6.99996L420.85 4.99996L416.823 4.99996L416.823 6.99996ZM424.878 6.99996L428.905 6.99996L428.905 4.99996L424.878 4.99996L424.878 6.99996ZM432.932 6.99996L436.959 6.99996L436.959 4.99996L432.932 4.99996L432.932 6.99996ZM443 5.99996L433 0.226459L433 11.7735L443 5.99996ZM8.74228e-08 7L2.01364 7L2.01364 5L-8.74228e-08 5L8.74228e-08 7ZM6.04091 7L10.0682 7L10.0682 5L6.04091 5L6.04091 7ZM14.0955 7L18.1227 7L18.1227 5L14.0955 5L14.0955 7ZM22.15 7L26.1773 7L26.1773 5L22.15 5L22.15 7ZM30.2045 7L34.2318 7L34.2318 5L30.2045 5L30.2045 7ZM38.2591 7L42.2864 7L42.2864 5L38.2591 5L38.2591 7ZM46.3136 7L50.3409 7L50.3409 5L46.3136 5L46.3136 7ZM54.3682 7L58.3954 6.99999L58.3954 4.99999L54.3682 5L54.3682 7ZM62.4227 6.99999L66.45 6.99999L66.45 4.99999L62.4227 4.99999L62.4227 6.99999ZM70.4773 6.99999L74.5045 6.99999L74.5045 4.99999L70.4773 4.99999L70.4773 6.99999ZM78.5318 6.99999L82.5591 6.99999L82.5591 4.99999L78.5318 4.99999L78.5318 6.99999ZM86.5864 6.99999L90.6136 6.99999L90.6136 4.99999L86.5864 4.99999L86.5864 6.99999ZM94.6409 6.99999L98.6682 6.99999L98.6682 4.99999L94.6409 4.99999L94.6409 6.99999ZM102.695 6.99999L106.723 6.99999L106.723 4.99999L102.695 4.99999L102.695 6.99999ZM110.75 6.99999L114.777 6.99999L114.777 4.99999L110.75 4.99999L110.75 6.99999ZM118.805 6.99999L122.832 6.99999L122.832 4.99999L118.805 4.99999L118.805 6.99999ZM126.859 6.99999L130.886 6.99999L130.886 4.99999L126.859 4.99999L126.859 6.99999ZM134.914 6.99999L138.941 6.99999L138.941 4.99999L134.914 4.99999L134.914 6.99999ZM142.968 6.99999L146.995 6.99999L146.995 4.99999L142.968 4.99999L142.968 6.99999ZM151.023 6.99999L155.05 6.99999L155.05 4.99999L151.023 4.99999L151.023 6.99999ZM159.077 6.99999L163.105 6.99999L163.105 4.99999L159.077 4.99999L159.077 6.99999ZM167.132 6.99999L171.159 6.99999L171.159 4.99999L167.132 4.99999L167.132 6.99999ZM175.186 6.99998L179.214 6.99998L179.214 4.99998L175.186 4.99998L175.186 6.99998ZM183.241 6.99998L187.268 6.99998L187.268 4.99998L183.241 4.99998L183.241 6.99998ZM191.295 6.99998L195.323 6.99998L195.323 4.99998L191.295 4.99998L191.295 6.99998ZM199.35 6.99998L203.377 6.99998L203.377 4.99998L199.35 4.99998L199.35 6.99998ZM207.404 6.99998L211.432 6.99998L211.432 4.99998L207.404 4.99998L207.404 6.99998ZM215.459 6.99998L219.486 6.99998L219.486 4.99998L215.459 4.99998L215.459 6.99998ZM223.514 6.99998L227.541 6.99998L227.541 4.99998L223.514 4.99998L223.514 6.99998ZM231.568 6.99998L235.595 6.99998L235.595 4.99998L231.568 4.99998L231.568 6.99998ZM239.623 6.99998L243.65 6.99998L243.65 4.99998L239.623 4.99998L239.623 6.99998ZM247.677 6.99998L251.704 6.99998L251.704 4.99998L247.677 4.99998L247.677 6.99998ZM255.732 6.99998L259.759 6.99998L259.759 4.99998L255.732 4.99998L255.732 6.99998ZM263.786 6.99998L267.814 6.99998L267.814 4.99998L263.786 4.99998L263.786 6.99998ZM271.841 6.99998L275.868 6.99998L275.868 4.99998L271.841 4.99998L271.841 6.99998ZM279.895 6.99998L283.923 6.99998L283.923 4.99998L279.895 4.99998L279.895 6.99998ZM287.95 6.99997L291.977 6.99997L291.977 4.99997L287.95 4.99997L287.95 6.99997ZM296.004 6.99997L300.032 6.99997L300.032 4.99997L296.004 4.99997L296.004 6.99997ZM304.059 6.99997L308.086 6.99997L308.086 4.99997L304.059 4.99997L304.059 6.99997ZM312.114 6.99997L316.141 6.99997L316.141 4.99997L312.114 4.99997L312.114 6.99997ZM320.168 6.99997L324.195 6.99997L324.195 4.99997L320.168 4.99997L320.168 6.99997ZM328.223 6.99997L332.25 6.99997L332.25 4.99997L328.223 4.99997L328.223 6.99997ZM336.277 6.99997L340.305 6.99997L340.305 4.99997L336.277 4.99997L336.277 6.99997ZM344.332 6.99997L348.359 6.99997L348.359 4.99997L344.332 4.99997L344.332 6.99997ZM352.386 6.99997L356.414 6.99997L356.414 4.99997L352.386 4.99997L352.386 6.99997ZM360.441 6.99997L364.468 6.99997L364.468 4.99997L360.441 4.99997L360.441 6.99997ZM368.496 6.99997L372.523 6.99997L372.523 4.99997L368.496 4.99997L368.496 6.99997ZM376.55 6.99997L380.577 6.99997L380.577 4.99997L376.55 4.99997L376.55 6.99997ZM384.605 6.99997L388.632 6.99997L388.632 4.99997L384.605 4.99997L384.605 6.99997ZM392.659 6.99997L396.687 6.99997L396.687 4.99997L392.659 4.99997L392.659 6.99997ZM400.714 6.99996L404.741 6.99996L404.741 4.99996L400.714 4.99996L400.714 6.99996ZM408.768 6.99996L412.796 6.99996L412.796 4.99996L408.768 4.99996L408.768 6.99996ZM416.823 6.99996L420.85 6.99996L420.85 4.99996L416.823 4.99996L416.823 6.99996ZM424.878 6.99996L428.905 6.99996L428.905 4.99996L424.878 4.99996L424.878 6.99996ZM432.932 6.99996L436.959 6.99996L436.959 4.99996L432.932 4.99996L432.932 6.99996Z" fill="#CD394B"/>
</svg>
