<svg width="13" height="9" viewBox="0 0 13 9" fill="none" xmlns="http://www.w3.org/2000/svg">
<path d="M12.0435 3.47705H1.60839C1.12837 3.47705 0.73877 3.86666 0.73877 4.34667C0.73877 4.82669 1.12837 5.21629 1.60839 5.21629H12.0435C12.5235 5.21629 12.9131 4.82669 12.9131 4.34667C12.9131 3.86666 12.5235 3.47705 12.0435 3.47705Z" fill="#BDBDBD"/>
<path d="M2.83786 4.34671L5.70059 1.48399C6.03973 1.14485 6.03973 0.593497 5.70059 0.254356C5.36145 -0.0847853 4.8101 -0.0847853 4.47096 0.254356L0.992637 3.73284C0.653496 4.07198 0.653496 4.62333 0.992637 4.96247L4.47104 8.44087C4.63468 8.60349 4.856 8.69478 5.08671 8.69482C5.30935 8.69482 5.53191 8.60962 5.70067 8.43916C6.03981 8.10001 6.03981 7.54866 5.70067 7.20952L2.83786 4.34671Z" fill="#BDBDBD"/>
</svg>
