<svg width="144" height="30" viewBox="0 0 144 30" fill="none" xmlns="http://www.w3.org/2000/svg">
<path d="M29.4428 18.6149C27.4569 26.6499 19.355 31.548 11.3466 29.5554C3.33853 27.5632 -1.54315 19.4338 0.442733 11.3988C2.42862 3.36349 10.5305 -1.53494 18.5386 0.457619C18.552 0.460991 18.5658 0.464364 18.5792 0.468074C26.5661 2.47918 31.4253 10.5954 29.4428 18.6149Z" fill="white"/>
<path d="M18.3318 12.8251C17.8649 14.6989 15.0172 13.7384 14.0928 13.5091L14.9096 10.2302C15.8199 10.4551 18.7987 10.8858 18.3177 12.8251H18.3318ZM17.8229 18.1235C17.3187 20.1653 13.8922 19.0604 12.7809 18.7835L13.6817 15.1627C14.793 15.4436 18.3503 15.9917 17.8229 18.1235ZM21.5577 12.8534C21.8518 10.8578 20.3392 9.78532 18.2898 9.07336L18.9621 6.37052L17.3049 5.95839L16.6515 8.59107C16.2219 8.48348 15.7785 8.38028 15.3396 8.2818L15.993 5.62112L14.3543 5.20898L13.6821 7.91182L12.6364 7.67776L10.3722 7.11082L9.93787 8.86763C9.93787 8.86763 11.1517 9.14857 11.1285 9.16746C11.592 9.22378 11.9301 9.63693 11.8942 10.1044L11.1285 13.1819C11.1859 13.1951 11.2424 13.2136 11.2965 13.2382L11.1238 13.1914L10.0545 17.5056C9.95434 17.8213 9.6182 17.995 9.30324 17.8945H9.30291C9.30291 17.9178 8.10761 17.5994 8.10761 17.5994L7.29517 19.4732L9.42862 20.0027L10.5957 20.3073L9.91871 23.0381L11.5574 23.4503L12.2296 20.7474C12.6713 20.8692 13.1059 20.9815 13.5322 21.0847L12.8693 23.797L14.508 24.2044L15.1849 21.4783C17.9859 22.0081 20.0821 21.7967 20.9691 19.2581C21.6834 17.2156 20.9318 16.0399 19.4612 15.2716C20.5349 15.0234 21.3288 14.3347 21.5574 12.8544L21.5577 12.8534Z" fill="#0B6984"/>
<path d="M38.8966 25.2945C39.7692 25.2972 40.6277 25.0743 41.3897 24.648C42.1739 24.2284 42.8636 23.6507 43.4159 22.9522C43.9914 22.2136 44.4438 21.3863 44.7557 20.5023C45.0848 19.589 45.2519 18.6254 45.2505 17.6544C45.303 16.6693 45.0932 15.6878 44.6435 14.811C44.2421 14.1317 43.4949 13.7853 42.4119 13.7853C41.9399 13.8015 41.4707 13.8659 41.0112 13.9772C40.4408 14.1051 39.913 14.3796 39.4798 14.7735L37.0055 25.1538L37.4024 25.2287C37.5204 25.2577 37.6411 25.2766 37.7618 25.285C37.9167 25.3043 38.0727 25.312 38.2287 25.3083L38.8962 25.2941L38.8966 25.2945ZM43.8125 9.06836C44.8932 9.04341 45.9662 9.26465 46.9497 9.7149C47.8035 10.1233 48.5537 10.7206 49.144 11.4623C49.7483 12.2292 50.1927 13.1098 50.4512 14.0525C50.7342 15.0919 50.8737 16.1651 50.8667 17.2426C50.8653 20.595 49.5702 23.8163 47.2532 26.2317C46.1299 27.3879 44.7934 28.3133 43.3177 28.9579C41.7705 29.6411 40.0969 29.9895 38.4065 29.9791H37.2112C36.5614 29.9578 35.9127 29.9019 35.269 29.8105C34.4828 29.6961 33.7036 29.54 32.9349 29.342C32.1288 29.1501 31.3463 28.8705 30.6008 28.5083L37.1601 0.93692L43.0193 0L40.6851 9.78539C41.1712 9.56482 41.6757 9.38775 42.193 9.25622C42.7261 9.12603 43.2737 9.06128 43.8223 9.06431L43.8129 9.06904L43.8125 9.06836Z" fill="white"/>
<path d="M59.6435 7.0586C58.8798 7.06602 58.1353 6.82049 57.5238 6.3608C56.8758 5.84647 56.5255 5.04209 56.59 4.21546C56.5874 3.69978 56.6969 3.1895 56.9121 2.72104C57.1181 2.26472 57.4075 1.85157 57.7665 1.50318C58.1252 1.16119 58.5406 0.885312 58.9944 0.688012C59.4663 0.484642 59.9749 0.381101 60.4882 0.383462C61.2465 0.381101 61.984 0.627979 62.589 1.08598C63.2358 1.60132 63.5857 2.40502 63.5228 3.23132C63.5269 3.74835 63.4186 4.25998 63.2055 4.73012C62.9995 5.18408 62.7114 5.59521 62.3558 5.94326C61.9981 6.2866 61.5827 6.56248 61.1279 6.75843C60.6559 6.9618 60.1474 7.06399 59.6341 7.05826H59.6435V7.0586ZM56.9218 29.4449H51.3194L56.0532 9.4896H61.6882L56.9215 29.4449H56.9218Z" fill="white"/>
<path d="M66.5904 4.51992L72.4492 3.61133L70.9928 9.49018H77.2677L76.1373 14.1181H69.9141L68.2522 21.0789C68.1084 21.6118 68.0193 22.1582 67.986 22.7096C67.9517 23.1555 68.0176 23.6033 68.1773 24.0205C68.3336 24.3949 68.623 24.6974 68.9897 24.8684C69.5175 25.1025 70.0936 25.2091 70.6704 25.1777C71.2613 25.1797 71.8509 25.1214 72.4304 25.0043C73.0136 24.89 73.588 24.7335 74.1484 24.5359L74.5686 28.864C73.7642 29.154 72.9423 29.3938 72.108 29.5807C71.0771 29.8002 70.0247 29.9024 68.9709 29.8852C67.2294 29.8852 65.8848 29.6228 64.9232 29.1075C64.0237 28.6485 63.303 27.8998 62.8785 26.9807C62.464 26.0057 62.2832 24.9467 62.3511 23.889C62.4139 22.6482 62.5904 21.4158 62.8785 20.2071L66.5901 4.50103V4.51992H66.5904Z" fill="white"/>
<path d="M77.062 21.4766C77.0502 19.8213 77.3312 18.1761 77.8929 16.6193C78.4197 15.1472 79.2287 13.793 80.2738 12.6332C81.3275 11.4828 82.6089 10.5671 84.0365 9.94384C85.5934 9.26931 87.2751 8.93239 88.9709 8.95599C89.9948 8.94385 91.0166 9.05211 92.015 9.27876C92.8543 9.47842 93.6708 9.76408 94.4519 10.1314L92.5054 14.5205C92.0012 14.3144 91.4782 14.137 90.9366 13.9725C90.2909 13.792 89.6224 13.7084 88.9524 13.7242C87.2597 13.6629 85.6314 14.3809 84.5313 15.673C83.4388 16.9623 82.8906 18.6955 82.8879 20.8726C82.8365 21.9768 83.1269 23.0695 83.7188 24.002C84.2724 24.7983 85.2939 25.1959 86.7813 25.1959C87.4943 25.1966 88.2049 25.1197 88.901 24.9666C89.5219 24.8337 90.1303 24.6442 90.7171 24.3997L91.1326 28.9156C90.3689 29.2057 89.5897 29.4529 88.7985 29.6553C87.7938 29.8826 86.7659 29.9898 85.736 29.9743C84.3689 30.0141 83.0082 29.7831 81.7302 29.2947C80.7144 28.8839 79.7998 28.2559 79.0506 27.4543C78.3396 26.6772 77.8143 25.7477 77.5148 24.7369C77.1978 23.6732 77.0405 22.568 77.0479 21.458L77.062 21.4769V21.4766Z" fill="white"/>
<path d="M104.704 13.7431C103.914 13.732 103.142 13.9839 102.51 14.4598C101.869 14.9576 101.331 15.5772 100.927 16.2821C100.483 17.0325 100.15 17.8439 99.9377 18.6905C99.7323 19.5019 99.6254 20.335 99.6203 21.1724C99.5699 22.1946 99.7773 23.2125 100.223 24.1329C100.629 24.8401 101.357 25.1963 102.417 25.1963C103.208 25.2098 103.981 24.9558 104.611 24.4749C105.254 23.9771 105.792 23.3575 106.199 22.6533C106.636 21.9019 106.962 21.0908 107.165 20.2449C107.368 19.4318 107.475 18.5967 107.482 17.7576C107.535 16.736 107.327 15.7171 106.88 14.7971C106.474 14.0946 105.741 13.7384 104.686 13.7384L104.704 13.7431H104.704ZM101.903 29.9787C100.713 30.0064 99.5306 29.7993 98.4203 29.3696C97.4862 29 96.6519 28.4165 95.9834 27.6644C95.3259 26.9069 94.8308 26.0223 94.5269 25.0648C94.1968 23.9912 94.0388 22.8715 94.06 21.7484C94.0637 20.2017 94.3108 18.6648 94.7935 17.1954C95.2617 15.7165 95.9928 14.3347 96.9498 13.1155C97.9111 11.8966 99.1067 10.8835 100.465 10.1364C101.927 9.34757 103.567 8.94892 105.227 8.97927C106.41 8.95769 107.586 9.16477 108.691 9.58837C109.626 9.95194 110.465 10.5277 111.142 11.27C111.795 12.0295 112.29 12.9138 112.594 13.8696C112.927 14.9441 113.084 16.0655 113.061 17.1906C113.056 18.736 112.815 20.2719 112.347 21.7437C111.887 23.2246 111.169 24.6118 110.227 25.8425C109.28 27.0664 108.089 28.0796 106.73 28.8172C105.246 29.6101 103.585 30.0101 101.903 29.9787Z" fill="white"/>
<path d="M121.908 7.05857C121.145 7.06666 120.402 6.82114 119.793 6.36077C119.145 5.84644 118.794 5.04207 118.859 4.21543C118.857 3.69975 118.966 3.18947 119.181 2.72101C119.381 2.26706 119.663 1.85458 120.012 1.50315C120.373 1.16218 120.79 0.886296 121.245 0.687985C121.715 0.484952 122.222 0.381411 122.734 0.383435C123.498 0.37669 124.244 0.624242 124.854 1.08596C125.501 1.6013 125.85 2.405 125.788 3.23129C125.789 3.749 125.677 4.26063 125.46 4.7301C125.258 5.18439 124.971 5.59619 124.616 5.94324C124.258 6.28657 123.843 6.56245 123.388 6.7584C122.92 6.95975 122.416 7.06194 121.907 7.05823L121.908 7.05857ZM119.191 29.4448H113.589L118.313 9.48957H123.953L119.191 29.4448Z" fill="white"/>
<path d="M127.986 10.3985C128.411 10.2767 128.883 10.1266 129.387 9.96305C129.891 9.79914 130.48 9.64906 131.128 9.49459C131.84 9.34316 132.558 9.22917 133.281 9.15261C134.178 9.0575 135.081 9.01197 135.984 9.01669C138.934 9.01669 140.97 9.87672 142.09 11.5978C142.761 12.6285 143.101 13.8858 143.109 15.3701V15.477C143.104 16.4422 142.96 17.5023 142.679 18.6567L140.106 29.4303H134.485L136.983 18.881C137.132 18.2257 137.254 17.5886 137.342 16.9657C137.44 16.4264 137.44 15.8743 137.342 15.3357C137.25 14.8854 137.002 14.4827 136.642 14.1974C136.144 13.8696 135.551 13.7165 134.957 13.7617C134.209 13.763 133.462 13.8399 132.73 13.9913L129.06 29.4492H123.406L127.986 10.3985Z" fill="white"/>
</svg>
