<svg width="21" height="20" viewBox="0 0 21 20" fill="none" xmlns="http://www.w3.org/2000/svg">
<path d="M18.3571 0H2.64286C1.46 0 0.5 0.96 0.5 2.14286V17.8571C0.5 19.04 1.46 20 2.64286 20H18.3571C19.54 20 20.5 19.04 20.5 17.8571V2.14286C20.5 0.96 19.54 0 18.3571 0ZM6.17 15.7364C5.92429 16.165 5.375 16.3079 4.95143 16.0621C4.52286 15.8164 4.38 15.2671 4.62571 14.8436L5.26429 13.7407C5.98286 13.5221 6.57214 13.6914 7.03214 14.2493L6.17 15.7364ZM12.3707 13.3307H4.25C3.75857 13.3307 3.35714 12.9286 3.35714 12.4379C3.35714 11.9471 3.75929 11.545 4.25 11.545H6.52714L9.44643 6.49143L8.53143 4.91143C8.28571 4.48286 8.43357 3.93786 8.85714 3.69286C9.28571 3.44714 9.83071 3.595 10.0757 4.01857L10.4729 4.70571L10.87 4.01857C11.1157 3.59 11.665 3.44714 12.0886 3.69286C12.5171 3.93857 12.66 4.48786 12.4143 4.91143L8.58428 11.5457H11.3564C12.2579 11.5457 12.7629 12.6036 12.37 13.3314L12.3707 13.3307ZM16.75 13.3307H15.455L16.33 14.8443C16.5757 15.2729 16.4279 15.8179 16.0043 16.0629C15.5757 16.3086 15.0307 16.1607 14.7857 15.7371C13.3171 13.1971 12.2186 11.2864 11.4821 10.0186C10.7364 8.72357 11.2679 7.42929 11.7993 6.99214C12.3843 8.00571 13.2593 9.52357 14.4286 11.5457H16.75C17.2414 11.5457 17.6429 11.9479 17.6429 12.4386C17.6429 12.9343 17.2407 13.3307 16.75 13.3307Z" fill="#0B6984"/>
</svg>
