<svg width="20" height="20" viewBox="0 0 20 20" fill="none" xmlns="http://www.w3.org/2000/svg">
<g clip-path="url(#clip0_86_1943)">
<path d="M5.8987 19.6256C5.50495 19.3619 5.15308 19.0394 4.8637 18.6656C4.5412 18.2813 4.2487 17.8744 3.97495 17.4544C3.33683 16.52 2.8387 15.5013 2.49058 14.4238C2.0737 13.1738 1.87183 11.9756 1.87183 10.8038C1.87183 9.49501 2.15495 8.35252 2.7087 7.39252C3.11558 6.64376 3.72433 6.01564 4.45683 5.57626C5.1662 5.13376 5.98995 4.89251 6.82308 4.87626C7.1162 4.87626 7.43183 4.91877 7.76683 5.00001C8.00745 5.06814 8.30058 5.17564 8.6587 5.30939C9.11433 5.48501 9.36495 5.59251 9.44995 5.61876C9.71683 5.71626 9.9412 5.75876 10.1175 5.75876C10.2512 5.75876 10.44 5.71626 10.6543 5.65126C10.775 5.60876 11.0024 5.53376 11.3281 5.39439C11.6506 5.27689 11.9043 5.17626 12.1062 5.10126C12.4156 5.01001 12.715 4.92564 12.9818 4.88314C13.3075 4.83439 13.6293 4.81814 13.9387 4.84376C14.5312 4.88314 15.0718 5.01002 15.5568 5.19189C16.4062 5.53376 17.0931 6.06751 17.6043 6.82626C17.3862 6.96001 17.1874 7.11251 16.9987 7.28502C16.5918 7.64314 16.25 8.06627 15.9731 8.53814C15.615 9.17939 15.4324 9.90564 15.4362 10.6375C15.4493 11.5394 15.6806 12.3338 16.1362 13.0206C16.4618 13.5219 16.8912 13.9481 17.4156 14.3C17.6762 14.4756 17.9006 14.5963 18.1156 14.6775C18.0149 14.99 17.9074 15.2925 17.7806 15.5925C17.4906 16.2663 17.1456 16.9106 16.7387 17.5194C16.3774 18.0438 16.0943 18.4344 15.8793 18.6944C15.5443 19.0913 15.2218 19.3944 14.8962 19.6056C14.5381 19.8431 14.115 19.97 13.685 19.97C13.3918 19.9831 13.1025 19.9438 12.8224 19.8656C12.5818 19.7844 12.3437 19.6963 12.1093 19.5956C11.865 19.485 11.6143 19.3875 11.3575 19.3125C11.0387 19.2281 10.7131 19.1888 10.3875 19.1888C10.0525 19.1888 9.72683 19.2313 9.42058 19.3094C9.15995 19.3844 8.90933 19.4719 8.66183 19.5794C8.3137 19.7256 8.08245 19.8238 7.9487 19.8656C7.68183 19.9438 7.40495 19.9925 7.12495 20.0088C6.69183 20.0088 6.28808 19.885 5.88808 19.6344L5.8987 19.6256ZM11.6112 4.24126C11.0449 4.52439 10.5043 4.64501 9.96745 4.60564C9.88308 4.06501 9.96745 3.51189 10.1918 2.90626C10.3906 2.38876 10.6574 1.92314 11.025 1.50626C11.4056 1.07314 11.865 0.715015 12.3825 0.45814C12.9325 0.175015 13.4568 0.0218896 13.9581 -0.000610352C14.0231 0.56564 13.9581 1.12251 13.75 1.72439C13.5581 2.25814 13.275 2.75001 12.9168 3.18939C12.5525 3.62251 12.1031 3.98064 11.595 4.24064L11.6112 4.24126Z" fill="#0B6984"/>
</g>
<defs>
<clipPath id="clip0_86_1943">
<rect width="20" height="20" fill="white"/>
</clipPath>
</defs>
</svg>
