<svg width="26" height="20" viewBox="0 0 26 20" fill="none" xmlns="http://www.w3.org/2000/svg">
<path d="M0 1.66667C0 0.746192 0.727537 0 1.625 0H24.375C25.2725 0 26 0.746192 26 1.66667C26 2.58714 25.2725 3.33333 24.375 3.33333H1.625C0.727537 3.33333 0 2.58714 0 1.66667ZM0 10C0 9.07952 0.727537 8.33333 1.625 8.33333H24.375C25.2725 8.33333 26 9.07952 26 10C26 10.9205 25.2725 11.6667 24.375 11.6667H1.625C0.727537 11.6667 0 10.9205 0 10ZM0 18.3333C0 17.4129 0.727537 16.6667 1.625 16.6667H24.375C25.2725 16.6667 26 17.4129 26 18.3333C26 19.2538 25.2725 20 24.375 20H1.625C0.727537 20 0 19.2538 0 18.3333Z" fill="white"/>
</svg>
