<svg width="17" height="16" viewBox="0 0 17 16" fill="none" xmlns="http://www.w3.org/2000/svg">
<path d="M0 1.68421C0 0.754047 0.754047 0 1.68421 0H15.1579C16.0881 0 16.8421 0.754047 16.8421 1.68421V10.9474C16.8421 11.8775 16.0881 12.6316 15.1579 12.6316H9.26316V14.3158H11.7895C12.2546 14.3158 12.6316 14.6928 12.6316 15.1579C12.6316 15.623 12.2546 16 11.7895 16H5.05263C4.58755 16 4.21053 15.623 4.21053 15.1579C4.21053 14.6928 4.58755 14.3158 5.05263 14.3158H7.57895V12.6316H1.68421C0.754048 12.6316 0 11.8775 0 10.9474V1.68421ZM15.1579 10.9474V1.68421H1.68421V10.9474H15.1579Z" fill="#E3E6E7"/>
</svg>
