<svg width="1304" height="316" viewBox="0 0 1304 316" fill="none" xmlns="http://www.w3.org/2000/svg">
<g opacity="0.8">
<path fill-rule="evenodd" clip-rule="evenodd" d="M914 16C886.386 16 864 38.3858 864 66C864 93.6142 886.386 116 914 116C941.614 116 964 93.6142 964 66C964 38.3858 941.614 16 914 16ZM914 94.5715C925.129 94.5715 934.77 88.2108 939.487 78.9251C938.787 78.5822 938.055 78.2447 937.309 78.0233C936.193 77.6929 935.048 77.6751 933.941 78.0465C932.971 78.3726 932.099 78.924 931.237 79.4683L931.218 79.4804L930.95 79.6518L930.946 79.6536L930.933 79.6623C929.136 80.7923 927.102 82.0715 924.514 82.0715C920.668 82.0715 917.966 79.7697 917.104 75.7536C916.437 72.6429 914 60.6429 914 60.6429C912.995 65.6859 911.961 70.7229 910.896 75.7536C910.034 79.7679 907.334 82.0715 903.487 82.0715C900.895 82.0715 898.854 80.7876 897.055 79.6518H897.052L896.782 79.4804C895.916 78.9322 895.036 78.3751 894.061 78.0483C892.968 77.6888 891.789 77.68 890.691 78.0233C889.945 78.2447 889.212 78.5804 888.512 78.9251C893.23 88.209 902.871 94.5715 914 94.5715ZM939.175 73.909C939.856 74.1842 940.528 74.4826 941.189 74.8036C942.086 72.0304 942.571 69.0715 942.571 66.0001C942.571 50.2197 929.78 37.4286 914 37.4286C898.22 37.4286 885.429 50.2197 885.429 66.0001C885.426 68.9888 885.892 71.9595 886.811 74.8036C887.459 74.4929 888.137 74.184 888.827 73.909C892.093 72.6036 895.086 73.0411 898.084 74.8626C898.084 74.8626 899.179 75.5322 899.505 75.7376L899.525 75.7518L899.537 75.7592C900.923 76.6297 902.23 77.4501 903.487 77.4501C904.696 77.4501 905.886 77.1251 906.389 74.7804C907.175 71.1233 909.089 62.1358 909.925 57.684C910.414 55.0697 910.684 53.6608 910.964 52.7018C911.454 51.0286 912.348 50.1126 913.616 49.9608C913.616 49.9608 913.839 49.9286 914 49.9286C914.162 49.9286 914.364 49.9572 914.364 49.9572C915.645 50.1036 916.545 51.0179 917.037 52.7018C917.316 53.659 917.586 55.0697 918.077 57.6858C918.912 62.1376 920.827 71.1233 921.612 74.7804C922.116 77.1251 923.305 77.4483 924.514 77.4483C925.775 77.4483 927.086 76.6251 928.475 75.7518L928.496 75.7376C928.823 75.5322 929.916 74.8626 929.916 74.8626C932.914 73.0411 935.907 72.6036 939.175 73.909Z" fill="#1A84A3"/>
<g clip-path="url(#clip0_25_135)">
<path fill-rule="evenodd" clip-rule="evenodd" d="M110 30C82.3858 30 60 52.3858 60 80C60 107.614 82.3858 130 110 130C137.614 130 160 107.614 160 80C160 52.3858 137.614 30 110 30ZM97.4714 67.5001H122.5V92.5286L138.571 108.095V51.4286H81.9071L97.4714 67.5001ZM97.5 70.1161V92.5001H119.882L103.857 108.571H81.4285V86.1393L97.5 70.1161Z" fill="#1A84A3" fill-opacity="0.8"/>
</g>
<path fill-rule="evenodd" clip-rule="evenodd" d="M30 216C13.4315 216 0 229.431 0 246C0 262.569 13.4315 276 30 276C46.5685 276 60 262.569 60 246C60 229.431 46.5685 216 30 216ZM43.3457 252.836C43.5504 252.36 43.7443 251.864 43.9286 251.344C43.0836 251 42.3076 250.506 41.6379 249.886C40.1336 248.531 39.3686 246.823 39.3461 244.771C39.3225 242.139 40.5525 240.087 43.0404 238.621C41.6496 236.701 39.5604 235.634 36.7779 235.415C35.7504 235.331 34.4968 235.546 33.0118 236.066C31.4421 236.626 30.5154 236.907 30.2421 236.907C29.8757 236.907 29.0421 236.667 27.7436 236.192C26.4407 235.721 25.3929 235.48 24.5936 235.48C23.1627 235.494 21.7599 235.879 20.5221 236.597C19.2798 237.309 18.242 238.329 17.5093 239.559C16.5504 241.115 16.0714 242.973 16.0714 245.127C16.0714 247.007 16.4261 248.95 17.1354 250.955C17.7964 252.813 18.6407 254.444 19.6682 255.848C20.6261 257.162 21.4254 258.091 22.0639 258.633C23.0657 259.539 24.0675 259.968 25.0746 259.926C25.7357 259.905 26.6014 259.684 27.675 259.262C28.7486 258.841 29.7514 258.633 30.6857 258.633C31.5771 258.633 32.5521 258.841 33.6129 259.262C34.6714 259.684 35.5789 259.892 36.3321 259.892C37.3821 259.87 38.3625 259.451 39.2764 258.632C39.8668 258.135 40.6329 257.239 41.5661 255.943C42.2648 254.971 42.8611 253.93 43.3457 252.836ZM36.9621 228.429C36.9621 228.215 36.9514 228 36.93 227.786C36.0911 227.829 35.1975 228.075 34.2525 228.522C33.3096 228.975 32.5296 229.544 31.9168 230.227C30.6889 231.578 29.9979 233.23 29.9979 234.773C29.9979 234.976 30.0108 235.18 30.0364 235.382C31.9436 235.532 33.7018 234.579 35.1557 232.926C36.3589 231.538 36.9621 230.036 36.9621 228.429Z" fill="#1A84A3"/>
<path fill-rule="evenodd" clip-rule="evenodd" d="M376 77C348.386 77 326 99.3858 326 127C326 154.614 348.386 177 376 177C403.614 177 426 154.614 426 127C426 99.3858 403.614 77 376 77ZM343.198 142.882C344.696 144.096 346.613 144.75 348.954 144.845H348.952C351.557 144.952 354.777 144.336 358.373 143.048C359.78 142.545 360.58 142.214 363.571 140.909C382.464 132.664 418.861 116.775 418.857 116.771C418.857 116.768 406.037 120.245 390.373 124.496C374.709 128.748 361.679 132.279 361.416 132.341C357.596 133.237 354.47 133.15 352.332 132.082C351.113 131.471 350.027 130.368 349.395 129.095C348.477 127.243 348.388 124.857 349.13 122.077C349.595 120.345 350.445 118.343 351.439 116.643C351.554 116.446 351.646 116.286 351.641 116.286C351.63 116.286 349.954 118.173 349.391 118.82C345.566 123.205 343.375 126.371 341.955 129.566C340.296 133.295 339.861 136.695 340.707 139.284C340.994 140.147 341.433 140.953 342.002 141.662C342.37 142.098 342.77 142.505 343.198 142.882Z" fill="#1A84A3"/>
<path fill-rule="evenodd" clip-rule="evenodd" d="M252 243C235.431 243 222 256.431 222 273C222 289.569 235.431 303 252 303C268.569 303 282 289.569 282 273C282 256.431 268.569 243 252 243ZM255.824 274.209C254.34 273.519 252.372 272.357 252.4 270.276C252.422 267.464 255.141 265.5 259.009 265.5C260.257 265.503 261.496 265.72 262.67 266.142L261.983 269.205C260.231 268.434 258.685 268.488 258.125 268.559C256.994 268.699 256.477 269.251 256.465 269.767C256.45 270.452 257.334 270.896 258.397 271.429C259.98 272.223 261.958 273.216 261.948 275.497C261.933 278.502 259.245 280.44 255.136 280.44C253.385 280.425 251.697 280.075 250.786 279.673L251.493 276.507C251.517 276.517 251.54 276.528 251.564 276.538C252.461 276.94 253.596 277.448 255.511 277.42C256.638 277.404 257.842 276.975 257.853 276.005C257.86 275.372 257.347 274.918 255.824 274.209ZM267.614 266.561C267.897 265.918 268.529 265.5 269.279 265.5H272.62L275.571 280.5H271.953L271.685 278.057H266.668L265.644 280.5H261.538L267.614 266.561ZM271.038 275.095L269.853 269.668L267.793 275.095H271.038ZM243.977 280.5L247.421 265.5H251.333L247.89 280.5H243.977ZM237.559 275.6L241.633 265.5H245.742L239.195 280.5H235.061L232.146 268.419C231.957 267.709 231.793 267.448 231.217 267.149C230.277 266.659 228.724 266.203 227.357 265.92L227.45 265.5H234.108C234.956 265.5 235.72 266.04 235.912 266.972L237.559 275.6Z" fill="#1A84A3" fill-opacity="0.6"/>
<path fill-rule="evenodd" clip-rule="evenodd" d="M600 0C583.431 0 570 13.4315 570 30C570 46.5685 583.431 60 600 60C616.569 60 630 46.5685 630 30C630 13.4315 616.569 0 600 0ZM589.355 12.8797C594.721 13.0993 603.426 15.0118 610.938 21.6279C614.814 24.9365 617.257 28.6125 617.139 34.0533C617.02 41.6261 610.222 44.7879 603.187 44.5672C601.757 44.5672 599.909 44.2736 598.061 43.6843C597.882 45.8165 597.524 47.2136 596.748 47.1397C595.974 47.0668 595.676 45.1554 595.556 42.7286C591.382 40.964 587.627 37.95 587.806 33.7597C587.985 32.3625 589.654 29.2747 595.914 28.5397C596.152 25.0843 596.51 22.0704 597.106 22.0704C597.464 22.0704 598.001 24.2754 598.18 28.3918C605.036 28.245 608.136 30.524 608.195 31.6275C608.195 32.73 606.765 34.2 605.751 34.3468C604.822 34.4825 604.845 34.0609 604.855 33.8761C604.856 33.8595 604.857 33.8448 604.857 33.8325C604.857 33.6118 605.93 32.6561 606.049 32.5833C606.109 32.5093 606.228 32.3625 605.93 32.2897C605.922 32.2872 605.913 32.2841 605.902 32.2805C605.579 32.1762 603.891 31.63 598.359 31.7004H598.239V33.9065C598.239 36.6268 598.239 39.2004 598.179 41.3325C599.61 41.7729 601.16 41.9936 602.711 42.0675C610.222 42.2143 613.86 37.8761 613.919 33.3922C613.978 25.5986 603.069 15.9675 588.521 14.865C584.159 14.5055 584.165 14.9871 584.168 15.2158C584.168 15.2215 584.169 15.2271 584.169 15.2325C584.169 15.2795 584.297 15.3491 584.471 15.4438C584.842 15.6448 585.421 15.9588 585.421 16.409C585.421 16.7765 584.407 16.5558 584.05 16.335C583.752 16.1883 582.857 15.4522 582.857 14.7172C582.857 14.129 583.394 12.659 589.355 12.8797ZM595.735 31.7743C591.621 32.0679 589.236 33.0236 589.117 34.6415C588.997 36.0386 591.68 38.6122 595.557 40.3758V40.3756C595.557 38.7578 595.557 37.0682 595.617 35.5972C595.617 34.56 595.669 33.3276 595.724 32.022C595.728 31.9397 595.731 31.8571 595.735 31.7743Z" fill="#1A84A3"/>
<path fill-rule="evenodd" clip-rule="evenodd" d="M906 213C906 196.431 919.431 183 936 183C952.569 183 966 196.431 966 213C966 229.569 952.569 243 936 243C919.431 243 906 229.569 906 213ZM961.714 220.5V217.286H955.286V205.5H952.071V220.5H961.714ZM932.968 204.429L924.541 211.111V211.236C924.166 209.691 923.31 208.304 922.096 207.276C920.882 206.248 919.372 205.633 917.786 205.519V205.5H911.357V220.5H917.786V220.48C919.372 220.366 920.881 219.751 922.095 218.724C923.31 217.697 924.166 216.31 924.541 214.765V214.893L932.968 221.571L941.357 214.893V220.5H951V217.286H944.571V205.5H941.357V211.107L933.188 217.789L931.459 216.23L935.35 213.113L939.456 209.774L937.08 207.773L929.083 214.225L927.355 212.666L935.35 206.43L932.973 204.429H932.968ZM917.25 208.714H914.571V217.286H917.25C918.387 217.286 919.477 216.834 920.28 216.03C921.084 215.227 921.536 214.137 921.536 213C921.536 211.863 921.084 210.773 920.28 209.97C919.477 209.166 918.387 208.714 917.25 208.714Z" fill="#1A84A3" fill-opacity="0.6"/>
<path fill-rule="evenodd" clip-rule="evenodd" d="M1144 96C1116.39 96 1094 118.386 1094 146C1094 173.614 1116.39 196 1144 196C1171.61 196 1194 173.614 1194 146C1194 118.386 1171.61 96 1144 96ZM1115.43 117.429H1136.44L1115.43 174.571V117.429ZM1172.57 117.429H1151.56L1172.57 174.571V117.429ZM1134.76 163.143L1144 138.38L1157.44 174.568H1148.2L1144.84 163.143H1134.76Z" fill="#1A84A3"/>
<path fill-rule="evenodd" clip-rule="evenodd" d="M1274 256C1257.43 256 1244 269.431 1244 286C1244 302.569 1257.43 316 1274 316C1290.57 316 1304 302.569 1304 286C1304 269.431 1290.57 256 1274 256ZM1291.1 291.774L1291.26 291.636C1292.07 290.642 1292.72 289.51 1293.35 288.415C1293.39 288.338 1293.44 288.261 1293.48 288.183C1293.76 287.702 1294.05 287.207 1294.35 286.733C1294.37 286.694 1294.38 286.652 1294.38 286.609C1294.38 286.522 1294.32 286.433 1294.26 286.382C1294.03 286.285 1293.8 286.409 1293.59 286.558C1292.37 287.516 1291.53 288.891 1290.81 290.069L1290.78 290.128L1290.71 290.263L1290.71 290.269C1290.46 290.779 1290.2 291.305 1290.21 291.87C1290.23 291.95 1290.28 292.05 1290.36 292.078C1290.63 292.182 1290.86 291.979 1291.09 291.784L1291.1 291.774ZM1283.48 287.819C1283.65 288.581 1284.48 288.859 1284.53 288.826C1284.8 288.377 1285.01 287.874 1285.15 287.362L1285.15 287.33L1285.16 287.305C1285.17 287.169 1285.19 287.021 1285.19 286.876C1285.19 286.628 1285.14 286.395 1284.94 286.267C1284.83 286.233 1284.7 286.226 1284.58 286.248C1284.46 286.27 1284.35 286.319 1284.25 286.392C1283.81 286.65 1283.35 287.162 1283.48 287.819ZM1281.21 291.518C1281.21 291.663 1281.25 291.805 1281.33 291.926C1282.04 292.739 1283.75 290.404 1284.25 289.314C1283.85 289.142 1283.18 288.737 1282.89 288.105H1282.89C1282.19 288.989 1281.2 290.611 1281.21 291.518ZM1293.12 291.859C1293.03 292.112 1293.26 292.197 1293.43 292.087C1294.35 291.558 1295.08 290.464 1295.67 289.594C1295.69 289.56 1295.71 289.527 1295.74 289.494H1296.29C1296.23 289.586 1296.15 289.724 1296.05 289.896C1295.41 291.019 1293.95 293.579 1292.78 294.204C1292.73 294.232 1292.68 294.261 1292.63 294.289C1292.31 294.462 1292.02 294.624 1291.65 294.556C1291.01 294.477 1291.11 292.799 1291.22 292.36C1291.12 292.47 1290.96 292.688 1290.78 292.946C1290.35 293.565 1289.76 294.411 1289.27 294.541C1288.66 294.658 1287.99 293.529 1288.21 292.022C1288.14 292.108 1288.07 292.196 1288 292.286C1287 293.517 1285.76 295.062 1285.05 294.204C1284.52 293.554 1284.9 291.561 1285.47 289.944C1285.47 289.944 1285.65 289.389 1285.68 289.32C1285.67 289.317 1285.67 289.315 1285.66 289.315C1285.66 289.315 1285.66 289.315 1285.66 289.315C1285.35 289.394 1284.96 289.416 1284.82 289.424C1284.8 289.425 1284.78 289.426 1284.78 289.426C1284.65 289.642 1284.52 289.875 1284.38 290.119C1283.55 291.604 1282.49 293.491 1281.11 294.205C1280.88 294.325 1280.27 294.574 1279.79 294.334C1279.33 294.075 1279.19 292.804 1279.28 292C1279.41 290.974 1279.87 290.078 1280.33 289.242C1281.18 287.925 1282.37 286.327 1283.96 285.68C1284.31 285.523 1284.84 285.426 1285.26 285.634C1285.63 285.893 1285.72 286.267 1285.72 286.664C1285.72 286.849 1285.7 287.038 1285.68 287.224C1285.54 287.87 1285.26 288.466 1285.04 288.909C1285.15 288.979 1285.77 288.835 1285.93 288.715C1288.15 284.16 1290.69 280.825 1293.7 278.511L1293.73 278.497C1293.85 278.413 1293.98 278.315 1294.12 278.215C1294.61 277.844 1295.16 277.436 1295.68 277.535C1295.78 277.553 1295.87 277.603 1295.95 277.677C1296.02 277.751 1296.06 277.845 1296.08 277.946C1296.19 278.606 1295.92 279.37 1295.65 279.864C1295.42 279.939 1295.07 280.003 1295.07 280.003L1295.32 279.504C1295.49 279.162 1295.65 278.861 1295.63 278.456C1295.58 278.349 1295.52 278.344 1295.47 278.349C1295.03 278.437 1294.47 278.972 1293.92 279.495L1293.57 279.827C1291.33 282.022 1288.7 286.609 1288.3 287.57C1289.22 287.13 1292.25 284.184 1293.73 282.156C1294.03 282.146 1294.29 282.096 1294.29 282.096C1294.05 282.552 1292.43 284.599 1290.5 286.405C1289.65 287.2 1288.75 287.929 1287.78 288.585C1287.36 289.478 1286.95 290.461 1286.77 291.496C1286.75 291.639 1286.7 292.254 1287.16 292.217C1287.76 292.088 1288.83 290.347 1288.83 290.347C1288.91 290.227 1288.99 290.104 1289.07 289.978C1290.05 288.453 1291.31 286.507 1292.95 285.567C1293.35 285.341 1293.94 285.223 1294.35 285.473C1294.44 285.533 1294.67 285.81 1294.74 285.935C1294.74 285.935 1294.91 285.644 1294.99 285.518H1296.64L1294.2 289.894C1294.2 289.894 1293.33 291.211 1293.12 291.859ZM1274.2 283.119L1272.64 283.052L1273.5 281.608H1275.04L1274.2 283.119ZM1293.43 280.362C1294.91 280.511 1296.13 280.086 1297.31 279.43C1298.74 278.631 1299.71 277.541 1299.71 277.541C1299.71 277.541 1299.05 278.932 1297.75 280.035C1296.53 281.13 1294.33 282.28 1292.26 281.762C1292.63 281.282 1293.03 280.815 1293.43 280.362ZM1281.56 283.371C1282.1 283.241 1284.18 282.004 1284.43 279.241C1284.44 279.14 1284.44 279.066 1284.41 278.95C1283.06 279.629 1281.71 280.793 1280.97 282.354C1280.47 283.513 1281.24 283.435 1281.56 283.371ZM1279.15 285.518C1279.54 285.495 1279.92 285.709 1280.07 286.041C1280.42 286.752 1280.19 287.685 1279.99 288.345C1279.17 290.567 1277.39 293.308 1275.54 294.204C1274.69 294.541 1273.47 294.745 1272.56 293.807C1271.49 292.703 1271.73 290.032 1272.17 288.765C1272.74 286.886 1273.81 284.982 1275.54 282.779C1277.88 279.966 1280.21 278.199 1282.57 277.535C1283.23 277.377 1284.12 277.321 1284.66 277.904C1284.66 277.904 1284.92 277.816 1285.21 277.715C1285.94 277.455 1287.25 277.268 1289.01 278.215L1289.09 278.257C1289.84 278.663 1290.61 279.075 1291.33 279.508L1291.8 279.79C1291.47 280.09 1290.9 280.691 1290.55 281.089C1290.26 280.965 1289.76 280.657 1289.2 280.313C1288.37 279.806 1287.41 279.222 1286.82 279.029C1286.82 279.029 1285.55 278.456 1284.92 278.78C1284.93 278.89 1284.94 279.038 1284.94 279.149C1284.94 280.063 1284.84 280.715 1284.45 281.541C1283.76 282.631 1282.46 283.966 1281.16 284.262C1280.88 284.28 1280.53 284.252 1280.33 283.901C1279.95 283.227 1280.28 282.326 1280.55 281.764C1281.61 279.54 1284.08 278.506 1284.08 278.506C1283.7 278.36 1283.25 278.414 1282.77 278.654C1280.4 279.805 1278.54 281.8 1276.95 283.901C1275.4 286.165 1274.32 288.151 1274.07 290.485C1274.01 291.307 1274.28 291.944 1274.8 292.25C1275.63 292.748 1276.59 292.101 1277.23 291.565C1278.01 290.859 1278.66 290.017 1279.14 289.079C1279.78 287.824 1279.95 286.526 1279.47 286.369C1278.92 286.216 1278.44 286.789 1278.19 287.144C1277.55 288.005 1277.42 288.969 1277.42 288.969C1276.5 289.376 1275.68 290.12 1275.28 290.572C1275.4 289.565 1275.59 288.932 1275.94 288.165C1276.6 286.673 1277.86 285.634 1279.15 285.518ZM1259.22 284.608L1259.53 283.898C1259.64 283.584 1259.73 283.245 1259.73 282.945C1259.73 282.724 1259.68 282.52 1259.54 282.364C1259.32 282.192 1258.94 282.28 1258.7 282.446C1258.44 282.636 1257.86 283.159 1258.01 283.823C1258.11 284.165 1258.44 284.452 1258.88 284.586L1259.02 284.608C1259.02 284.609 1259.03 284.611 1259.03 284.612C1259.11 284.629 1259.17 284.643 1259.22 284.608ZM1258.84 285.287C1258.85 285.275 1258.86 285.232 1258.86 285.232C1258.88 285.189 1258.89 285.172 1258.89 285.158C1258.89 285.149 1258.88 285.144 1258.88 285.144C1258.4 285.006 1257.76 284.706 1257.42 284.059C1257.41 284.052 1257.41 284.05 1257.41 284.048C1257.41 284.047 1257.41 284.046 1257.41 284.045C1257.4 284.046 1257.39 284.049 1257.38 284.054C1256.84 284.826 1256.28 285.657 1255.92 286.599L1255.88 286.738C1255.76 287.126 1255.6 287.606 1255.9 287.953C1256.04 288.125 1256.31 288.082 1256.51 288.017C1257.17 287.683 1257.69 286.991 1258.12 286.435L1258.13 286.419L1258.84 285.287ZM1267.75 284.42C1267.73 284.445 1267.72 284.467 1267.7 284.488C1266.43 286.169 1266.02 287.385 1265.98 287.782C1265.98 287.84 1265.98 287.9 1266.01 287.954C1266.03 288.008 1266.07 288.054 1266.12 288.087C1266.21 288.151 1266.34 288.142 1266.42 288.119C1266.99 287.81 1267.34 287.366 1267.68 286.849C1267.68 286.849 1267.93 286.479 1267.93 286.484C1268.49 285.565 1269.07 284.537 1269.61 283.57C1269.82 283.196 1270.02 282.831 1270.22 282.486C1270.19 282.283 1269.89 281.996 1269.14 282.647C1268.92 282.832 1268.1 283.944 1267.75 284.42ZM1255.36 284.312C1256.93 282.252 1258.89 281.051 1259.87 281.68H1259.87C1260.77 282.324 1260.07 283.947 1259.85 284.467C1259.83 284.52 1259.81 284.562 1259.8 284.59C1260.15 284.678 1261.25 283.826 1261.9 283.119C1262.42 282.555 1263.45 281.764 1264.01 281.556C1264.43 281.356 1265.07 281.292 1265.5 281.541C1265.78 281.704 1265.83 282.102 1265.85 282.454C1265.91 283.433 1264.77 285.107 1264.19 284.294C1264.07 283.944 1264.18 283.502 1264.55 283.115C1264.65 283.019 1264.76 282.946 1264.88 282.899C1265.01 282.851 1265.14 282.832 1265.27 282.841C1265.39 282.661 1265.36 282.399 1265.18 282.292C1264.98 282.176 1264.6 282.255 1264.24 282.527C1262.98 283.512 1261.9 285.209 1261.25 287.006C1261.14 287.344 1261.08 287.857 1261.28 288.208C1261.83 289.044 1263.12 287.88 1263.12 287.88C1264 287.117 1264.84 286.062 1265.5 285.125C1267.22 282.686 1269.44 280.393 1270.44 281.76C1270.45 281.77 1270.46 281.784 1270.47 281.798C1270.48 281.817 1270.49 281.836 1270.5 281.842C1270.51 281.824 1270.69 281.542 1270.69 281.542H1272.31L1268.93 287.601C1268.86 287.743 1268.81 287.946 1268.93 288.042C1269.02 288.106 1269.18 288.025 1269.18 288.025C1269.99 287.64 1271.19 286.002 1271.42 285.693C1271.44 285.661 1271.46 285.643 1271.46 285.643H1272.02C1271.78 285.987 1271.54 286.375 1271.3 286.777C1270.65 287.848 1269.94 289.014 1268.96 289.692C1268.58 289.937 1267.93 290.35 1267.44 290.179C1266.93 289.86 1266.93 288.919 1266.97 288.439C1266.97 288.439 1266.96 288.445 1266.95 288.456C1266.82 288.656 1265.59 290.467 1264.58 290.179C1264.22 290.068 1263.7 289.246 1264.12 287.814L1264.17 287.588L1263.9 287.842C1263.72 288.019 1263.53 288.217 1263.34 288.421C1262.46 289.336 1261.47 290.372 1260.3 290.18C1259.36 289.89 1259.28 288.62 1259.25 288.119C1259.24 288.051 1259.24 287.997 1259.24 287.962C1259.12 287.059 1260.14 285.304 1260.29 285.054C1260.3 285.035 1260.3 285.025 1260.3 285.024C1260.03 285.101 1259.76 285.166 1259.49 285.218L1259.1 285.847L1259.07 285.889C1258.68 286.532 1258.27 287.198 1257.74 287.754L1257.64 287.86C1256.85 288.771 1254.84 290.861 1253.83 289.692C1253.16 288.699 1253.93 286.161 1255.36 284.312ZM1259.34 291.676C1263.52 290.535 1266.19 290.466 1268.11 291.676C1268.77 292.096 1269.28 292.544 1269.73 292.941C1269.94 293.124 1270.13 293.296 1270.32 293.45C1269.09 292.564 1267.54 292.199 1266.49 292.85C1265.43 293.5 1264.92 294.555 1264.92 294.555C1263.21 291.493 1257.52 292.757 1256.51 292.997C1256.06 293.177 1255.62 293.412 1255.18 293.644C1254.4 294.061 1253.63 294.473 1252.82 294.555C1251.04 294.703 1249.48 293.104 1248.76 291.774C1247.83 289.856 1248.45 287.5 1249.14 285.856C1250.33 283.131 1252.44 280.641 1255.07 278.843C1256.27 278.117 1257.58 277.462 1258.98 277.541C1259.39 277.615 1259.72 277.831 1259.91 278.145C1260.36 279.028 1259.79 279.975 1259.4 280.469C1259.03 280.907 1258.19 281.075 1258.22 280.275C1258.25 279.754 1258.68 279.366 1258.84 279.245C1259.03 279.12 1259.28 279.098 1259.43 279.098C1259.58 278.968 1259.68 278.063 1258.51 278.359C1256.98 278.83 1255.82 280.003 1254.57 281.37C1252.33 283.999 1251.07 286.369 1250.61 288.831C1250.41 290.341 1250.67 291.39 1251.43 292.041C1253.1 293.178 1254.43 292.855 1257.59 292.091C1258.12 291.963 1258.7 291.824 1259.34 291.676Z" fill="#1A84A3" fill-opacity="0.8"/>
</g>
<defs>
<clipPath id="clip0_25_135">
<rect x="60" y="30" width="100" height="100" rx="50" fill="white"/>
</clipPath>
</defs>
</svg>
