<svg width="338" height="40" viewBox="0 0 338 40" fill="none" xmlns="http://www.w3.org/2000/svg">
<path d="M332.984 32.0992V0.496582H337.093V32.0992H332.984Z" fill="white"/>
<path d="M313.226 32.6863C311.962 32.6863 310.819 32.4455 309.795 31.9639C308.772 31.4522 307.959 30.7148 307.357 29.7517C306.755 28.7585 306.454 27.5094 306.454 26.0046C306.454 24.8909 306.65 23.9128 307.041 23.07C307.463 22.2273 308.095 21.5049 308.938 20.903C309.81 20.301 310.924 19.8044 312.278 19.4131C313.633 19.0219 315.288 18.6908 317.245 18.4199C318.358 18.2694 319.261 18.1189 319.953 17.9684C320.676 17.818 321.202 17.5772 321.533 17.2461C321.865 16.8849 322.03 16.3582 322.03 15.666C322.03 14.5223 321.639 13.5591 320.856 12.7766C320.074 11.994 318.84 11.6028 317.154 11.6028C316.281 11.6028 315.394 11.7533 314.491 12.0542C313.588 12.3552 312.79 12.8669 312.098 13.5892C311.436 14.2815 311.014 15.2597 310.834 16.5238L307.041 15.2597C307.282 14.1761 307.673 13.198 308.215 12.3251C308.787 11.4523 309.509 10.7149 310.382 10.1129C311.255 9.48088 312.263 8.99932 313.407 8.66824C314.581 8.33717 315.875 8.17163 317.29 8.17163C319.246 8.17163 320.871 8.50271 322.166 9.16486C323.49 9.82701 324.468 10.8503 325.1 12.2348C325.762 13.5892 326.093 15.3349 326.093 17.4718V22.6637C326.093 23.5967 326.108 24.6201 326.138 25.7337C326.199 26.8172 326.274 27.9158 326.364 29.0294C326.454 30.1129 326.545 31.1362 326.635 32.0993H322.843C322.752 31.1362 322.662 30.1731 322.572 29.21C322.512 28.2468 322.467 27.2837 322.436 26.3206H321.85C321.398 27.4342 320.796 28.4726 320.044 29.4357C319.291 30.3988 318.343 31.1814 317.199 31.7833C316.086 32.3853 314.761 32.6863 313.226 32.6863ZM314.445 29.3454C315.108 29.3454 315.77 29.2401 316.432 29.0294C317.124 28.8187 317.801 28.4726 318.464 27.991C319.156 27.5094 319.803 26.8924 320.405 26.14C321.037 25.3875 321.594 24.4846 322.075 23.4312V18.9165L323.249 19.1423C322.767 19.6238 322.12 19.985 321.308 20.2258C320.525 20.4666 319.652 20.6622 318.689 20.8127C317.726 20.9632 316.763 21.1287 315.8 21.3093C314.837 21.4598 313.949 21.7006 313.136 22.0316C312.354 22.3326 311.722 22.769 311.24 23.3409C310.758 23.9128 310.518 24.6953 310.518 25.6885C310.518 26.8924 310.879 27.8104 311.601 28.4425C312.324 29.0444 313.272 29.3454 314.445 29.3454Z" fill="white"/>
<path d="M298.369 32.5505C296.202 32.5505 294.592 31.9636 293.538 30.7898C292.485 29.616 291.958 27.8252 291.958 25.4173V12.1894H288.437L288.482 8.75823H290.694C291.447 8.75823 291.988 8.62279 292.319 8.35191C292.681 8.08103 292.891 7.62956 292.951 6.99751L293.403 3.47607H295.931V8.75823H302.658V12.2345H295.931V25.327C295.931 26.531 296.202 27.4038 296.744 27.9455C297.316 28.4572 298.128 28.713 299.182 28.713C299.754 28.713 300.34 28.6378 300.942 28.4873C301.574 28.3368 302.191 28.0358 302.793 27.5844V31.6927C301.921 32.0238 301.108 32.2495 300.355 32.3699C299.633 32.4903 298.971 32.5505 298.369 32.5505Z" fill="white"/>
<path d="M279.859 32.0993V8.75845H283.967V32.0993H279.859ZM281.936 4.69525C280.973 4.69525 280.25 4.49961 279.769 4.10834C279.287 3.71707 279.046 3.13017 279.046 2.34762C279.046 1.56508 279.287 0.978176 279.769 0.586907C280.25 0.195636 280.957 0 281.891 0C282.854 0 283.576 0.195636 284.058 0.586907C284.539 0.978176 284.78 1.56508 284.78 2.34762C284.78 3.10007 284.539 3.68698 284.058 4.10834C283.576 4.49961 282.869 4.69525 281.936 4.69525Z" fill="white"/>
<path d="M252.347 39.4131V20.4515V8.75854H256.049L255.823 14.763H256.5C256.861 13.4387 257.358 12.295 257.99 11.3319C258.652 10.3387 259.495 9.57118 260.518 9.02942C261.541 8.45756 262.775 8.17163 264.22 8.17163C266.357 8.17163 268.133 8.71339 269.547 9.79691C270.992 10.8503 272.076 12.3101 272.798 14.1761C273.52 16.0121 273.882 18.1039 273.882 20.4515C273.882 22.7991 273.52 24.8909 272.798 26.7269C272.076 28.5629 271.007 30.0226 269.593 31.1061C268.208 32.1595 266.508 32.6863 264.491 32.6863C262.866 32.6863 261.511 32.3552 260.428 31.693C259.374 31.0008 258.532 30.0978 257.9 28.9842C257.268 27.8706 256.771 26.7118 256.41 25.5079H255.642C255.823 26.3206 255.973 27.1633 256.094 28.0361C256.214 28.909 256.304 29.7818 256.365 30.6547C256.455 31.4974 256.5 32.31 256.5 33.0926V39.4131H252.347ZM263.453 29.1197C264.777 29.1197 265.891 28.7434 266.794 27.991C267.696 27.2085 268.389 26.155 268.87 24.8307C269.352 23.5064 269.593 22.0166 269.593 20.3612C269.593 18.5855 269.337 17.0655 268.825 15.8014C268.344 14.5373 267.651 13.5591 266.748 12.8669C265.845 12.1445 264.747 11.7834 263.453 11.7834C262.339 11.7834 261.346 12.0392 260.473 12.5509C259.63 13.0324 258.908 13.6946 258.306 14.5373C257.704 15.3499 257.237 16.2529 256.906 17.2461C256.605 18.2092 256.455 19.1724 256.455 20.1355V20.6772C256.455 21.2792 256.545 21.9564 256.726 22.7088C256.906 23.4312 257.177 24.1686 257.538 24.921C257.9 25.6735 258.351 26.3657 258.893 26.9978C259.465 27.6298 260.127 28.1415 260.879 28.5328C261.632 28.924 262.49 29.1197 263.453 29.1197Z" fill="white"/>
<path d="M232.589 32.6863C231.325 32.6863 230.181 32.4455 229.158 31.9639C228.134 31.4522 227.322 30.7148 226.72 29.7517C226.118 28.7585 225.817 27.5094 225.817 26.0046C225.817 24.8909 226.012 23.9128 226.404 23.07C226.825 22.2273 227.457 21.5049 228.3 20.903C229.173 20.301 230.286 19.8044 231.641 19.4131C232.995 19.0219 234.65 18.6908 236.607 18.4199C237.72 18.2694 238.623 18.1189 239.316 17.9684C240.038 17.818 240.565 17.5772 240.896 17.2461C241.227 16.8849 241.392 16.3582 241.392 15.666C241.392 14.5223 241.001 13.5591 240.218 12.7766C239.436 11.994 238.202 11.6028 236.516 11.6028C235.644 11.6028 234.756 11.7533 233.853 12.0542C232.95 12.3552 232.152 12.8669 231.46 13.5892C230.798 14.2815 230.376 15.2597 230.196 16.5238L226.404 15.2597C226.644 14.1761 227.036 13.198 227.577 12.3251C228.149 11.4523 228.872 10.7149 229.744 10.1129C230.617 9.48088 231.626 8.99932 232.769 8.66824C233.943 8.33717 235.237 8.17163 236.652 8.17163C238.608 8.17163 240.233 8.50271 241.528 9.16486C242.852 9.82701 243.83 10.8503 244.462 12.2348C245.124 13.5892 245.455 15.3349 245.455 17.4718V22.6637C245.455 23.5967 245.47 24.6201 245.501 25.7337C245.561 26.8172 245.636 27.9158 245.726 29.0294C245.817 30.1129 245.907 31.1362 245.997 32.0993H242.205C242.115 31.1362 242.024 30.1731 241.934 29.21C241.874 28.2468 241.829 27.2837 241.799 26.3206H241.212C240.76 27.4342 240.158 28.4726 239.406 29.4357C238.653 30.3988 237.705 31.1814 236.562 31.7833C235.448 32.3853 234.124 32.6863 232.589 32.6863ZM233.808 29.3454C234.47 29.3454 235.132 29.2401 235.794 29.0294C236.486 28.8187 237.164 28.4726 237.826 27.991C238.518 27.5094 239.165 26.8924 239.767 26.14C240.399 25.3875 240.956 24.4846 241.437 23.4312V18.9165L242.611 19.1423C242.13 19.6238 241.483 19.985 240.67 20.2258C239.887 20.4666 239.015 20.6622 238.051 20.8127C237.088 20.9632 236.125 21.1287 235.162 21.3093C234.199 21.4598 233.311 21.7006 232.498 22.0316C231.716 22.3326 231.084 22.769 230.602 23.3409C230.121 23.9128 229.88 24.6953 229.88 25.6885C229.88 26.8924 230.241 27.8104 230.963 28.4425C231.686 29.0444 232.634 29.3454 233.808 29.3454Z" fill="white"/>
<path d="M209.927 32.6862C207.791 32.6862 205.864 32.3551 204.149 31.6929C202.463 31.0308 201.034 30.0526 199.86 28.7584C198.686 27.4642 197.783 25.8841 197.151 24.018C196.549 22.1219 196.248 19.9699 196.248 17.562C196.248 15.1241 196.564 12.942 197.196 11.0158C197.828 9.05943 198.731 7.389 199.905 6.00451C201.079 4.62001 202.493 3.56659 204.149 2.84424C205.804 2.0918 207.655 1.71558 209.702 1.71558C211.267 1.71558 212.712 1.94131 214.036 2.39277C215.36 2.81414 216.504 3.4462 217.467 4.28893C218.46 5.10157 219.228 6.0948 219.769 7.26861C220.311 8.44242 220.597 9.75168 220.627 11.1964L216.699 12.1896C216.73 10.6546 216.414 9.3905 215.751 8.39728C215.089 7.37395 214.216 6.60646 213.133 6.0948C212.049 5.58314 210.876 5.32731 209.611 5.32731C208.438 5.32731 207.294 5.56809 206.18 6.04965C205.097 6.50112 204.134 7.22346 203.291 8.21669C202.448 9.17982 201.771 10.4289 201.259 11.9639C200.778 13.4687 200.537 15.2897 200.537 17.4266C200.537 20.1655 200.928 22.3777 201.711 24.0632C202.523 25.7486 203.652 26.9977 205.097 27.8103C206.541 28.5929 208.212 28.9841 210.108 28.9841C211.944 28.9841 213.419 28.6531 214.532 27.9909C215.646 27.2987 216.474 26.3506 217.015 25.1467C217.557 23.9127 217.873 22.4981 217.964 20.9029L221.666 21.5801C221.636 23.085 221.395 24.5146 220.943 25.869C220.492 27.2234 219.8 28.4123 218.867 29.4356C217.933 30.4589 216.73 31.2565 215.255 31.8284C213.78 32.4002 212.004 32.6862 209.927 32.6862Z" fill="white"/>
<path d="M172.767 32.0992V0.496582H176.875V18.5101C178.049 17.878 179.178 17.1557 180.261 16.3431C181.345 15.5304 182.353 14.6726 183.286 13.7697C184.219 12.8668 185.017 11.9789 185.679 11.106C186.371 10.2332 186.898 9.45066 187.259 8.75842H192.09C191.518 9.87203 190.78 11.0007 189.877 12.1444C189.005 13.258 188.026 14.3115 186.943 15.3047C185.859 16.2678 184.716 17.0955 183.512 17.7877C182.338 18.48 181.134 18.9766 179.9 19.2776V19.8193C181.405 19.6989 182.729 19.8795 183.873 20.3611C185.017 20.8427 186.025 21.5349 186.898 22.4378C187.801 23.3408 188.628 24.3792 189.381 25.553C190.133 26.6967 190.856 27.9156 191.548 29.2098L192.947 32.0992H188.297L187.304 30.0225C186.491 28.4875 185.664 27.103 184.821 25.869C183.978 24.6049 183.015 23.6117 181.932 22.8893C180.848 22.167 179.554 21.8058 178.049 21.8058H176.875V32.0992H172.767Z" fill="white"/>
<path d="M157.451 32.6863C155.826 32.6863 154.381 32.5057 153.117 32.1445C151.853 31.8134 150.799 31.3319 149.956 30.6998C149.114 30.0376 148.467 29.2551 148.015 28.3522C147.564 27.4492 147.323 26.456 147.293 25.3725L150.769 24.4696C150.709 25.4628 150.95 26.3356 151.491 27.0881C152.063 27.8104 152.861 28.3672 153.884 28.7585C154.938 29.1498 156.202 29.3454 157.677 29.3454C159.452 29.3454 160.822 29.0444 161.785 28.4425C162.778 27.8405 163.275 27.0128 163.275 25.9594C163.275 25.1167 163.004 24.4696 162.462 24.0181C161.92 23.5365 161.168 23.1603 160.205 22.8894C159.272 22.5885 158.158 22.3176 156.864 22.0768C155.78 21.836 154.697 21.5651 153.613 21.2642C152.53 20.9632 151.537 20.5719 150.634 20.0903C149.761 19.5787 149.054 18.9165 148.512 18.1039C147.97 17.2913 147.699 16.283 147.699 15.0791C147.699 13.6645 148.075 12.4455 148.828 11.4222C149.58 10.3989 150.649 9.60127 152.033 9.02942C153.418 8.45756 155.073 8.17163 156.999 8.17163C158.926 8.17163 160.566 8.47261 161.92 9.07456C163.275 9.64642 164.343 10.4591 165.126 11.5125C165.908 12.5659 166.345 13.7999 166.435 15.2145L162.868 16.1174C162.838 15.1242 162.567 14.2815 162.056 13.5892C161.574 12.897 160.882 12.3853 159.979 12.0542C159.076 11.6931 158.023 11.5125 156.819 11.5125C155.224 11.5125 153.96 11.8135 153.026 12.4154C152.093 13.0174 151.627 13.8451 151.627 14.8985C151.627 15.681 151.898 16.3131 152.44 16.7946C153.011 17.2762 153.779 17.6524 154.742 17.9233C155.705 18.1942 156.774 18.4651 157.947 18.7359C159.151 18.9767 160.295 19.2476 161.379 19.5486C162.492 19.8496 163.485 20.2408 164.358 20.7224C165.231 21.204 165.923 21.8511 166.435 22.6637C166.947 23.4462 167.203 24.4545 167.203 25.6885C167.203 27.2235 166.796 28.5177 165.984 29.5711C165.171 30.5945 164.027 31.377 162.552 31.9188C161.108 32.4304 159.407 32.6863 157.451 32.6863Z" fill="white"/>
<path d="M137.541 32.0993V8.75845H141.65V32.0993H137.541ZM139.618 4.69525C138.655 4.69525 137.932 4.49961 137.451 4.10834C136.969 3.71707 136.729 3.13017 136.729 2.34762C136.729 1.56508 136.969 0.978176 137.451 0.586907C137.932 0.195636 138.64 0 139.573 0C140.536 0 141.258 0.195636 141.74 0.586907C142.221 0.978176 142.462 1.56508 142.462 2.34762C142.462 3.10007 142.221 3.68698 141.74 4.10834C141.258 4.49961 140.551 4.69525 139.618 4.69525Z" fill="white"/>
<path d="M108.449 32.099V2.30225H118.833C120.338 2.30225 121.707 2.42264 122.941 2.66342C124.205 2.9042 125.319 3.26537 126.282 3.74694C127.275 4.2285 128.103 4.81541 128.765 5.50766C129.457 6.1999 129.969 7.01254 130.3 7.94557C130.661 8.84851 130.842 9.85678 130.842 10.9704C130.842 12.0238 130.676 12.9869 130.345 13.8598C130.044 14.7326 129.578 15.5001 128.946 16.1623C128.314 16.8244 127.531 17.3662 126.598 17.7875C125.665 18.1788 124.582 18.4497 123.348 18.6002V19.1871C124.431 19.3075 125.379 19.5934 126.192 20.0449C127.004 20.4963 127.697 21.1585 128.269 22.0313C128.84 22.8741 129.337 24.0027 129.758 25.4173L131.655 32.099H127.185L125.65 26.0042C125.379 24.7702 124.913 23.777 124.25 23.0246C123.618 22.2721 122.821 21.7153 121.858 21.3541C120.895 20.993 119.766 20.8124 118.472 20.8124H112.603V32.099H108.449ZM112.603 17.4264H118.472C121.15 17.4264 123.167 16.9448 124.521 15.9817C125.906 15.0185 126.598 13.5438 126.598 11.5573C126.598 9.57085 125.936 8.11111 124.612 7.17808C123.317 6.21495 121.301 5.73339 118.562 5.73339H112.603V17.4264Z" fill="white"/>
<path d="M90.101 32.0993V19.4583V8.75854H93.803L93.4418 16.8849H94.2093C94.4802 15.1092 94.9015 13.5742 95.4734 12.28C96.0453 10.9858 96.7977 9.9775 97.7307 9.25515C98.6939 8.5328 99.8827 8.17163 101.297 8.17163C101.598 8.17163 101.944 8.20173 102.336 8.26193C102.727 8.29202 103.178 8.39736 103.69 8.57795L103.464 12.8669C103.013 12.6863 102.561 12.5659 102.11 12.5057C101.658 12.4154 101.222 12.3703 100.801 12.3703C99.6269 12.3703 98.6036 12.7465 97.7307 13.4989C96.888 14.2514 96.1807 15.2747 95.6088 16.5689C95.037 17.833 94.5705 19.2627 94.2093 20.8578V32.0993H90.101Z" fill="white"/>
<path d="M74.6403 32.6863C72.8043 32.6863 71.1791 32.4154 69.7645 31.8736C68.38 31.3018 67.2062 30.4891 66.243 29.4357C65.2799 28.3823 64.5575 27.1332 64.076 25.6885C63.5944 24.2438 63.3536 22.6186 63.3536 20.8127C63.3536 18.9767 63.5944 17.2913 64.076 15.7563C64.5575 14.2213 65.2648 12.8819 66.1979 11.7382C67.1309 10.5945 68.2746 9.72167 69.629 9.11971C70.9834 8.48766 72.5335 8.17163 74.2791 8.17163C75.8141 8.17163 77.2137 8.42746 78.4778 8.93912C79.7419 9.45079 80.8103 10.2484 81.6832 11.3319C82.5861 12.3853 83.2633 13.7247 83.7148 15.3499C84.1662 16.9451 84.3468 18.8262 84.2565 20.9933L65.927 21.1287V18.3296L81.7735 18.1942L80.3739 20.0903C80.5244 18.1942 80.3438 16.6291 79.8322 15.3951C79.3205 14.1611 78.5831 13.2281 77.62 12.596C76.6869 11.9639 75.5733 11.6479 74.2791 11.6479C72.8946 11.6479 71.6757 12.0091 70.6222 12.7314C69.5688 13.4538 68.7562 14.4922 68.1843 15.8466C67.6426 17.201 67.3717 18.8413 67.3717 20.7675C67.3717 23.5365 67.9887 25.6584 69.2227 27.1332C70.4567 28.5779 72.2927 29.3003 74.7306 29.3003C75.6636 29.3003 76.4763 29.1949 77.1685 28.9842C77.8909 28.7434 78.4928 28.4274 78.9744 28.0361C79.486 27.6148 79.8924 27.1332 80.1933 26.5915C80.5244 26.0497 80.7802 25.4628 80.9608 24.8307L84.5726 25.6885C84.3017 26.772 83.8803 27.7502 83.3084 28.6231C82.7667 29.4658 82.0744 30.1881 81.2317 30.7901C80.4191 31.392 79.471 31.8586 78.3875 32.1896C77.3039 32.5207 76.0549 32.6863 74.6403 32.6863Z" fill="white"/>
<path d="M47.407 40C44.939 40 42.9074 39.8043 41.3122 39.413C39.7471 39.0519 38.5884 38.48 37.8359 37.6975C37.0835 36.945 36.7073 35.997 36.7073 34.8532C36.7073 33.4687 37.249 32.325 38.3326 31.4221C39.4161 30.5192 41.0564 29.9172 43.2535 29.6162V28.8036C41.6584 28.8036 40.4544 28.608 39.6418 28.2167C38.8292 27.8254 38.4228 27.2385 38.4228 26.456C38.4228 25.6433 38.8292 24.9661 39.6418 24.4244C40.4544 23.8525 41.7787 23.3258 43.6147 22.8442V21.9865C41.7787 21.9564 40.3792 21.4146 39.4161 20.3612C38.4529 19.2777 37.9714 17.8781 37.9714 16.1625C37.9714 14.6275 38.3777 13.3032 39.1903 12.1896C40.0331 11.0459 41.237 10.1731 42.8021 9.57113C44.3973 8.93907 46.2934 8.62305 48.4905 8.62305H59.5063V12.0993L52.2829 10.9707V11.8285C54.0285 12.1896 55.3679 12.8066 56.3009 13.6795C57.2339 14.5222 57.7005 15.6659 57.7005 17.1106C57.7005 18.4048 57.3242 19.5335 56.5718 20.4966C55.8193 21.4597 54.7057 22.2122 53.2309 22.7539C51.7862 23.2656 49.9954 23.5214 47.8585 23.5214C47.4371 23.5214 46.9857 23.5064 46.5041 23.4763C46.0526 23.4161 45.4507 23.3258 44.6982 23.2054C43.8856 23.7171 43.2234 24.1836 42.7118 24.605C42.2302 25.0263 41.9894 25.4025 41.9894 25.7336C41.9894 26.0647 42.2152 26.3356 42.6666 26.5463C43.1482 26.7268 43.7201 26.8472 44.3822 26.9074C45.0444 26.9676 45.6614 26.9977 46.2332 26.9977H51.5154C52.1173 26.9977 52.8698 27.0579 53.7727 27.1783C54.7057 27.2987 55.6237 27.5545 56.5266 27.9458C57.4597 28.3371 58.2422 28.939 58.8743 29.7517C59.5063 30.5643 59.8224 31.693 59.8224 33.1377C59.8224 34.7629 59.3408 36.0873 58.3777 37.1106C57.4145 38.1339 56.015 38.8713 54.179 39.3228C52.3431 39.7742 50.0857 40 47.407 40ZM47.4973 36.614C49.5139 36.614 51.1391 36.4785 52.3732 36.2076C53.6373 35.9669 54.5552 35.5756 55.1271 35.0338C55.7291 34.4921 56.03 33.7998 56.03 32.9571C56.03 32.1745 55.8193 31.5726 55.398 31.1512C55.0067 30.6997 54.5101 30.3837 53.9081 30.2031C53.3062 30.0226 52.7042 29.9172 52.1023 29.8871C51.5003 29.8269 50.9887 29.7968 50.5673 29.7968H45.2851C43.5395 30.1881 42.3356 30.7298 41.6734 31.4221C41.0113 32.1143 40.6802 32.8517 40.6802 33.6343C40.6802 34.477 40.9812 35.1091 41.5831 35.5304C42.1851 35.9518 42.9977 36.2377 44.021 36.3882C45.0745 36.5387 46.2332 36.614 47.4973 36.614ZM48.0391 20.8578C49.9352 20.8578 51.3649 20.4665 52.328 19.684C53.2911 18.9014 53.7727 17.848 53.7727 16.5237C53.7727 15.1091 53.2761 13.9504 52.2829 13.0474C51.3197 12.1144 49.86 11.6479 47.9036 11.6479C46.0075 11.6479 44.5477 12.0843 43.5244 12.9571C42.5312 13.83 42.0346 14.9586 42.0346 16.3431C42.0346 17.2461 42.2603 18.0436 42.7118 18.7359C43.1933 19.398 43.8705 19.9248 44.7434 20.316C45.6463 20.6772 46.7449 20.8578 48.0391 20.8578Z" fill="white"/>
<path d="M27.4522 32.0993V8.75845H31.5606V32.0993H27.4522ZM29.529 4.69525C28.5658 4.69525 27.8435 4.49961 27.3619 4.10834C26.8804 3.71707 26.6396 3.13017 26.6396 2.34762C26.6396 1.56508 26.8804 0.978176 27.3619 0.586907C27.8435 0.195636 28.5508 0 29.4838 0C30.447 0 31.1693 0.195636 31.6509 0.586907C32.1324 0.978176 32.3732 1.56508 32.3732 2.34762C32.3732 3.10007 32.1324 3.68698 31.6509 4.10834C31.1693 4.49961 30.462 4.69525 29.529 4.69525Z" fill="white"/>
<path d="M9.57447 32.099V2.30225H13.728V32.099H9.57447ZM0.5 5.91398V2.30225H22.8024V5.91398H0.5Z" fill="white"/>
</svg>
