<svg width="322" height="77" viewBox="0 0 322 77" fill="none" xmlns="http://www.w3.org/2000/svg">
<g clip-path="url(#clip0_107_5256)">
<path d="M41.8445 67.0367C40.9336 63.6909 39.504 60.5084 37.6077 57.6047C34.8193 53.266 31.2404 49.4893 27.0573 46.4707C23.5041 43.6824 19.4529 41.5945 15.1195 40.3183C14.1808 40.0526 6.46318 38.2094 6.46318 38.2094C6.46318 38.2094 14.1559 36.4575 15.078 36.1918C19.107 35.0155 22.9134 33.1807 26.3429 30.7618C30.4158 27.9477 33.9429 24.417 36.7521 20.3418C39.0501 17.0902 40.7701 13.4669 41.8362 9.63123C41.911 9.241 42.0688 8.62659 42.2516 7.92086C42.2516 7.83783 42.2018 7.7548 42.1851 7.67177C41.9359 6.66713 39.9504 0 39.9504 0C39.9504 0 38.2308 5.92818 37.8736 7.63856C36.7347 11.7404 34.8937 15.6141 32.4322 19.0881C29.4248 23.446 25.65 27.2214 21.292 30.2304C17.6139 32.8152 13.5361 34.7786 9.22125 36.0424C8.23267 36.3247 0 38.2011 0 38.2011C0 38.2011 8.2659 40.1689 9.2711 40.4512C13.9092 41.8124 18.2454 44.0441 22.0479 47.027C26.5349 50.2462 30.3736 54.2828 33.3626 58.9248C35.3935 62.0265 36.9241 65.4279 37.8985 69.0044C38.1477 69.9925 39.9421 77 39.9421 77C39.9421 77 41.9193 69.9925 42.1685 68.9961C42.1685 68.8799 42.235 68.7553 42.2599 68.6391L41.8445 67.0367Z" fill="#CD394B"/>
<path d="M58.044 47.0187C53.5571 50.2379 49.7183 54.2745 46.7293 58.9166C44.6977 62.0208 43.167 65.425 42.1934 69.0045C41.9442 69.9925 40.1498 77 40.1498 77C40.1498 77 38.1726 69.9925 37.9234 68.9962C37.9234 68.8799 37.857 68.7554 37.8237 68.6391C38.0231 67.8753 38.1726 67.2775 38.2308 67.0367C39.1417 63.6909 40.5713 60.5084 42.4676 57.6047C45.2561 53.2608 48.8415 49.483 53.0346 46.4707" fill="#CD394B"/>
<path d="M53.7408 30.7618C49.6716 27.9432 46.1452 24.4132 43.3315 20.3418C41.0391 17.0881 39.3222 13.4653 38.2557 9.63123C38.1809 9.241 38.0231 8.62659 37.832 7.92086C37.832 7.83783 37.8902 7.7548 37.9068 7.67177C38.156 6.66713 40.1415 0 40.1415 0C40.1415 0 41.8611 5.92818 42.2184 7.63856C43.3601 11.7393 45.2008 15.6126 47.6597 19.0881C50.67 23.4436 54.4443 27.2186 58.8 30.2304" fill="#CD394B"/>
</g>
<g clip-path="url(#clip1_107_5256)">
<path d="M49.1603 65.989C49.1603 65.989 47.8685 60.9554 47.6903 60.2427C46.9895 57.6767 45.8924 55.2359 44.4385 53.0085C42.295 49.6722 39.5379 46.7729 36.3134 44.4647C33.5877 42.3168 30.4758 40.711 27.1459 39.7339C26.4243 39.5379 20.4908 38.1214 20.4908 38.1214C20.4908 38.1214 26.3976 36.7672 27.1103 36.5712C30.2064 35.6667 33.1322 34.258 35.77 32.4018C38.9062 30.2366 41.623 27.5198 43.7881 24.3836C45.5552 21.8892 46.8755 19.1068 47.6903 16.1605C47.9487 14.931 49.1781 10.6725 49.1781 10.6725C49.1781 10.6725 50.6036 15.4656 50.7818 16.1783C51.2304 17.9081 51.873 19.5817 52.6972 21.1674C53.842 23.3498 55.2448 25.3868 56.8756 27.2345C58.6309 29.1482 60.5806 30.874 62.6932 32.3839C65.2737 34.2622 68.1619 35.6761 71.2281 36.5623C71.9409 36.7583 76.0747 38.1481 76.0747 38.1481C76.0747 38.1481 71.923 39.5112 71.2014 39.7072C69.2213 40.2781 67.3207 41.0952 65.5441 42.1394C63.1844 43.5252 60.9879 45.1719 58.9959 47.0483C57.0898 48.7809 55.4212 50.7581 54.0336 52.9283C52.5642 55.1708 51.4633 57.6342 50.7729 60.2248C50.5769 60.9554 49.1603 65.989 49.1603 65.989Z" fill="white"/>
</g>
<path d="M282.055 56.3873V39.2297V28.667H286.398L285.915 37.4603H286.827C287.291 35.3513 287.917 33.5998 288.703 32.2058C289.49 30.776 290.455 29.7215 291.599 29.0423C292.778 28.3274 294.119 27.97 295.62 27.97C297.407 27.97 298.873 28.4168 300.017 29.3104C301.161 30.1683 302.001 31.2943 302.537 32.6883C303.109 34.0824 303.395 35.6194 303.395 37.2994H304.252C304.646 35.2977 305.253 33.5998 306.076 32.2058C306.898 30.8117 307.916 29.7572 309.132 29.0423C310.347 28.3274 311.741 27.97 313.314 27.97C314.744 27.97 315.995 28.2559 317.067 28.8279C318.139 29.3998 319.051 30.2577 319.802 31.4015C320.552 32.5096 321.106 33.8858 321.464 35.5301C321.821 37.1743 322 39.0688 322 41.2135V56.3873H317.121V41.8569C317.121 39.748 316.924 37.9965 316.531 36.6024C316.138 35.1726 315.548 34.1181 314.762 33.439C314.011 32.7241 313.046 32.3666 311.866 32.3666C310.544 32.3666 309.346 32.8313 308.274 33.7607C307.237 34.6543 306.379 35.9233 305.7 37.5675C305.057 39.1761 304.628 41.0169 304.413 43.0901V56.3873H299.641V42.3395C299.641 40.1233 299.445 38.2824 299.052 36.8169C298.658 35.3513 298.069 34.2432 297.282 33.4926C296.532 32.7419 295.549 32.3666 294.333 32.3666C292.903 32.3666 291.67 32.867 290.634 33.8679C289.597 34.833 288.757 36.1377 288.114 37.782C287.506 39.4263 287.113 41.2671 286.934 43.3046V56.3873H282.055Z" fill="white"/>
<path d="M257.342 57.0852C254.268 57.0852 251.944 56.0128 250.371 53.8681C248.799 51.7234 248.012 48.5242 248.012 44.2706V28.6678H252.945V43.8416C252.945 46.8442 253.41 49.0783 254.339 50.5438C255.268 52.0094 256.734 52.7422 258.736 52.7422C259.844 52.7422 260.827 52.4741 261.685 51.9379C262.578 51.4017 263.365 50.6332 264.044 49.6323C264.723 48.6315 265.277 47.4519 265.706 46.0936C266.135 44.6995 266.421 43.1982 266.564 41.5897V28.6678H271.443V44.8068V56.3882H267.1L267.529 47.4876H266.725C266.26 49.7038 265.599 51.5268 264.741 52.9566C263.919 54.3507 262.882 55.3873 261.631 56.0665C260.38 56.7456 258.95 57.0852 257.342 57.0852Z" fill="white"/>
<path d="M217.81 56.3882V51.9379L233.52 33.4934V32.7964H217.918V28.6678H240.008V32.85L223.976 51.509V52.206H240.115V56.3882H217.81Z" fill="white"/>
<path d="M199.714 57.0843C197.534 57.0843 195.604 56.7626 193.924 56.1192C192.279 55.4401 190.885 54.4749 189.742 53.2239C188.598 51.9728 187.74 50.4894 187.168 48.7736C186.596 47.0578 186.31 45.1276 186.31 42.9829C186.31 40.8025 186.596 38.8007 187.168 36.9777C187.74 35.1547 188.58 33.5641 189.688 32.2058C190.796 30.8474 192.154 29.8108 193.763 29.0959C195.371 28.3453 197.212 27.97 199.286 27.97C201.109 27.97 202.771 28.2738 204.272 28.8815C205.773 29.4891 207.042 30.4364 208.079 31.7232C209.151 32.9743 209.955 34.5649 210.492 36.4952C211.028 38.3897 211.242 40.6237 211.135 43.1974L189.366 43.3582V40.0339L208.186 39.8731L206.524 42.125C206.703 39.8731 206.488 38.0143 205.88 36.5488C205.273 35.0832 204.397 33.9751 203.253 33.2245C202.145 32.4739 200.823 32.0985 199.286 32.0985C197.641 32.0985 196.194 32.5275 194.943 33.3854C193.691 34.2432 192.726 35.4764 192.047 37.085C191.404 38.6935 191.082 40.6416 191.082 42.9293C191.082 46.2178 191.815 48.7379 193.28 50.4894C194.746 52.2051 196.926 53.063 199.822 53.063C200.93 53.063 201.895 52.9379 202.717 52.6877C203.575 52.4017 204.29 52.0264 204.862 51.5617C205.469 51.0613 205.952 50.4894 206.309 49.846C206.703 49.2026 207.006 48.5055 207.221 47.7549L211.51 48.7736C211.189 50.0604 210.688 51.2221 210.009 52.2588C209.366 53.2596 208.544 54.1175 207.543 54.8324C206.578 55.5473 205.452 56.1014 204.165 56.4945C202.878 56.8877 201.394 57.0843 199.714 57.0843Z" fill="white"/>
<path d="M167.2 57.0843C165.02 57.0843 163.09 56.7626 161.41 56.1192C159.765 55.4401 158.371 54.4749 157.228 53.2239C156.084 51.9728 155.226 50.4894 154.654 48.7736C154.082 47.0578 153.796 45.1276 153.796 42.9829C153.796 40.8025 154.082 38.8007 154.654 36.9777C155.226 35.1547 156.066 33.5641 157.174 32.2058C158.282 30.8474 159.64 29.8108 161.249 29.0959C162.857 28.3453 164.698 27.97 166.771 27.97C168.594 27.97 170.257 28.2738 171.758 28.8815C173.259 29.4891 174.528 30.4364 175.565 31.7232C176.637 32.9743 177.441 34.5649 177.978 36.4952C178.514 38.3897 178.728 40.6237 178.621 43.1974L156.852 43.3582V40.0339L175.672 39.8731L174.01 42.125C174.189 39.8731 173.974 38.0143 173.366 36.5488C172.759 35.0832 171.883 33.9751 170.739 33.2245C169.631 32.4739 168.309 32.0985 166.771 32.0985C165.127 32.0985 163.68 32.5275 162.428 33.3854C161.177 34.2432 160.212 35.4764 159.533 37.085C158.89 38.6935 158.568 40.6416 158.568 42.9293C158.568 46.2178 159.301 48.7379 160.766 50.4894C162.232 52.2051 164.412 53.063 167.308 53.063C168.416 53.063 169.381 52.9379 170.203 52.6877C171.061 52.4017 171.776 52.0264 172.348 51.5617C172.955 51.0613 173.438 50.4894 173.795 49.846C174.189 49.2026 174.492 48.5055 174.707 47.7549L178.996 48.7736C178.675 50.0604 178.174 51.2221 177.495 52.2588C176.852 53.2596 176.029 54.1175 175.029 54.8324C174.063 55.5473 172.938 56.1014 171.651 56.4945C170.364 56.8877 168.88 57.0843 167.2 57.0843Z" fill="white"/>
<path d="M132.208 56.3873V41.3744V28.667H136.605L136.176 38.3182H137.087C137.409 36.2092 137.91 34.3862 138.589 32.8492C139.268 31.3121 140.162 30.1147 141.27 29.2568C142.413 28.3989 143.825 27.97 145.505 27.97C145.863 27.97 146.274 28.0057 146.739 28.0772C147.203 28.113 147.739 28.2381 148.347 28.4525L148.079 33.5462C147.543 33.3317 147.007 33.1888 146.471 33.1173C145.934 33.01 145.416 32.9564 144.916 32.9564C143.522 32.9564 142.306 33.4032 141.27 34.2969C140.269 35.1905 139.429 36.4058 138.75 37.9428C138.07 39.4441 137.516 41.142 137.087 43.0365V56.3873H132.208Z" fill="white"/>
<path d="M95.2 56.3876V21H108.175C110.141 21 111.929 21.1787 113.537 21.5362C115.181 21.8936 116.576 22.4477 117.719 23.1983C118.863 23.9132 119.739 24.8605 120.347 26.0401C120.99 27.2196 121.312 28.6316 121.312 30.2758C121.312 31.6342 121.044 32.8316 120.507 33.8682C119.971 34.9048 119.113 35.7448 117.934 36.3883C116.79 37.0317 115.271 37.5321 113.376 37.8895V38.4793C116.665 38.7653 119.042 39.6589 120.507 41.1602C122.009 42.6615 122.759 44.6275 122.759 47.0582C122.759 49.0599 122.277 50.7578 121.312 52.1518C120.382 53.5102 118.935 54.5646 116.969 55.3153C115.038 56.0302 112.536 56.3876 109.462 56.3876H95.2ZM99.9183 52.2055H109.945C112.626 52.2055 114.61 51.7586 115.896 50.865C117.219 49.9356 117.88 48.5237 117.88 46.6292C117.88 44.4488 116.969 42.8224 115.146 41.75C113.358 40.6419 110.642 40.0879 106.996 40.0879H99.9183V52.2055ZM99.9183 36.4419H106.031C109.534 36.4419 112.143 35.9772 113.859 35.0478C115.575 34.0827 116.433 32.6529 116.433 30.7584C116.433 28.8639 115.682 27.452 114.181 26.5226C112.715 25.5932 110.481 25.1286 107.478 25.1286H99.9183V36.4419Z" fill="white"/>
<defs>
<clipPath id="clip0_107_5256">
<rect width="58.8" height="77" fill="white"/>
</clipPath>
<clipPath id="clip1_107_5256">
<rect width="55.566" height="55.2987" fill="white" transform="translate(20.4908 10.6907)"/>
</clipPath>
</defs>
</svg>
