<svg width="30" height="30" viewBox="0 0 30 30" fill="none" xmlns="http://www.w3.org/2000/svg">
<rect width="30" height="30" rx="10" fill="#CD394B"/>
<path d="M24.5 12H19.5L21.36 10.14C19.9 8.23 17.59 7 15 7C10.58 7 7 10.58 7 15C7 16.83 7.61 18.5 8.64 19.85C9.86 18.45 12.15 17.5 15 17.5C17.85 17.5 20.15 18.45 21.36 19.85C22.39 18.5 23 16.83 23 15H25C25 20.5 20.5 25 15 25C9.5 25 5 20.5 5 15C5 9.5 9.5 5 15 5C18.14 5 20.95 6.45 22.78 8.72L24.5 7V12ZM15 10C16.66 10 18 11.34 18 13C18 14.66 16.66 16 15 16C13.34 16 12 14.66 12 13C12 11.34 13.34 10 15 10Z" fill="white"/>
</svg>
