<svg width="30" height="30" viewBox="0 0 30 30" fill="none" xmlns="http://www.w3.org/2000/svg">
<rect width="30" height="30" rx="10" fill="#CD394B"/>
<path d="M16.5 6C11.53 6 7.5 10.03 7.5 15H4.5L8.5 19L12.5 15H9.5C9.5 11.13 12.63 8 16.5 8C20.37 8 23.5 11.13 23.5 15C23.5 18.87 20.37 22 16.5 22C15.05 22 13.63 21.54 12.44 20.7L11 22.14C12.58 23.34 14.5 24 16.5 24C21.47 24 25.5 19.97 25.5 15C25.5 10.03 21.47 6 16.5 6ZM20.79 16.19L19.79 15.45C19.8 15.3 19.8 15.15 19.79 15C19.81 14.85 19.81 14.7 19.79 14.55L20.79 13.81C20.87 13.74 20.9 13.62 20.85 13.5L19.94 12C19.89 11.89 19.76 11.84 19.65 11.88L18.5 12.3C18.27 12.12 18 11.97 17.74 11.85L17.57 10.67C17.55 10.57 17.46 10.5 17.36 10.5H15.6C15.5 10.5 15.39 10.58 15.37 10.69L15.2 11.88C14.93 12 14.67 12.13 14.43 12.3L13.31 11.85C13.21 11.81 13.09 11.85 13.03 11.95L12.13 13.5C12.08 13.61 12.1 13.72 12.19 13.79L13.19 14.55C13.16 14.85 13.16 15.15 13.19 15.45L12.19 16.19C12.11 16.26 12.08 16.38 12.13 16.5L13.03 18C13.08 18.11 13.2 18.16 13.31 18.12L14.43 17.67C14.66 17.85 14.92 18 15.19 18.12L15.37 19.3C15.39 19.41 15.5 19.5 15.6 19.47H17.4C17.5 19.47 17.61 19.39 17.62 19.28L17.8 18.09C18.06 17.97 18.31 17.83 18.55 17.67L19.68 18.12C19.78 18.12 19.9 18.12 19.96 18L20.86 16.45C20.91 16.35 20.88 16.23 20.79 16.16V16.19ZM16.5 16.5C15.67 16.5 15 15.83 15 15C15 14.17 15.67 13.5 16.5 13.5C17.33 13.5 18 14.17 18 15C18 15.82 17.34 16.5 16.5 16.5Z" fill="white"/>
</svg>
