<svg width="30" height="30" viewBox="0 0 30 30" fill="none" xmlns="http://www.w3.org/2000/svg">
<rect width="30" height="30" rx="10" fill="#CD394B"/>
<path d="M15 4L6 8V14C6 19.55 9.84 24.74 15 26C20.16 24.74 24 19.55 24 14V8L15 4ZM15 10C16.4 10 17.8 11.1 17.8 12.5V14C18.4 14 19 14.6 19 15.3V18.8C19 19.4 18.4 20 17.7 20H12.2C11.6 20 11 19.4 11 18.7V15.2C11 14.6 11.6 14 12.2 14V12.5C12.2 11.1 13.6 10 15 10ZM15 11.2C14.2 11.2 13.5 11.7 13.5 12.5V14H16.5V12.5C16.5 11.7 15.8 11.2 15 11.2Z" fill="white"/>
</svg>
