<svg width="11" height="16" viewBox="0 0 11 16" fill="none" xmlns="http://www.w3.org/2000/svg">
<path d="M0 1.77778C0 0.795938 0.795938 0 1.77778 0H8.88889C9.87073 0 10.6667 0.795938 10.6667 1.77778V14.2222C10.6667 15.2041 9.87073 16 8.88889 16H1.77778C0.795939 16 0 15.2041 0 14.2222V1.77778ZM8.88889 1.77778H1.77778V14.2222H8.88889V1.77778Z" fill="#E3E6E7"/>
<path d="M6.22222 12.4444C6.22222 12.9354 5.82425 13.3333 5.33333 13.3333C4.84241 13.3333 4.44444 12.9354 4.44444 12.4444C4.44444 11.9535 4.84241 11.5556 5.33333 11.5556C5.82425 11.5556 6.22222 11.9535 6.22222 12.4444Z" fill="#E3E6E7"/>
</svg>
