<svg width="178" height="30" viewBox="0 0 178 30" fill="none" xmlns="http://www.w3.org/2000/svg">
<path d="M156.796 12.6463C155.842 13.311 154.459 13.6395 152.565 13.6395H151.743H150.687L152.127 5.86209H152.857H153.508C155.08 5.86209 156.228 6.11508 157.019 6.62854C157.637 7.03122 158.37 7.82835 158.37 9.34103C158.37 11.1636 157.518 12.1441 156.796 12.6463ZM44.7696 22.4072H30.2363L31.1757 17.3236H40.2914L41.3273 11.5977H32.2992L33.1719 6.56641H47.6797L44.7696 22.4072ZM164.625 2.20277C162.488 0.737999 159.255 0 155.015 0H143.912L139.785 22.408H125.241L126.174 17.3243H134.936L135.978 11.6142L127.221 11.6299L128.158 6.56791H137.182L138.383 0.000748069H120.052L116.135 21.2583H109.414L113.36 0.000748069H103.777L99.8592 21.2583H93.3055L97.2552 0.000748069H87.6822L83.5446 22.4087H68.8968L69.8197 17.3251H78.6218L79.6585 11.6478L70.8698 11.6396L71.8032 6.56791H80.9271L82.1217 0.000748069H25.0149L21.7643 17.7584L15.2885 0H5.34939L0 28.9789H9.49147L12.7286 10.7332L19.0136 28.9789H53.0335L57.1689 6.56716H62.4921L58.3545 28.9789H147.871L150.464 14.8304L154.667 28.9789H164.163L159.812 17.4186L160.806 17.2038C162.994 16.7353 164.708 15.7256 165.896 14.2129C167.087 12.686 167.692 10.7257 167.692 8.371C167.692 5.62857 166.691 3.61216 164.625 2.20277Z" fill="white"/>
<path d="M172.451 25.5515L173.745 25.4841C174.019 25.4714 174.235 25.4302 174.386 25.3651C174.537 25.3015 174.652 25.2042 174.725 25.0732C174.799 24.943 174.834 24.806 174.824 24.6593C174.813 24.4423 174.725 24.2694 174.563 24.1369C174.4 24.0059 174.148 23.952 173.811 23.9677L172.371 24.0411L172.451 25.5515ZM171.973 28.1248L171.74 23.5665L173.763 23.4647C174.167 23.4438 174.476 23.4692 174.692 23.5411C174.909 23.6114 175.084 23.7477 175.221 23.949C175.358 24.1496 175.435 24.3726 175.444 24.6241C175.463 24.9475 175.371 25.2244 175.174 25.4579C174.976 25.6892 174.661 25.8472 174.227 25.9295C174.39 25.9998 174.516 26.0672 174.602 26.1368C174.787 26.2895 174.963 26.4841 175.132 26.7191L175.983 27.9197L175.231 27.9579L174.58 27.0402C174.39 26.7745 174.234 26.5724 174.113 26.4332C173.992 26.294 173.884 26.1989 173.791 26.145C173.7 26.0912 173.603 26.056 173.511 26.0365C173.441 26.026 173.329 26.0245 173.174 26.0328L172.477 26.068L172.578 28.0941L171.973 28.1248Z" fill="white"/>
<path d="M169.999 25.9193C169.952 24.9762 170.272 24.0721 170.905 23.373C171.537 22.6724 172.407 22.2585 173.352 22.2106C175.296 22.1095 176.96 23.6117 177.06 25.5585C177.063 25.6184 177.067 25.682 177.067 25.7397C177.067 27.6079 175.596 29.173 173.71 29.2717C171.763 29.3705 170.1 27.8669 169.999 25.9193ZM173.311 21.4838C172.177 21.5444 171.129 22.0399 170.368 22.885C169.606 23.7293 169.217 24.822 169.276 25.959C169.398 28.3032 171.403 30.1123 173.749 29.9948C176.092 29.8735 177.905 27.8669 177.783 25.5226V25.5204C177.665 23.1754 175.66 21.3648 173.311 21.4838Z" fill="white"/>
</svg>
