<svg width="16" height="16" viewBox="0 0 16 16" fill="none" xmlns="http://www.w3.org/2000/svg">
<path d="M5.05263 0C5.51771 0 5.89474 0.377023 5.89474 0.842105V1.68421H9.26316V0.842105C9.26316 0.377023 9.64018 0 10.1053 0C10.5703 0 10.9474 0.377023 10.9474 0.842105V1.68421H13.4737C14.4038 1.68421 15.1579 2.43826 15.1579 3.36842V14.3158C15.1579 15.246 14.4038 16 13.4737 16H1.68421C0.754047 16 0 15.246 0 14.3158V3.36842C0 2.43826 0.754047 1.68421 1.68421 1.68421H4.21053V0.842105C4.21053 0.377023 4.58755 0 5.05263 0ZM4.21053 3.36842H1.68421V5.89474H13.4737V3.36842H10.9474V4.21053C10.9474 4.67561 10.5703 5.05263 10.1053 5.05263C9.64018 5.05263 9.26316 4.67561 9.26316 4.21053V3.36842H5.89474V4.21053C5.89474 4.67561 5.51771 5.05263 5.05263 5.05263C4.58755 5.05263 4.21053 4.67561 4.21053 4.21053V3.36842ZM13.4737 7.57895H1.68421V14.3158H13.4737V7.57895Z" fill="#023144"/>
</svg>
