<svg width="114" height="30" viewBox="0 0 114 30" fill="none" xmlns="http://www.w3.org/2000/svg">
<g clip-path="url(#clip0_8_311)">
<path d="M36.1844 5.99939C35.9515 5.99939 35.7537 6.16846 35.7173 6.39868L33.0215 23.4945C33.0117 23.5569 33.0156 23.6208 33.0328 23.6816C33.05 23.7424 33.0802 23.7988 33.1213 23.8468C33.1624 23.8949 33.2134 23.9334 33.2708 23.9599C33.3282 23.9863 33.3907 24 33.4539 24H36.6509C36.8834 24 37.0816 23.8306 37.118 23.6007L37.9099 18.5804C37.9459 18.3505 38.1441 18.1811 38.377 18.1811H41.2836C44.6797 18.1811 47.5626 15.7032 48.0892 12.3455C48.6201 8.95946 45.9748 6.00674 42.2255 5.99939H36.1844ZM39.2922 9.81583H41.6177C43.5323 9.81583 44.1558 10.9455 43.9586 12.1948C43.7615 13.4468 42.7932 14.369 40.9411 14.369H38.5741L39.2922 9.81583ZM54.5914 10.9779C53.7841 10.9809 52.8552 11.1463 51.8124 11.5807C49.4204 12.5778 48.2716 14.6383 47.7838 16.1406C47.7838 16.1406 46.2311 20.7239 49.7391 23.2419C49.7391 23.2419 52.9925 25.666 56.655 23.0925L56.5918 23.4945C56.582 23.5569 56.5858 23.6207 56.603 23.6814C56.6202 23.7422 56.6503 23.7985 56.6914 23.8466C56.7324 23.8946 56.7833 23.9332 56.8406 23.9597C56.8979 23.9862 56.9603 23.9999 57.0235 24H60.0584C60.2913 24 60.4891 23.8306 60.5255 23.6007L62.3716 11.8935C62.3815 11.831 62.3777 11.7672 62.3606 11.7063C62.3435 11.6455 62.3134 11.589 62.2723 11.5409C62.2313 11.4928 62.1803 11.4542 62.123 11.4277C62.0656 11.4011 62.0031 11.3873 61.9399 11.3873H58.905C58.6721 11.3873 58.474 11.5567 58.4379 11.7865L58.3386 12.4167C58.3386 12.4167 57.0135 10.9689 54.5914 10.9779ZM54.6906 14.6758C55.0391 14.6758 55.3579 14.7239 55.6439 14.8158C56.9533 15.2361 57.6958 16.4941 57.4809 17.8577C57.216 19.5367 55.839 20.773 54.0731 20.773C53.725 20.773 53.4062 20.7252 53.1198 20.6333C51.8107 20.213 51.0636 18.955 51.2784 17.5914C51.5434 15.9124 52.9247 14.6758 54.6906 14.6758Z" fill="white"/>
<path d="M79.8888 5.99939C79.6559 5.99939 79.4581 6.16846 79.4216 6.39868L76.7259 23.4945C76.7161 23.5569 76.7199 23.6208 76.7371 23.6816C76.7544 23.7424 76.7846 23.7988 76.8257 23.8468C76.8667 23.8949 76.9177 23.9334 76.9752 23.9599C77.0326 23.9863 77.095 24 77.1582 24H80.3552C80.5878 24 80.7859 23.8306 80.8223 23.6007L81.6142 18.5804C81.6503 18.3505 81.8484 18.1811 82.0813 18.1811H84.9879C88.384 18.1811 91.2666 15.7032 91.7928 12.3455C92.3241 8.95946 89.6791 6.00674 85.9298 5.99939H79.8888ZM82.9965 9.81583H85.3221C87.2366 9.81583 87.8601 10.9455 87.663 12.1948C87.4659 13.4468 86.4979 14.369 84.6455 14.369H82.2785L82.9965 9.81583ZM98.2954 10.9779C97.4881 10.9809 96.5592 11.1463 95.5164 11.5807C93.1244 12.5778 91.9756 14.6383 91.4878 16.1406C91.4878 16.1406 89.9357 20.7239 93.4438 23.2419C93.4438 23.2419 96.6966 25.666 100.359 23.0925L100.296 23.4945C100.286 23.5569 100.29 23.6208 100.307 23.6816C100.325 23.7424 100.355 23.7988 100.396 23.8468C100.437 23.8949 100.488 23.9334 100.545 23.9599C100.603 23.9863 100.665 24 100.729 24H103.763C103.996 24 104.194 23.8306 104.23 23.6007L106.077 11.8935C106.087 11.831 106.083 11.7671 106.066 11.7062C106.049 11.6453 106.019 11.5888 105.977 11.5407C105.936 11.4926 105.885 11.4539 105.828 11.4274C105.77 11.401 105.708 11.3872 105.645 11.3873H102.61C102.377 11.3873 102.179 11.5567 102.143 11.7865L102.043 12.4167C102.043 12.4167 100.717 10.9689 98.2954 10.9779ZM98.3946 14.6758C98.7431 14.6758 99.0619 14.7239 99.3479 14.8158C100.657 15.2361 101.4 16.4941 101.185 17.8577C100.92 19.5367 99.543 20.773 97.7771 20.773C97.429 20.773 97.1102 20.7252 96.8239 20.6333C95.5147 20.213 94.7676 18.955 94.9825 17.5914C95.2474 15.9124 96.6287 14.6758 98.3946 14.6758Z" fill="white"/>
<path d="M63.8117 11.3872C63.5712 11.3872 63.4001 11.6221 63.4736 11.8509L66.8009 22.1759L63.7923 27.0415C63.6463 27.2778 63.8161 27.5828 64.0937 27.5828H67.6495C67.7512 27.5828 67.8512 27.5564 67.9397 27.5065C68.0283 27.4565 68.1025 27.3845 68.1551 27.2975L77.4476 11.9251C77.5903 11.6889 77.4199 11.3868 77.1439 11.3868H73.5884C73.4857 11.3869 73.3848 11.4137 73.2957 11.4647C73.2065 11.5156 73.1321 11.5888 73.0798 11.6772L69.4221 17.8526L67.5654 11.723C67.5049 11.5235 67.3208 11.3868 67.1126 11.3868L63.8117 11.3872Z" fill="white"/>
<path d="M109.525 5.99939C109.293 5.99939 109.094 6.16879 109.058 6.39868L106.362 23.4938C106.352 23.5563 106.355 23.6202 106.373 23.6811C106.39 23.742 106.42 23.7985 106.461 23.8466C106.502 23.8947 106.553 23.9333 106.611 23.9598C106.668 23.9863 106.731 24 106.794 24H109.991C110.223 24 110.422 23.8306 110.458 23.6007L113.154 6.50493C113.164 6.44254 113.16 6.37876 113.143 6.31799C113.125 6.25722 113.095 6.20089 113.054 6.15286C113.013 6.10483 112.962 6.06625 112.905 6.03976C112.848 6.01326 112.785 5.99949 112.722 5.99939H109.525Z" fill="white"/>
<path d="M9.53212 5.99939C9.32618 5.99956 9.12706 6.07317 8.97052 6.20698C8.81398 6.3408 8.71027 6.52606 8.67807 6.72947L7.25903 15.7296C7.32519 15.3093 7.68738 14.9995 8.11306 14.9995H12.2713C16.4563 14.9995 20.0075 11.9466 20.6563 7.80938C20.7046 7.5005 20.732 7.18872 20.7382 6.87615C19.6747 6.31849 18.4253 5.99939 17.0564 5.99939H9.53212Z" fill="#C7C7C7"/>
<path d="M20.7382 6.87646C20.732 7.18903 20.7046 7.50082 20.6563 7.80969C20.0074 11.9469 16.456 14.9999 12.2713 14.9999H8.11306C7.68771 14.9999 7.32518 15.3093 7.25903 15.7299L5.95423 24.0004L5.13696 29.1887C5.12101 29.289 5.12698 29.3915 5.15449 29.4892C5.18201 29.5869 5.2304 29.6775 5.29631 29.7547C5.36222 29.8318 5.4441 29.8938 5.53629 29.9363C5.62847 29.9788 5.72878 30.0007 5.83028 30.0007H10.3437C10.5497 30.0005 10.7488 29.9269 10.9053 29.7931C11.0619 29.6593 11.1655 29.474 11.1978 29.2706L12.3866 21.7303C12.4188 21.5267 12.5226 21.3414 12.6793 21.2076C12.836 21.0737 13.0353 21.0002 13.2413 21.0002H15.8987C20.0836 21.0002 23.6348 17.9472 24.2837 13.81C24.7444 10.8737 23.2656 8.20163 20.7382 6.87646Z" fill="white"/>
<path d="M4.4043 0.000244141C3.97895 0.000244141 3.61643 0.30965 3.55027 0.729653L0.00847275 23.1886C-0.0586876 23.615 0.270774 24.0005 0.702472 24.0005H5.95468L7.2588 15.7301L8.67783 6.72998C8.71004 6.52657 8.81374 6.34131 8.97028 6.2075C9.12682 6.07368 9.32594 6.00007 9.53188 5.9999H17.0562C18.4254 5.9999 19.6744 6.31933 20.738 6.87666C20.8108 3.11 17.7027 0.000244141 13.4295 0.000244141H4.4043Z" fill="white"/>
</g>
<defs>
<clipPath id="clip0_8_311">
<rect width="113.159" height="30" fill="white"/>
</clipPath>
</defs>
</svg>
