<svg width="30" height="30" viewBox="0 0 30 30" fill="none" xmlns="http://www.w3.org/2000/svg">
<path d="M6.9928 6.84027H11.4827L12.93 10.4583L10.6051 12.0082C10.3269 12.1937 10.1598 12.5059 10.1598 12.8403C10.1623 12.9339 10.1598 12.8413 10.1598 12.8413L10.1598 12.8423L10.1598 12.8446L10.1598 12.8496L10.16 12.8619C10.1601 12.8712 10.1604 12.8824 10.1608 12.8955C10.1616 12.9217 10.1632 12.9556 10.1659 12.9966C10.1714 13.0787 10.1817 13.1897 10.2011 13.3254C10.2398 13.5967 10.315 13.9684 10.4611 14.4065C10.7543 15.2862 11.3305 16.4252 12.4527 17.5474C13.5748 18.6695 14.7138 19.2457 15.5935 19.539C16.0317 19.685 16.4033 19.7602 16.6746 19.799C16.8103 19.8184 16.9213 19.8287 17.0034 19.8342C17.0445 19.8369 17.0784 19.8384 17.1046 19.8393C17.1177 19.8397 17.1289 19.8399 17.1381 19.8401L17.1504 19.8402L17.1555 19.8403L17.1577 19.8403L17.1588 19.8403C17.1588 19.8403 17.2704 19.8342 17.1598 19.8403C17.5385 19.8403 17.8848 19.6263 18.0542 19.2875L18.7239 17.9481L23.1598 18.6874V23.0072C21.0487 23.3126 15.3472 23.6135 10.8669 19.1332C6.38658 14.6529 6.68749 8.95137 6.9928 6.84027ZM12.2334 13.3264L14.0394 12.1224C14.8263 11.5978 15.1382 10.5936 14.7869 9.71552L13.3397 6.09749C13.036 5.33817 12.3005 4.84027 11.4827 4.84027H6.94055C6.03204 4.84027 5.17686 5.47143 5.02771 6.45717C4.6884 8.69977 4.22656 15.3213 9.45267 20.5474C14.6788 25.7735 21.3003 25.3116 23.5429 24.9723C24.5286 24.8232 25.1598 23.968 25.1598 23.0595V18.6874C25.1598 17.7097 24.4529 16.8753 23.4886 16.7146L19.0527 15.9753C18.1866 15.831 17.3277 16.2683 16.935 17.0537L16.5885 17.7466C16.4796 17.7199 16.3581 17.6856 16.226 17.6416C15.6057 17.4348 14.7447 17.011 13.8669 16.1332C12.989 15.2553 12.5652 14.3943 12.3585 13.774C12.3026 13.6064 12.2624 13.4557 12.2334 13.3264Z" fill="white"/>
</svg>
