<svg width="30" height="30" viewBox="0 0 30 30" fill="none" xmlns="http://www.w3.org/2000/svg">
<rect width="30" height="30" rx="10" fill="#CD394B"/>
<path d="M13.1461 6.24812C13.4433 5.51616 14.1614 5 15 5C15.8386 5 16.5567 5.51616 16.8539 6.24812C19.8202 7.06072 22 9.77579 22 13V17.6972L23.8321 20.4453C24.0366 20.7522 24.0557 21.1467 23.8817 21.4719C23.7077 21.797 23.3688 22 23 22H18.4646C18.2219 23.6961 16.7632 25 15 25C13.2368 25 11.7781 23.6961 11.5354 22H7C6.63121 22 6.29235 21.797 6.11833 21.4719C5.94431 21.1467 5.96338 20.7522 6.16795 20.4453L8 17.6972V13C8 9.77579 10.1798 7.06072 13.1461 6.24812ZM13.5854 22C13.7913 22.5826 14.3469 23 15 23C15.6531 23 16.2087 22.5826 16.4146 22H13.5854ZM15 8C12.2386 8 10 10.2386 10 13V18C10 18.1974 9.94156 18.3904 9.83205 18.5547L8.86852 20H21.1315L20.168 18.5547C20.0584 18.3904 20 18.1974 20 18V13C20 10.2386 17.7614 8 15 8Z" fill="white"/>
</svg>
