<svg width="30" height="30" viewBox="0 0 30 30" fill="none" xmlns="http://www.w3.org/2000/svg">
<rect width="30" height="30" rx="10" fill="#CD394B"/>
<path d="M24 19V7H6V19H24ZM24 5C24.5304 5 25.0391 5.21071 25.4142 5.58579C25.7893 5.96086 26 6.46957 26 7V19C26 19.5304 25.7893 20.0391 25.4142 20.4142C25.0391 20.7893 24.5304 21 24 21H17V23H19V25H11V23H13V21H6C4.89 21 4 20.1 4 19V7C4 5.89 4.89 5 6 5H24ZM8 9H17V14H8V9ZM18 9H22V11H18V9ZM22 12V17H18V12H22ZM8 15H12V17H8V15ZM13 15H17V17H13V15Z" fill="white"/>
</svg>
