<svg width="30" height="30" viewBox="0 0 30 30" fill="none" xmlns="http://www.w3.org/2000/svg">
<path d="M15 5C10.6 5 7 8.6 7 13C7 18.4 14 24.5 14.3 24.8C14.5 24.9 14.8 25 15 25C15.2 25 15.5 24.9 15.7 24.8C16 24.5 23 18.4 23 13C23 8.6 19.4 5 15 5ZM15 22.7C12.9 20.7 9 16.4 9 13C9 9.7 11.7 7 15 7C18.3 7 21 9.7 21 13C21 16.3 17.1 20.7 15 22.7ZM15 9C12.8 9 11 10.8 11 13C11 15.2 12.8 17 15 17C17.2 17 19 15.2 19 13C19 10.8 17.2 9 15 9ZM15 15C13.9 15 13 14.1 13 13C13 11.9 13.9 11 15 11C16.1 11 17 11.9 17 13C17 14.1 16.1 15 15 15Z" fill="white"/>
</svg>
