<svg width="30" height="30" viewBox="0 0 30 30" fill="none" xmlns="http://www.w3.org/2000/svg">
<rect width="30" height="30" rx="10" fill="#CD394B"/>
<path fill-rule="evenodd" clip-rule="evenodd" d="M9.85799 15.1044H10.74C12.0648 15.1044 13.2144 16.1376 13.2144 17.5044C13.2144 18.8712 12.0648 19.9044 10.74 19.9044H9.53999V22.0044C9.53999 22.2431 9.44517 22.472 9.27639 22.6408C9.1076 22.8096 8.87868 22.9044 8.63999 22.9044C8.4013 22.9044 8.17238 22.8096 8.00359 22.6408C7.83481 22.472 7.73999 22.2431 7.73999 22.0044V17.1624C7.73999 16.9164 7.73999 16.6476 7.77119 16.4208C7.80959 16.1484 7.90799 15.8088 8.20319 15.528C8.49119 15.2532 8.83079 15.168 9.09359 15.1332C9.34758 15.1083 9.60284 15.0986 9.85799 15.1044ZM9.53999 18.1044H10.74C11.154 18.1044 11.4144 17.7948 11.4144 17.5044C11.4144 17.214 11.154 16.9044 10.74 16.9044H9.89999C9.75359 16.9044 9.63959 16.9044 9.53999 16.9068V17.2044V18.1044ZM23.8152 15.1044H25.44C25.6787 15.1044 25.9076 15.1992 26.0764 15.368C26.2452 15.5368 26.34 15.7657 26.34 16.0044C26.34 16.2431 26.2452 16.472 26.0764 16.6408C25.9076 16.8096 25.6787 16.9044 25.44 16.9044H23.8644C23.3448 16.9044 23.0424 16.9056 22.8264 16.9332C22.7864 16.9381 22.7467 16.9453 22.7076 16.9548C22.7021 16.9806 22.6977 17.0066 22.6944 17.0328C22.6668 17.2272 22.6644 17.5068 22.6644 18.0048V18.1044H24.39C24.6287 18.1044 24.8576 18.1992 25.0264 18.368C25.1952 18.5368 25.29 18.7657 25.29 19.0044C25.29 19.2431 25.1952 19.472 25.0264 19.6408C24.8576 19.8096 24.6287 19.9044 24.39 19.9044H22.6644V22.0044C22.6644 22.2431 22.5696 22.472 22.4008 22.6408C22.232 22.8096 22.0031 22.9044 21.7644 22.9044C21.5257 22.9044 21.2968 22.8096 21.128 22.6408C20.9592 22.472 20.8644 22.2431 20.8644 22.0044V17.952C20.8644 17.526 20.8644 17.1168 20.9124 16.7808C20.9652 16.4004 21.0948 15.9852 21.4524 15.6456C21.8016 15.312 22.2204 15.1968 22.5984 15.1476C22.9416 15.1044 23.3628 15.1044 23.8152 15.1044ZM15.9624 15.1044H15.99C18.1848 15.1044 20.04 16.8096 20.04 19.0044C20.04 21.1992 18.1848 22.9044 15.99 22.9044H15.9624C15.7896 22.9044 15.6084 22.9044 15.4524 22.8912C15.1249 22.8752 14.8122 22.7498 14.5644 22.535C14.3166 22.3203 14.148 22.0287 14.0856 21.7068C14.0328 21.4596 14.0376 21.186 14.0388 21.054V16.9548C14.0376 16.8228 14.0328 16.5492 14.0868 16.302C14.1492 15.9803 14.3176 15.6888 14.5652 15.4741C14.8127 15.2594 15.1251 15.1339 15.4524 15.1176C15.6084 15.1044 15.7896 15.1044 15.9624 15.1044ZM15.8388 16.9044V21.1044H15.99C17.274 21.1044 18.24 20.1228 18.24 19.0044C18.24 17.886 17.274 16.9044 15.99 16.9044H15.8388Z" fill="white"/>
<path fill-rule="evenodd" clip-rule="evenodd" d="M8.6328 25.7892C9.7248 25.9032 11.136 25.9044 13.1124 25.9044H18.24C18.4787 25.9044 18.7076 25.9992 18.8764 26.168C19.0452 26.3368 19.14 26.5657 19.14 26.8044C19.14 27.0431 19.0452 27.272 18.8764 27.4408C18.7076 27.6096 18.4787 27.7044 18.24 27.7044H13.0608C11.148 27.7044 9.6408 27.7044 8.4468 27.5796C7.2264 27.4524 6.2232 27.1872 5.3652 26.5836C4.90888 26.2625 4.50076 25.8778 4.1532 25.4412C3.4992 24.6192 3.21 23.6532 3.0732 22.4856C2.94 21.3528 2.94 19.9272 2.94 18.1344V14.9904C2.94 13.2396 2.94 11.8824 3.012 10.7856C3.0852 9.67442 3.2352 8.76962 3.5652 7.93682C4.572 5.40002 6.6888 3.41762 9.348 2.48522C11.0028 1.90442 13.032 1.90442 16.5912 1.90442H17.0256C18.9888 1.90442 20.2116 1.90442 21.2196 2.25722C22.8396 2.82602 24.1368 4.03562 24.7548 5.59562C24.9648 6.12362 25.0548 6.68522 25.098 7.33922C25.14 7.97882 25.14 8.76602 25.14 9.75482V12.4044C25.14 12.6431 25.0452 12.872 24.8764 13.0408C24.7076 13.2096 24.4787 13.3044 24.24 13.3044C24.0013 13.3044 23.7724 13.2096 23.6036 13.0408C23.4348 12.872 23.34 12.6431 23.34 12.4044V9.78602C23.34 8.75882 23.34 8.03162 23.3016 7.45802C23.2644 6.89402 23.1936 6.54122 23.082 6.25802C22.6656 5.20922 21.7764 4.36202 20.6244 3.95642C19.9428 3.71642 19.056 3.70442 16.8204 3.70442C12.9684 3.70442 11.2716 3.71642 9.9444 4.18322C7.7508 4.95242 6.0432 6.57242 5.2392 8.60042C5.0064 9.18722 4.8756 9.88202 4.8072 10.9044C4.74 11.934 4.74 13.2324 4.74 15.0228V18.0768C4.74 19.9404 4.74 21.2592 4.86 22.2756C4.9776 23.2704 5.1984 23.8632 5.5608 24.3204C5.7984 24.6192 6.0816 24.8844 6.4008 25.1112C6.9024 25.464 7.5564 25.6776 8.6328 25.7892Z" fill="white"/>
<path fill-rule="evenodd" clip-rule="evenodd" d="M3.84 15.7044C3.60131 15.7044 3.37239 15.6096 3.20361 15.4408C3.03482 15.272 2.94 15.0431 2.94 14.8044C2.94 13.505 3.45621 12.2587 4.37506 11.3399C5.29392 10.421 6.54015 9.90482 7.8396 9.90482C8.0628 9.90482 8.2896 9.91442 8.502 9.92402L8.5836 9.92762C8.772 9.93602 8.9484 9.94442 9.126 9.94802C9.534 9.95762 9.8616 9.93722 10.1244 9.86642C10.3108 9.81639 10.4808 9.71821 10.6173 9.58172C10.7538 9.44523 10.852 9.27524 10.902 9.08882C10.9728 8.82602 10.992 8.49842 10.9836 8.09042C10.98 7.91402 10.9716 7.73642 10.9632 7.54922L10.9596 7.46762C10.9477 7.2466 10.9409 7.02535 10.9392 6.80402C10.9392 6.16049 11.066 5.52327 11.3123 4.92875C11.5586 4.33422 11.9196 3.79404 12.3747 3.33905C12.8298 2.88407 13.3701 2.52319 13.9646 2.27703C14.5592 2.03088 15.1965 1.90426 15.84 1.90442C16.0787 1.90442 16.3076 1.99924 16.4764 2.16802C16.6452 2.33681 16.74 2.56572 16.74 2.80442C16.74 3.04311 16.6452 3.27203 16.4764 3.44082C16.3076 3.6096 16.0787 3.70442 15.84 3.70442C15.4329 3.70426 15.0297 3.78432 14.6535 3.94002C14.2773 4.09572 13.9354 4.32401 13.6475 4.61185C13.3595 4.89969 13.1311 5.24144 12.9753 5.61758C12.8194 5.99372 12.7392 6.39687 12.7392 6.80402C12.7392 6.98042 12.7476 7.17122 12.7572 7.38362L12.7608 7.46282C12.7692 7.64882 12.7788 7.85162 12.7836 8.05322C12.7932 8.50922 12.7788 9.04082 12.6408 9.55442C12.5092 10.0464 12.2504 10.495 11.8904 10.8553C11.5304 11.2155 11.0819 11.4745 10.59 11.6064C10.0764 11.7432 9.5436 11.7576 9.0876 11.748C8.86468 11.7425 8.64186 11.7337 8.4192 11.7216C8.22615 11.7116 8.0329 11.706 7.8396 11.7048C7.01754 11.7048 6.22914 12.0314 5.64785 12.6127C5.06657 13.194 4.74 13.9824 4.74 14.8044C4.74 15.0431 4.64518 15.272 4.4764 15.4408C4.30762 15.6096 4.0787 15.7044 3.84 15.7044Z" fill="white"/>
</svg>
