<svg width="30" height="30" viewBox="0 0 30 30" fill="none" xmlns="http://www.w3.org/2000/svg">
<rect width="30" height="30" rx="10" fill="#CD394B"/>
<path d="M15 7C10.5817 7 7 10.5817 7 15C7 19.4183 10.5817 23 15 23C19.4183 23 23 19.4183 23 15C23 10.5817 19.4183 7 15 7ZM5 15C5 9.47715 9.47715 5 15 5C20.5228 5 25 9.47715 25 15C25 20.5228 20.5228 25 15 25C9.47715 25 5 20.5228 5 15ZM15 9C15.5523 9 16 9.44772 16 10V14.5858L18.7071 17.2929C19.0976 17.6834 19.0976 18.3166 18.7071 18.7071C18.3166 19.0976 17.6834 19.0976 17.2929 18.7071L14.2929 15.7071C14.1054 15.5196 14 15.2652 14 15V10C14 9.44772 14.4477 9 15 9Z" fill="white"/>
</svg>
