<svg width="58" height="30" viewBox="0 0 58 30" fill="none" xmlns="http://www.w3.org/2000/svg">
<path d="M41.0865 4.69363C42.3836 4.69363 43.4343 3.64323 43.4343 2.34749C43.4343 1.05142 42.3836 1.90735e-05 41.0865 1.90735e-05C39.7918 1.90735e-05 38.7411 1.05142 38.7411 2.34749C38.7411 3.64323 39.7918 4.69363 41.0865 4.69363ZM23.1057 5.96021C22.9995 6.22666 22.2373 8.38041 20.3929 10.6126V1.06818L15.4795 2.03914V19.3402H20.3929V13.9924C21.8164 16.1263 22.5189 19.3402 22.5189 19.3402H28.4043C27.8221 16.92 25.2756 12.4573 25.2756 12.4573C27.5611 9.55985 28.5649 6.47233 28.7244 5.96021H23.1057ZM36.0229 5.77989C31.6222 5.92133 29.3877 7.89577 29.3877 11.8209V19.3402H34.1896V13.2081C34.1896 10.8583 34.4972 9.85044 37.2858 9.75458V5.84893C36.8166 5.74905 36.0229 5.77989 36.0229 5.77989ZM7.23917 7.8656C6.63722 7.82639 5.24395 7.73623 5.24395 6.48172C5.24395 4.96813 7.24989 4.96813 8.00233 4.96813C9.32522 4.96813 11.0386 5.35859 12.2622 5.72492C12.2622 5.72492 12.945 5.96557 13.5258 6.21191L13.5798 6.22666V6.17169V2.08104L13.5057 2.05926C12.0615 1.55416 10.3823 1.06818 7.26933 1.06818C1.90171 1.06818 0 4.19491 0 6.87352C0 8.41762 0.661609 12.0521 6.80915 12.4714C7.33 12.5032 8.71287 12.583 8.71287 13.8791C8.71287 14.9496 7.5807 15.5804 5.67664 15.5804C3.58992 15.5804 1.56487 15.0485 0.335497 14.5437V18.813C2.17654 19.2953 4.2512 19.5366 6.68347 19.5366C11.9318 19.5366 14.2823 16.5781 14.2823 13.6461C14.2823 10.3217 11.6519 8.16122 7.23917 7.8656ZM38.7065 19.3402H43.4689V5.97563H38.7065V19.3402ZM52.4365 1.91983V19.3402H57.1998V1.06818L52.4365 1.91983ZM45.4865 1.91983L50.2448 1.06818V19.3402H45.4865V1.91983Z" fill="white"/>
<path d="M5.44814 28.3278V25.506C5.44814 25.1843 5.32882 24.9644 5.00707 24.9644C4.75871 24.9644 4.51974 25.1196 4.27172 25.3589V28.3278H2.88381V25.506C2.88381 25.1843 2.7645 24.9644 2.44241 24.9644C2.18534 24.9644 1.95575 25.1196 1.70739 25.3589V28.3278H0.319489V23.8239H1.54216L1.64304 24.4395C2.04758 24.0263 2.46117 23.732 3.04033 23.732C3.65569 23.732 3.99588 24.0353 4.16112 24.4395C4.56599 24.0353 5.00707 23.732 5.56746 23.732C6.40369 23.732 6.8451 24.2565 6.8451 25.129V28.3278H5.44814Z" fill="white"/>
<path d="M9.71154 24.8718C9.17864 24.8718 8.89408 25.3401 8.89408 26.0757C8.89408 26.802 9.18769 27.2981 9.71154 27.2981C10.2448 27.2981 10.5391 26.8107 10.5391 26.0851C10.5391 25.3588 10.2448 24.8718 9.71154 24.8718ZM9.70249 28.4192C8.46172 28.4192 7.55209 27.528 7.55209 26.0851C7.55209 24.6422 8.47111 23.7323 9.71154 23.7323C10.9614 23.7323 11.881 24.6329 11.881 26.0757C11.881 27.5183 10.9523 28.4192 9.70249 28.4192Z" fill="white"/>
<path d="M15.2247 28.3278V25.506C15.2247 25.1843 15.0957 24.9644 14.7652 24.9644C14.4984 24.9644 14.2504 25.1196 14.0024 25.3676V28.3278H12.6142V23.8239H13.8368L13.9381 24.4395C14.3426 24.0451 14.7746 23.732 15.3444 23.732C16.1806 23.732 16.6217 24.2565 16.6217 25.129V28.3278H15.2247Z" fill="white"/>
<path d="M19.4153 24.6329C19.0292 24.6329 18.7534 24.9731 18.7075 25.6621H20.1229C20.0766 24.9821 19.838 24.6329 19.4153 24.6329ZM21.4189 26.4246H18.7169C18.7903 27.1325 19.2129 27.408 19.8199 27.408C20.3159 27.408 20.8032 27.2243 21.2993 26.9401L21.437 27.9141C20.9504 28.2261 20.3528 28.4192 19.6449 28.4192C18.2942 28.4192 17.3286 27.7026 17.3286 26.0942C17.3286 24.6241 18.2299 23.7319 19.4515 23.7319C20.8307 23.7319 21.4461 24.7619 21.4461 26.0664C21.4461 26.2041 21.437 26.3516 21.4189 26.4246Z" fill="white"/>
<path d="M24.614 28.419C24.2095 29.5958 23.6578 30 22.6751 30C22.3989 30 22.2799 29.9725 22.1509 29.9454L21.9763 28.8326C22.1234 28.8785 22.2612 28.9064 22.528 28.9064C22.8403 28.9064 23.1165 28.7874 23.263 28.474L23.3183 28.3369L21.682 23.9342L23.1708 23.7589L24.0446 26.5994L24.8714 23.824H26.2131L24.614 28.419Z" fill="white"/>
<path d="M28.9141 24.9729C28.6205 24.9729 28.3809 25.1469 28.151 25.4053V27.1877C28.3346 27.2433 28.4452 27.2708 28.6561 27.2708C29.1987 27.2708 29.5848 26.94 29.5848 26.0481C29.5848 25.294 29.3096 24.9729 28.9141 24.9729ZM28.6939 28.3822C27.9676 28.3822 27.2873 28.2632 26.7634 28.0611V21.9119L28.151 21.6917V24.32C28.4359 24.0264 28.8223 23.7322 29.3552 23.7322C30.2739 23.7322 30.9727 24.4306 30.9727 25.956C30.9727 27.6294 30.0812 28.3822 28.6939 28.3822Z" fill="white"/>
<path d="M33.6738 24.8718C33.1409 24.8718 32.856 25.3401 32.856 26.0757C32.856 26.802 33.1496 27.2981 33.6738 27.2981C34.2067 27.2981 34.5013 26.8107 34.5013 26.0851C34.5013 25.3588 34.2067 24.8718 33.6738 24.8718ZM33.6644 28.4192C32.4239 28.4192 31.514 27.528 31.514 26.0851C31.514 24.6422 32.4333 23.7323 33.6738 23.7323C34.9236 23.7323 35.8429 24.6329 35.8429 26.0757C35.8429 27.5183 34.9145 28.4192 33.6644 28.4192Z" fill="white"/>
<path d="M38.5174 24.8718C37.9838 24.8718 37.6993 25.3401 37.6993 26.0757C37.6993 26.802 37.9936 27.2981 38.5174 27.2981C39.05 27.2981 39.3439 26.8107 39.3439 26.0851C39.3439 25.3588 39.05 24.8718 38.5174 24.8718ZM38.5077 28.4192C37.2676 28.4192 36.357 27.528 36.357 26.0851C36.357 24.6422 37.276 23.7323 38.5174 23.7323C39.7666 23.7323 40.6856 24.6329 40.6856 26.0757C40.6856 27.5183 39.7572 28.4192 38.5077 28.4192Z" fill="white"/>
<path d="M44.1122 28.3918L42.8071 26.2324V28.3278H41.4199V21.9118L42.8071 21.6916V25.6713L44.0107 23.8239H45.4998L44.0844 25.8734L45.5558 28.1894L44.1122 28.3918Z" fill="white"/>
<path d="M47.7416 24.6329C47.3555 24.6329 47.08 24.9731 47.0337 25.6621H48.4488C48.4029 24.9821 48.1643 24.6329 47.7416 24.6329ZM49.7455 26.4246H47.0428C47.1169 27.1325 47.5395 27.408 48.1451 27.408C48.6425 27.408 49.1292 27.2243 49.6259 26.9401L49.7626 27.9141C49.2763 28.2261 48.6787 28.4192 47.9719 28.4192C46.6202 28.4192 45.6552 27.7026 45.6552 26.0942C45.6552 24.6241 46.5561 23.7319 47.7778 23.7319C49.1577 23.7319 49.773 24.7619 49.773 26.0664C49.773 26.2041 49.7626 26.3516 49.7455 26.4246Z" fill="white"/>
<path d="M51.9031 25.8281V28.3278H50.5152V23.8242H51.7285L51.876 24.715C52.1512 24.2012 52.5279 23.7783 53.1898 23.732L53.4204 25.1467C52.7487 25.1933 52.2437 25.4601 51.9031 25.8281Z" fill="white"/>
<path d="M55.6053 28.401C54.8883 28.401 54.2184 28.1989 53.7488 27.9502L53.9144 26.8934C54.4483 27.2242 55.1002 27.4267 55.6153 27.4267C56.0018 27.4267 56.1848 27.298 56.1848 27.0862C56.1848 26.8569 56.0564 26.7564 55.4216 26.5995C54.2918 26.3056 53.8131 26.0022 53.8131 25.1563C53.8131 24.3197 54.4389 23.7587 55.5409 23.7587C56.1479 23.7587 56.7361 23.8793 57.2043 24.0905L57.0307 25.1466C56.543 24.8805 55.9823 24.7246 55.5503 24.7246C55.2195 24.7246 55.0724 24.8443 55.0724 25.0189C55.0724 25.2032 55.2007 25.3034 55.8358 25.4781C57.0307 25.7998 57.4533 26.1035 57.4533 26.94C57.4533 27.8855 56.8001 28.401 55.6053 28.401Z" fill="white"/>
</svg>
