<svg width="58" height="56" viewBox="0 0 58 56" fill="none" xmlns="http://www.w3.org/2000/svg">
<path d="M28.0001 1.16699L24.5001 10.5003L15.1667 14.0003L24.5001 17.5003L28.0001 26.8337L31.5 17.5003L40.8334 14.0003L31.5 10.5003L28.0001 1.16699Z" fill="#CD394B"/>
<path d="M28.0001 29.167L24.5001 38.5003L15.1667 42.0003L24.5001 45.5003L28.0001 54.8337L31.5 45.5003L40.8334 42.0003L31.5 38.5003L28.0001 29.167Z" fill="#CD394B"/>
<path d="M44.0001 15.167L40.5001 24.5003L31.1667 28.0003L40.5001 31.5003L44.0001 40.8337L47.5 31.5003L56.8334 28.0003L47.5 24.5003L44.0001 15.167Z" fill="#CD394B"/>
<path d="M14.0001 15.167L10.5001 24.5003L1.16672 28.0003L10.5001 31.5003L14.0001 40.8337L17.5 31.5003L26.8334 28.0003L17.5 24.5003L14.0001 15.167Z" fill="#CD394B"/>
</svg>
