<svg width="58" height="74" viewBox="0 0 58 74" fill="none" xmlns="http://www.w3.org/2000/svg">
<path d="M28.0001 1.16699L24.5001 10.5003L15.1667 14.0003L24.5001 17.5003L28.0001 26.8337L31.5001 17.5003L40.8334 14.0003L31.5001 10.5003L28.0001 1.16699Z" fill="#0B6984"/>
<path d="M28.0001 29.167L24.5001 38.5003L15.1667 42.0003L24.5001 45.5003L28.0001 54.8337L31.5001 45.5003L40.8334 42.0003L31.5001 38.5003L28.0001 29.167Z" fill="#0B6984"/>
<path d="M44.0001 15.167L40.5001 24.5003L31.1667 28.0003L40.5001 31.5003L44.0001 40.8337L47.5001 31.5003L56.8334 28.0003L47.5001 24.5003L44.0001 15.167Z" fill="#0B6984"/>
<path d="M14.0001 15.167L10.5001 24.5003L1.16675 28.0003L10.5001 31.5003L14.0001 40.8337L17.5001 31.5003L26.8334 28.0003L17.5001 24.5003L14.0001 15.167Z" fill="#0B6984"/>
<path d="M3.79869 73.324V67.388V63.678H5.28269L5.26869 65.666L5.50669 65.68C5.60002 65.2133 5.74935 64.8167 5.95469 64.49C6.16935 64.1633 6.44002 63.916 6.76669 63.748C7.09335 63.58 7.48069 63.496 7.92869 63.496C8.58202 63.496 9.13735 63.6593 9.59469 63.986C10.052 64.3033 10.3974 64.756 10.6307 65.344C10.8734 65.9227 10.9947 66.5993 10.9947 67.374C10.9947 68.102 10.8827 68.7553 10.6587 69.334C10.444 69.9033 10.1127 70.356 9.66469 70.692C9.22602 71.0187 8.68002 71.182 8.02669 71.182C7.55069 71.182 7.14935 71.0887 6.82269 70.902C6.49602 70.7153 6.23002 70.4587 6.02469 70.132C5.81935 69.8053 5.65135 69.4273 5.52069 68.998H5.26869C5.32469 69.25 5.37135 69.5113 5.40869 69.782C5.45535 70.0433 5.49269 70.3047 5.52069 70.566C5.54869 70.818 5.56269 71.0607 5.56269 71.294V73.324H3.79869ZM7.45269 69.74C7.81669 69.74 8.12469 69.642 8.37669 69.446C8.62869 69.2407 8.82002 68.9607 8.95069 68.606C9.08135 68.242 9.14669 67.8267 9.14669 67.36C9.14669 66.8747 9.07669 66.4547 8.93669 66.1C8.80602 65.7453 8.61002 65.47 8.34869 65.274C8.08735 65.078 7.77935 64.98 7.42469 64.98C7.11669 64.98 6.84602 65.05 6.61269 65.19C6.37935 65.33 6.18335 65.5167 6.02469 65.75C5.86602 65.974 5.74935 66.2167 5.67469 66.478C5.60002 66.7393 5.56269 66.996 5.56269 67.248V67.486C5.56269 67.6727 5.58602 67.8687 5.63269 68.074C5.68869 68.27 5.76802 68.4707 5.87069 68.676C5.97335 68.872 6.09935 69.054 6.24869 69.222C6.39802 69.3807 6.57535 69.5067 6.78069 69.6C6.98602 69.6933 7.21002 69.74 7.45269 69.74ZM15.8787 71.182C15.1601 71.182 14.5254 71.0373 13.9747 70.748C13.4241 70.4493 12.9901 70.0153 12.6727 69.446C12.3647 68.8673 12.2107 68.158 12.2107 67.318C12.2107 66.4593 12.3694 65.75 12.6867 65.19C13.0134 64.6207 13.4521 64.196 14.0027 63.916C14.5534 63.636 15.1741 63.496 15.8647 63.496C16.5834 63.496 17.2181 63.6407 17.7687 63.93C18.3194 64.2193 18.7534 64.6533 19.0707 65.232C19.3881 65.8013 19.5467 66.5107 19.5467 67.36C19.5467 68.2187 19.3881 68.9327 19.0707 69.502C18.7534 70.0713 18.3147 70.496 17.7547 70.776C17.2041 71.0467 16.5787 71.182 15.8787 71.182ZM15.9487 69.838C16.3407 69.838 16.6721 69.7493 16.9427 69.572C17.2134 69.3853 17.4187 69.11 17.5587 68.746C17.7081 68.382 17.7827 67.948 17.7827 67.444C17.7827 66.912 17.7034 66.4593 17.5447 66.086C17.3954 65.7033 17.1761 65.4093 16.8867 65.204C16.6067 64.9987 16.2521 64.896 15.8227 64.896C15.4494 64.896 15.1227 64.9893 14.8427 65.176C14.5627 65.3533 14.3481 65.6193 14.1987 65.974C14.0587 66.3287 13.9887 66.7673 13.9887 67.29C13.9887 68.1113 14.1614 68.7413 14.5067 69.18C14.8614 69.6187 15.3421 69.838 15.9487 69.838ZM21.1346 73.324V67.388V63.678H22.6186L22.6046 65.666L22.8426 65.68C22.936 65.2133 23.0853 64.8167 23.2906 64.49C23.5053 64.1633 23.776 63.916 24.1026 63.748C24.4293 63.58 24.8166 63.496 25.2646 63.496C25.918 63.496 26.4733 63.6593 26.9306 63.986C27.388 64.3033 27.7333 64.756 27.9666 65.344C28.2093 65.9227 28.3306 66.5993 28.3306 67.374C28.3306 68.102 28.2186 68.7553 27.9946 69.334C27.78 69.9033 27.4486 70.356 27.0006 70.692C26.562 71.0187 26.016 71.182 25.3626 71.182C24.8866 71.182 24.4853 71.0887 24.1586 70.902C23.832 70.7153 23.566 70.4587 23.3606 70.132C23.1553 69.8053 22.9873 69.4273 22.8566 68.998H22.6046C22.6606 69.25 22.7073 69.5113 22.7446 69.782C22.7913 70.0433 22.8286 70.3047 22.8566 70.566C22.8846 70.818 22.8986 71.0607 22.8986 71.294V73.324H21.1346ZM24.7886 69.74C25.1526 69.74 25.4606 69.642 25.7126 69.446C25.9646 69.2407 26.156 68.9607 26.2866 68.606C26.4173 68.242 26.4826 67.8267 26.4826 67.36C26.4826 66.8747 26.4126 66.4547 26.2726 66.1C26.142 65.7453 25.946 65.47 25.6846 65.274C25.4233 65.078 25.1153 64.98 24.7606 64.98C24.4526 64.98 24.182 65.05 23.9486 65.19C23.7153 65.33 23.5193 65.5167 23.3606 65.75C23.202 65.974 23.0853 66.2167 23.0106 66.478C22.936 66.7393 22.8986 66.996 22.8986 67.248V67.486C22.8986 67.6727 22.922 67.8687 22.9686 68.074C23.0246 68.27 23.104 68.4707 23.2066 68.676C23.3093 68.872 23.4353 69.054 23.5846 69.222C23.734 69.3807 23.9113 69.5067 24.1166 69.6C24.322 69.6933 24.546 69.74 24.7886 69.74ZM32.3613 71.182C31.5213 71.182 30.8866 70.8973 30.4573 70.328C30.0373 69.7493 29.8273 68.8767 29.8273 67.71V63.678H31.6053V67.514C31.6053 68.2513 31.7173 68.802 31.9413 69.166C32.1653 69.53 32.5106 69.712 32.9773 69.712C33.248 69.712 33.486 69.6467 33.6913 69.516C33.8966 69.376 34.074 69.1847 34.2233 68.942C34.3726 68.69 34.4893 68.4007 34.5733 68.074C34.6666 67.7473 34.7226 67.388 34.7413 66.996V63.678H36.5053V67.99V71H35.0493L35.0773 68.69H34.8253C34.704 69.278 34.5313 69.754 34.3073 70.118C34.0926 70.482 33.8266 70.7527 33.5093 70.93C33.192 71.098 32.8093 71.182 32.3613 71.182ZM38.4979 71V61.06H40.2339V71H38.4979ZM43.9107 71.182C43.5093 71.182 43.15 71.1073 42.8327 70.958C42.5153 70.7993 42.2633 70.566 42.0767 70.258C41.8993 69.95 41.8107 69.5673 41.8107 69.11C41.8107 68.7273 41.8807 68.4007 42.0207 68.13C42.17 67.8593 42.3893 67.64 42.6787 67.472C42.968 67.2947 43.3273 67.15 43.7567 67.038C44.186 66.9167 44.69 66.814 45.2687 66.73C45.586 66.6833 45.8427 66.6367 46.0387 66.59C46.244 66.5433 46.3933 66.4733 46.4867 66.38C46.58 66.2773 46.6267 66.128 46.6267 65.932C46.6267 65.6427 46.524 65.3953 46.3187 65.19C46.1227 64.9753 45.8007 64.868 45.3527 64.868C45.082 64.868 44.8207 64.9147 44.5687 65.008C44.326 65.1013 44.116 65.2507 43.9387 65.456C43.7613 65.652 43.64 65.9133 43.5747 66.24L41.9927 65.75C42.0953 65.3767 42.2447 65.0547 42.4407 64.784C42.6367 64.504 42.8793 64.266 43.1687 64.07C43.458 63.874 43.7893 63.7293 44.1627 63.636C44.536 63.5427 44.9467 63.496 45.3947 63.496C46.076 63.496 46.636 63.608 47.0747 63.832C47.5133 64.0467 47.84 64.3873 48.0547 64.854C48.2693 65.3113 48.3767 65.904 48.3767 66.632V68.004C48.3767 68.3213 48.3813 68.6527 48.3907 68.998C48.4093 69.334 48.428 69.6747 48.4467 70.02C48.4747 70.356 48.5073 70.6827 48.5447 71H46.9627C46.9253 70.7387 46.8927 70.4587 46.8647 70.16C46.8367 69.8613 46.8133 69.558 46.7947 69.25H46.5707C46.44 69.6047 46.2533 69.9313 46.0107 70.23C45.768 70.5193 45.4693 70.7527 45.1147 70.93C44.7693 71.098 44.368 71.182 43.9107 71.182ZM44.6107 69.88C44.7973 69.88 44.984 69.8473 45.1707 69.782C45.3667 69.7167 45.558 69.6187 45.7447 69.488C45.9313 69.3573 46.104 69.1987 46.2627 69.012C46.4213 68.816 46.5567 68.5873 46.6687 68.326L46.6407 67.08L46.9767 67.136C46.818 67.2667 46.622 67.3693 46.3887 67.444C46.1553 67.5187 45.908 67.5747 45.6467 67.612C45.3947 67.6493 45.138 67.696 44.8767 67.752C44.6247 67.7987 44.396 67.864 44.1907 67.948C43.9853 68.0227 43.822 68.1347 43.7007 68.284C43.5793 68.424 43.5187 68.62 43.5187 68.872C43.5187 69.1893 43.6213 69.4367 43.8267 69.614C44.032 69.7913 44.2933 69.88 44.6107 69.88ZM50.2831 71V67.332V63.678H51.7671L51.7391 66.198H51.9911C52.0751 65.6007 52.2057 65.106 52.3831 64.714C52.5604 64.3127 52.8077 64.014 53.1251 63.818C53.4424 63.6127 53.8344 63.51 54.3011 63.51C54.3944 63.51 54.4924 63.5147 54.5951 63.524C54.7071 63.5333 54.8284 63.5567 54.9591 63.594L54.8891 65.456C54.7397 65.4 54.5857 65.3627 54.4271 65.344C54.2777 65.316 54.1377 65.302 54.0071 65.302C53.6431 65.302 53.3257 65.3953 53.0551 65.582C52.7937 65.7687 52.5791 66.0347 52.4111 66.38C52.2524 66.716 52.1311 67.1173 52.0471 67.584V71H50.2831Z" fill="#0B6984"/>
</svg>
