<svg width="15" height="16" viewBox="0 0 15 16" fill="none" xmlns="http://www.w3.org/2000/svg">
<path d="M7.2 1.6C5.43269 1.6 4 3.03269 4 4.8C4 6.56731 5.43269 8 7.2 8C8.96731 8 10.4 6.56731 10.4 4.8C10.4 3.03269 8.96731 1.6 7.2 1.6ZM2.4 4.8C2.4 2.14903 4.54903 0 7.2 0C9.85097 0 12 2.14903 12 4.8C12 7.45097 9.85097 9.6 7.2 9.6C4.54903 9.6 2.4 7.45097 2.4 4.8ZM4 12.8C2.67452 12.8 1.6 13.8745 1.6 15.2C1.6 15.6418 1.24183 16 0.8 16C0.358172 16 0 15.6418 0 15.2C0 12.9909 1.79086 11.2 4 11.2H10.4C12.6091 11.2 14.4 12.9909 14.4 15.2C14.4 15.6418 14.0418 16 13.6 16C13.1582 16 12.8 15.6418 12.8 15.2C12.8 13.8745 11.7255 12.8 10.4 12.8H4Z" fill="#023144"/>
</svg>
