<svg width="92" height="30" viewBox="0 0 92 30" fill="none" xmlns="http://www.w3.org/2000/svg">
<path fill-rule="evenodd" clip-rule="evenodd" d="M22.8295 29.7664H14.9269L9.00081 6.49325C8.71953 5.42268 8.1223 4.47624 7.2438 4.03017C5.05139 2.90918 2.63551 2.01705 0 1.5671V0.671082H12.7306C14.4876 0.671082 15.8054 2.01705 16.025 3.58022L19.0997 20.3679L26.9986 0.671082H34.6816L22.8295 29.7664ZM39.0737 29.7664H31.6103L37.756 0.671082H45.2194L39.0737 29.7664ZM54.876 8.73131C55.0956 7.16425 56.4134 6.26823 57.9508 6.26823C60.3666 6.04326 62.9983 6.49321 65.1946 7.61032L66.5123 1.34596C64.3161 0.449947 61.9002 0 59.7078 0C52.464 0 47.1929 4.03013 47.1929 9.62345C47.1929 13.8786 50.9266 16.1128 53.5621 17.4587C56.4134 18.8008 57.5115 19.6968 57.2919 21.0389C57.2919 23.0521 55.0956 23.9481 52.9032 23.9481C50.2677 23.9481 47.6322 23.277 45.2202 22.156L43.9024 28.4243C46.5379 29.5414 49.3892 29.9913 52.0247 29.9913C60.147 30.2124 65.1946 26.1862 65.1946 20.1429C65.1946 12.5326 54.876 12.0865 54.876 8.73131ZM91.3139 29.7664L85.3878 0.671082H79.0225C77.7048 0.671082 76.387 1.5671 75.9478 2.90918L64.9742 29.7664H72.6572L74.1908 25.5152H83.6308L84.5093 29.7664H91.3139ZM80.121 8.50643L82.3134 19.472H76.1677L80.121 8.50643Z" fill="white"/>
</svg>
