<svg width="84" height="30" viewBox="0 0 84 30" fill="none" xmlns="http://www.w3.org/2000/svg">
<path d="M22.5336 9.78389L22.4748 8.80014C22.4748 8.80014 22.4212 9.15456 22.3192 9.77524C22.276 10.0813 22.212 10.453 22.1429 10.88C22.0927 11.3053 21.887 11.76 21.747 12.2614C21.6036 12.8008 21.3982 13.3218 21.1349 13.814C20.8669 14.3396 20.6283 14.9032 20.2221 15.3994C20.0422 15.6535 19.8573 15.9129 19.674 16.1757C19.4786 16.4281 19.2262 16.6476 19.0049 16.8862C18.5779 17.3807 18.054 17.7853 17.5336 18.1829C17.0426 18.6013 16.4236 18.89 15.905 19.2358C15.305 19.4969 14.7795 19.8185 14.1882 20.0121C13.6245 20.2369 13.0678 20.4288 12.5198 20.5688C11.9907 20.7417 11.46 20.8247 10.9914 20.9388C10.6923 20.9924 10.4157 21.0373 10.1512 21.0771C10.1771 20.9959 10.21 20.9198 10.2376 20.8385C10.4932 20.0625 10.6818 19.266 10.8012 18.4578C10.8531 18.036 10.8963 17.6089 10.9257 17.1732C10.9499 16.7324 10.9413 16.2742 10.8963 15.797C10.472 15.9749 10.0602 16.1811 9.66362 16.4142C9.29363 16.6442 8.93748 16.8828 8.58997 17.13C7.91224 17.6297 7.30193 18.1674 6.75041 18.7414C5.66021 19.8682 4.72473 21.1351 3.9686 22.5086L3.87178 22.6763C3.63752 23.0996 3.5411 23.5854 3.59595 24.0661C3.6508 24.5467 3.85419 24.9983 4.1778 25.3579C5.07856 26.3788 6.09508 27.2915 7.20684 28.0775C7.79095 28.4891 8.40596 28.8549 9.0464 29.1719C9.70857 29.4952 10.3915 29.8029 11.2041 30C11.1626 29.1667 10.9931 28.4353 10.8064 27.723C10.6264 27.051 10.3934 26.3942 10.1097 25.759C10.7165 25.5619 11.4496 25.2887 12.2777 24.9378C12.812 24.6819 13.3981 24.4433 13.9859 24.1027C14.5841 23.795 15.1892 23.4232 15.7995 23.0118C16.4236 22.6366 16.9994 22.1093 17.6097 21.6511C18.1595 21.0996 18.7646 20.612 19.2504 19.9896C19.7535 19.3897 20.2411 18.7915 20.6145 18.1172C20.8047 17.7887 21.0225 17.4827 21.1816 17.1456C21.3251 16.805 21.4703 16.4696 21.6086 16.1376C21.9268 15.4979 22.0616 14.815 22.2207 14.1926C22.4091 13.5771 22.4714 12.9737 22.5077 12.4205C22.544 11.8672 22.6391 11.3745 22.6028 10.9284C22.5716 10.4876 22.5561 10.1003 22.5336 9.78389ZM18.8493 4.85131C17.9785 3.80417 16.9893 2.8614 15.9015 2.04184C15.331 1.61181 14.7274 1.22738 14.0965 0.892116C13.4413 0.551521 12.7653 0.224758 11.9613 0C11.9769 0.835062 12.1239 1.56985 12.2916 2.28907C12.4558 2.98755 12.6754 3.64281 12.9313 4.27213C12.3175 4.45194 11.5741 4.70436 10.739 5.02939C10.1961 5.26971 9.60311 5.48928 9.00663 5.81259C8.39979 6.10304 7.78257 6.45574 7.16016 6.84993C6.52565 7.20781 5.93437 7.71611 5.31369 8.15526C4.74661 8.69122 4.12593 9.15802 3.62282 9.76833C3.10414 10.3527 2.59584 10.9353 2.20338 11.5992C2.00283 11.9225 1.77461 12.2216 1.60691 12.5519C1.44958 12.8873 1.29744 13.221 1.14702 13.546C0.809883 14.1753 0.65774 14.853 0.479662 15.4703C0.272193 16.0806 0.196121 16.6805 0.140796 17.2337C0.0923868 17.7853 -0.0234508 18.2746 0.00421174 18.7223L0.0387907 19.8686C0.0595376 20.4945 0.0664528 20.8541 0.0664528 20.8541L0.247987 19.8824L0.455456 18.7846C0.521155 18.361 0.738997 17.9115 0.89287 17.4153C1.05539 16.9174 1.24211 16.39 1.55504 15.8817C1.83858 15.3631 2.09446 14.8064 2.51459 14.3223L3.08858 13.565C3.29087 13.316 3.54847 13.1051 3.77323 12.8734C4.21064 12.3945 4.74661 12.0055 5.27738 11.6234C5.78395 11.2206 6.4029 10.9492 6.93713 10.6189C7.54398 10.3752 8.07994 10.0692 8.67814 9.89454C9.25041 9.68707 9.8123 9.51245 10.3621 9.38797C10.8963 9.23064 11.4323 9.16321 11.9026 9.06293C12.2034 9.01971 12.4835 8.9834 12.7463 8.95055L12.6529 9.18569C12.3746 9.95401 12.1623 10.7447 12.0184 11.5491C11.9527 11.9692 11.8956 12.3963 11.8524 12.8302C11.8178 13.2711 11.8109 13.7275 11.842 14.2082C12.2916 14.037 12.7013 13.8399 13.092 13.6272C13.4689 13.4077 13.8372 13.1795 14.1882 12.9461C14.8622 12.482 15.495 11.9608 16.0796 11.3883C17.2011 10.2926 18.1742 9.05448 18.9738 7.70574L19.0741 7.53976C19.3208 7.1239 19.4317 6.64147 19.3914 6.15961C19.3511 5.67776 19.1616 5.22045 18.8493 4.85131Z" fill="white"/>
<path d="M45.842 2.92094C43.9074 11.1194 43.6601 12.4092 43.4112 13.8234H43.3697C43.0394 11.894 42.8908 11.1039 41.148 2.92094H37.8458C36.2656 10.7477 36.0391 12.264 35.7694 13.8234H35.7296C35.4599 12.1205 35.2697 11.0814 33.3593 2.92094H30.0398L34.2549 17.831H37.1612C38.7621 10.1478 39.0076 9.0672 39.4675 6.20068H39.5073C40.0035 9.06375 40.2767 10.5195 41.8137 17.831H44.8029L49.0007 2.92094H45.842ZM42.9893 25.293C42.9893 23.9669 42.6729 23.7508 42.0886 23.4967C42.7905 23.2563 43.1864 22.5873 43.1864 21.8041C43.1864 21.1955 42.8424 19.7985 40.9544 19.7985H37.3652V26.8922H38.8209V24.1173H40.351C41.4489 24.1173 41.5094 24.4908 41.5094 25.4607C41.5094 26.1938 41.5664 26.5586 41.665 26.8922H43.3057V26.7072C42.991 26.5914 42.991 26.3355 42.9893 25.293ZM40.5567 22.9279H38.8209V21.0261H40.6674C41.5353 21.0261 41.7047 21.5793 41.7047 21.9545C41.7047 22.6581 41.3296 22.9279 40.5567 22.9279ZM30.7106 19.802L30.7123 21.0572H32.8562V26.8957H34.3344V21.0572H36.48V19.802H30.7106ZM74.7269 15.1893V11.3269H81.9917V8.69203H74.7269V5.56098H82.6366V2.9244H71.6702V17.8345H82.9876V15.1893H74.7269ZM70.2403 21.0554V19.7985H65.1919L65.1937 26.8992H66.6753V23.9133H69.796V22.6564H66.6753V21.0554H70.2403ZM68.4855 14.4666C68.4855 11.683 67.8233 11.2231 66.5975 10.6837C68.074 10.1875 68.9039 8.77156 68.9039 7.13428C68.9039 5.84452 68.1743 2.91921 64.2065 2.91921H56.6719V17.8293H59.7286V11.9891H62.9461C65.249 11.9891 65.3735 12.7792 65.3735 14.8175C65.3717 16.3511 65.498 17.1222 65.7072 17.8328H69.1511V17.4368C68.4855 17.1879 68.4855 16.6467 68.4855 14.4666ZM63.3783 9.48214H59.7286V5.49355H63.6083C65.4392 5.49355 65.7901 6.65538 65.7901 7.44549C65.7884 8.91852 64.9983 9.48041 63.3783 9.48214ZM72.6902 25.6371V23.8044H76.148V22.5475H72.6902V21.0554H76.4558V19.8003H71.2379V26.894H76.6235V25.6371H72.6902ZM83.4544 25.293C83.4544 23.9669 83.1345 23.7508 82.5536 23.4967C83.2573 23.2563 83.6549 22.5873 83.6549 21.8041C83.6549 21.1955 83.3074 19.7985 81.4195 19.7985H77.8337V26.8922H79.2895V24.1173H80.8195C81.9139 24.1173 81.9779 24.4908 81.9779 25.4607C81.9779 26.1938 82.035 26.5586 82.1335 26.8922H83.7708V26.7072C83.4561 26.5914 83.4561 26.3355 83.4544 25.293ZM81.0253 22.9279H79.2895V21.0261H81.1325C82.0038 21.0261 82.1733 21.5793 82.1733 21.9545C82.1733 22.6581 81.7981 22.9279 81.0253 22.9279ZM62.1992 22.857L60.4738 22.4317C60.1764 22.3642 59.7182 22.2449 59.7182 21.6917C59.7182 21.0468 60.396 20.8411 60.9544 20.8411C62.2511 20.8411 62.3652 21.5966 62.4119 21.9078H63.8278C63.8175 21.0399 63.2365 19.6153 61.0599 19.6153C58.7587 19.6153 58.3368 21.0122 58.3368 21.8023C58.3368 23.3635 59.4416 23.6194 60.5896 23.8857L61.3469 24.0655C62.1024 24.2453 62.6332 24.3905 62.6332 24.9438C62.6332 25.6976 61.85 25.8618 61.1532 25.8618C59.8565 25.8618 59.6577 25.1097 59.6473 24.7173H58.2331C58.2331 25.5956 58.6757 27.0876 61.2656 27.0876C61.8845 27.0876 64.0612 26.8992 64.0612 24.7657C64.0595 23.4915 63.1726 23.0938 62.1992 22.857ZM50.6484 2.91748H53.7621V17.8276H50.6484V2.91748ZM47.9997 19.802H46.2863L43.7569 26.8974H45.3199L45.8126 25.4348H48.4302L48.8866 26.8974H50.498L47.9997 19.802ZM46.2103 24.2107L47.1214 21.4047H47.1335L48.0187 24.2107H46.2103ZM55.7815 19.802V24.7449H55.7642L52.9444 19.802H51.3849V26.8974H52.7663V21.8386H52.787L55.6812 26.8974H57.1664V19.802H55.7815Z" fill="white"/>
</svg>
