<svg width="18" height="16" viewBox="0 0 18 16" fill="none" xmlns="http://www.w3.org/2000/svg">
<path d="M3.88546e-08 1.77778C3.88546e-08 0.795938 0.795938 0 1.77778 0H16C16.9818 0 17.7778 0.795938 17.7778 1.77778V11.5556C17.7778 12.5374 16.9818 13.3333 16 13.3333H1.77778C0.795939 13.3333 3.88546e-08 12.5374 3.88546e-08 11.5556V1.77778ZM16 1.77778H1.77778V11.5556H16V1.77778Z" fill="#E3E6E7"/>
<path d="M17.7778 15.1111C17.7778 15.602 17.3798 16 16.8889 16H0.888889C0.39797 16 -2.14588e-08 15.602 0 15.1111C2.14588e-08 14.6202 0.39797 14.2222 0.888889 14.2222L16.8889 14.2222C17.3798 14.2222 17.7778 14.6202 17.7778 15.1111Z" fill="#E3E6E7"/>
</svg>
