<svg width="10" height="14" fill="none" xmlns="http://www.w3.org/2000/svg"><path d="M.734 13.066V11.14l4.23-3.222c.264-.216.534-.444.81-.684.276-.252.528-.528.756-.828.24-.3.432-.618.576-.954.156-.336.234-.696.234-1.08 0-.396-.09-.744-.27-1.044-.18-.3-.45-.528-.81-.684-.348-.168-.786-.252-1.314-.252-.36 0-.696.048-1.008.144a1.852 1.852 0 00-.81.504c-.228.24-.402.558-.522.954-.108.396-.162.888-.162 1.476L.86 5.2c-.024-.864.114-1.614.414-2.25.3-.648.756-1.146 1.368-1.494.624-.348 1.404-.522 2.34-.522.804 0 1.506.132 2.106.396.6.264 1.062.648 1.386 1.152.336.492.504 1.08.504 1.764 0 .564-.096 1.086-.288 1.566a5.75 5.75 0 01-.738 1.296c-.3.384-.63.732-.99 1.044-.348.3-.69.57-1.026.81l-3.402 2.592v.162l6.732-.072v1.422H.734z" fill="#fff"/></svg>