<svg width="10" height="14" fill="none" xmlns="http://www.w3.org/2000/svg"><path d="M4.856 13.066c-.732 0-1.368-.084-1.908-.252-.528-.156-.972-.384-1.332-.684a3.308 3.308 0 01-.81-1.098A4.484 4.484 0 01.482 9.61l1.53-.45c.024.492.12.906.288 1.242.18.324.408.582.684.774.276.18.576.312.9.396.336.072.66.108.972.108.564 0 1.068-.072 1.512-.216a2.38 2.38 0 001.098-.738c.276-.336.414-.768.414-1.296 0-.684-.204-1.218-.612-1.602-.408-.384-.978-.654-1.71-.81-.72-.156-1.572-.216-2.556-.18v-1.08l4.176-3.312v-.144L.95 2.338V.934h7.884v1.764l-3.87 3.096v.126c1.092 0 1.968.15 2.628.45.672.3 1.158.714 1.458 1.242.312.528.468 1.122.468 1.782 0 .744-.174 1.392-.522 1.944-.348.54-.87.966-1.566 1.278-.684.3-1.542.45-2.574.45z" fill="#fff"/></svg>