<svg width="748" height="833" fill="none" xmlns="http://www.w3.org/2000/svg"><mask id="a" style="mask-type:alpha" maskUnits="userSpaceOnUse" x="0" y="0" width="748" height="833"><rect width="748" height="833" rx="20" fill="url(#paint0_linear_143_8416)"/></mask><g mask="url(#a)" fill="#0B6984" fill-opacity=".8"><path d="M706.5 529l25.134 111.576a49.999 49.999 0 0037.79 37.79L881 703.5l-111.576 25.134a49.999 49.999 0 00-37.79 37.79L706.5 878l-25.134-111.576a49.999 49.999 0 00-37.79-37.79L532 703.5l111.576-25.134a49.999 49.999 0 0037.79-37.79L706.5 529z"/><path d="M590.5 312l25.134 111.576a49.999 49.999 0 0037.79 37.79L765 486.5l-111.576 25.134a49.999 49.999 0 00-37.79 37.79L590.5 661l-25.134-111.576a49.999 49.999 0 00-37.79-37.79L416 486.5l111.576-25.134a49.999 49.999 0 0037.79-37.79L590.5 312z"/><path d="M822.5 205l25.134 111.576a49.999 49.999 0 0037.79 37.79L997 379.5l-111.576 25.134a49.999 49.999 0 00-37.79 37.79L822.5 554l-25.134-111.576a49.999 49.999 0 00-37.79-37.79L648 379.5l111.576-25.134a49.999 49.999 0 0037.79-37.79L822.5 205zm-689 82l25.134 111.576a49.999 49.999 0 0037.79 37.79L308 461.5l-111.576 25.134a49.999 49.999 0 00-37.79 37.79L133.5 636l-25.134-111.576a49.999 49.999 0 00-37.79-37.79L-41 461.5l111.576-25.134a49.999 49.999 0 0037.79-37.79L133.5 287zm153-206l25.134 111.576a49.999 49.999 0 0037.79 37.79L461 255.5l-111.576 25.134a49.999 49.999 0 00-37.79 37.79L286.5 430l-25.134-111.576a49.999 49.999 0 00-37.79-37.79L112 255.5l111.576-25.134a49.999 49.999 0 0037.79-37.79L286.5 81z"/><path d="M43.5 0l25.134 111.576a50 50 0 0037.79 37.79L218 174.5l-111.576 25.134a50 50 0 00-37.79 37.79L43.5 349 18.366 237.424a50 50 0 00-37.79-37.79L-131 174.5l111.576-25.134a50 50 0 0037.79-37.79L43.5 0z"/></g><defs><linearGradient id="paint0_linear_143_8416" x1="374" y1="130.518" x2="374" y2="817.855" gradientUnits="userSpaceOnUse"><stop stop-color="#0B6984" stop-opacity=".75"/><stop offset="1" stop-color="#0B6984"/></linearGradient></defs></svg>