<svg width="390" height="692" fill="none" xmlns="http://www.w3.org/2000/svg"><mask id="a" style="mask-type:alpha" maskUnits="userSpaceOnUse" x="0" y="0" width="390" height="692"><rect width="390" height="692" rx="20" fill="url(#paint0_linear_143_8896)"/></mask><g mask="url(#a)" fill="#0B6984" fill-opacity=".8"><path d="M483.5 529l25.134 111.576a49.999 49.999 0 0037.79 37.79L658 703.5l-111.576 25.134a49.999 49.999 0 00-37.79 37.79L483.5 878l-25.134-111.576a49.999 49.999 0 00-37.79-37.79L309 703.5l111.576-25.134a49.999 49.999 0 0037.79-37.79L483.5 529z"/><path d="M367.5 312l25.134 111.576a49.999 49.999 0 0037.79 37.79L542 486.5l-111.576 25.134a49.999 49.999 0 00-37.79 37.79L367.5 661l-25.134-111.576a49.999 49.999 0 00-37.79-37.79L193 486.5l111.576-25.134a49.999 49.999 0 0037.79-37.79L367.5 312zm-457-25l25.134 111.576a50 50 0 0037.79 37.79L85 461.5l-111.576 25.134a50 50 0 00-37.79 37.79L-89.5 636l-25.134-111.576a49.999 49.999 0 00-37.79-37.79L-264 461.5l111.576-25.134a49.999 49.999 0 0037.79-37.79L-89.5 287zm153-206l25.134 111.576a50 50 0 0037.79 37.79L238 255.5l-111.576 25.134a50 50 0 00-37.79 37.79L63.5 430 38.366 318.424a50 50 0 00-37.79-37.79L-111 255.5.576 230.366a50 50 0 0037.79-37.79L63.5 81z"/></g><defs><linearGradient id="paint0_linear_143_8896" x1="195" y1="108.426" x2="195" y2="679.418" gradientUnits="userSpaceOnUse"><stop stop-color="#0B6984" stop-opacity=".75"/><stop offset="1" stop-color="#0B6984"/></linearGradient></defs></svg>