<svg width="407" height="650" fill="none" xmlns="http://www.w3.org/2000/svg"><path d="M290.5 324l25.134 111.576a49.999 49.999 0 0037.79 37.79L465 498.5l-111.576 25.134a49.999 49.999 0 00-37.79 37.79L290.5 673l-25.134-111.576a49.999 49.999 0 00-37.79-37.79L116 498.5l111.576-25.134a49.999 49.999 0 0037.79-37.79L290.5 324z" fill="#0B6984" fill-opacity=".8"/><path d="M174.5 107l25.134 111.576a49.999 49.999 0 0037.79 37.79L349 281.5l-111.576 25.134a49.999 49.999 0 00-37.79 37.79L174.5 456l-25.134-111.576a49.999 49.999 0 00-37.79-37.79L0 281.5l111.576-25.134a49.999 49.999 0 0037.79-37.79L174.5 107z" fill="#0B6984" fill-opacity=".8"/><path d="M406.5 0l25.134 111.576a49.999 49.999 0 0037.79 37.79L581 174.5l-111.576 25.134a49.999 49.999 0 00-37.79 37.79L406.5 349l-25.134-111.576a49.999 49.999 0 00-37.79-37.79L232 174.5l111.576-25.134a49.999 49.999 0 0037.79-37.79L406.5 0z" fill="#0B6984" fill-opacity=".8"/></svg>