<svg width="418" height="625" fill="none" xmlns="http://www.w3.org/2000/svg"><path d="M90.5 287l25.134 111.576a49.999 49.999 0 0037.79 37.79L265 461.5l-111.576 25.134a49.999 49.999 0 00-37.79 37.79L90.5 636 65.366 524.424a50 50 0 00-37.79-37.79L-84 461.5l111.576-25.134a50 50 0 0037.79-37.79L90.5 287zm153-206l25.134 111.576a49.999 49.999 0 0037.79 37.79L418 255.5l-111.576 25.134a49.999 49.999 0 00-37.79 37.79L243.5 430l-25.134-111.576a49.999 49.999 0 00-37.79-37.79L69 255.5l111.576-25.134a49.999 49.999 0 0037.79-37.79L243.5 81z" fill="#0B6984" fill-opacity=".8"/><path d="M.5 0l25.134 111.576a50 50 0 0037.79 37.79L175 174.5 63.424 199.634a50 50 0 00-37.79 37.79L.5 349l-25.134-111.576a50 50 0 00-37.79-37.79L-174 174.5l111.576-25.134a50 50 0 0037.79-37.79L.5 0z" fill="#0B6984" fill-opacity=".8"/></svg>