<svg width="12" height="158" fill="none" xmlns="http://www.w3.org/2000/svg"><path d="M6 158l5.774-10H.226L6 158zM5 0v1.975h2V0H5zm0 5.925v3.95h2v-3.95H5zm0 7.9v3.95h2v-3.95H5zm0 7.9v3.95h2v-3.95H5zm0 7.9v3.95h2v-3.95H5zm0 7.9v3.95h2v-3.95H5zm0 7.9v3.95h2v-3.95H5zm0 7.9v3.95h2v-3.95H5zm0 7.9v3.95h2v-3.95H5zm0 7.9v3.95h2v-3.95H5zm0 7.9v3.95h2v-3.95H5zm0 7.9v3.95h2v-3.95H5zm0 7.9v3.95h2v-3.95H5zm0 7.9v3.95h2v-3.95H5zm0 7.9v3.95h2v-3.95H5zm0 7.9v3.95h2v-3.95H5zm0 7.9v3.95h2v-3.95H5zm0 7.9v3.95h2v-3.95H5zm0 7.9v3.95h2v-3.95H5zm0 7.9v3.95h2v-3.95H5zM6 158l5.774-10H.226L6 158zM5 0v1.975h2V0H5zm0 5.925v3.95h2v-3.95H5zm0 7.9v3.95h2v-3.95H5zm0 7.9v3.95h2v-3.95H5zm0 7.9v3.95h2v-3.95H5zm0 7.9v3.95h2v-3.95H5zm0 7.9v3.95h2v-3.95H5zm0 7.9v3.95h2v-3.95H5zm0 7.9v3.95h2v-3.95H5zm0 7.9v3.95h2v-3.95H5zm0 7.9v3.95h2v-3.95H5zm0 7.9v3.95h2v-3.95H5zm0 7.9v3.95h2v-3.95H5zm0 7.9v3.95h2v-3.95H5zm0 7.9v3.95h2v-3.95H5zm0 7.9v3.95h2v-3.95H5zm0 7.9v3.95h2v-3.95H5zm0 7.9v3.95h2v-3.95H5zm0 7.9v3.95h2v-3.95H5zm0 7.9v3.95h2v-3.95H5z" fill="#CD394B"/></svg>