<svg width="443" height="12" fill="none" xmlns="http://www.w3.org/2000/svg"><path d="M443 6L433 .226v11.547L443 6zM0 7h2.014V5H0v2zm6.04 0h4.028V5H6.041v2zm8.055 0h4.028V5h-4.028v2zm8.055 0h4.027V5H22.15v2zm8.055 0h4.027V5h-4.027v2zm8.054 0h4.027V5H38.26v2zm8.055 0h4.027V5h-4.027v2zm8.054 0h4.027V5h-4.027v2zm8.055 0h4.027V5h-4.027v2zm8.054 0h4.027V5h-4.027v2zm8.055 0h4.027V5h-4.027v2zm8.054 0h4.028V5h-4.028v2zm8.055 0h4.027V5h-4.027v2zm8.054 0h4.028V5h-4.028v2zm8.055 0h4.027V5h-4.027v2zm8.055 0h4.027V5h-4.027v2zm8.054 0h4.027V5h-4.027v2zm8.055 0h4.027V5h-4.027v2zm8.054 0h4.027V5h-4.027v2zm8.055 0h4.027V5h-4.027v2zm8.054 0h4.028V5h-4.028v2zm8.055 0h4.027V5h-4.027v2zm8.054 0h4.028V5h-4.028v2zm8.055 0h4.027V5h-4.027v2zm8.054 0h4.028V5h-4.028v2zm8.055 0h4.027V5h-4.027v2zm8.054 0h4.028V5h-4.028v2zm8.055 0h4.027V5h-4.027v2zm8.055 0h4.027V5h-4.027v2zm8.054 0h4.027V5h-4.027v2zm8.055 0h4.027V5h-4.027v2zm8.054 0h4.027V5h-4.027v2zm8.055 0h4.027V5h-4.027v2zm8.054 0h4.028V5h-4.028v2zm8.055 0h4.027V5h-4.027v2zm8.054 0h4.028V5h-4.028v2zm8.055 0h4.027V5h-4.027v2zm8.054 0h4.028V5h-4.028v2zm8.055 0h4.027V5h-4.027v2zm8.055 0h4.027V5h-4.027v2zm8.054 0h4.027V5h-4.027v2zm8.055 0h4.027V5h-4.027v2zm8.054 0h4.028V5h-4.028v2zm8.055 0h4.027V5h-4.027v2zm8.054 0h4.028V5h-4.028v2zm8.055 0h4.027V5h-4.027v2zm8.055 0h4.027V5h-4.027v2zm8.054 0h4.027V5h-4.027v2zm8.055 0h4.027V5h-4.027v2zm8.054 0h4.028V5h-4.028v2zm8.055 0h4.027V5h-4.027v2zm8.054 0h4.028V5h-4.028v2zm8.055 0h4.027V5h-4.027v2zm8.055 0h4.027V5h-4.027v2zm8.054 0h4.027V5h-4.027v2zM443 6L433 .226v11.547L443 6zM0 7h2.014V5H0v2zm6.04 0h4.028V5H6.041v2zm8.055 0h4.028V5h-4.028v2zm8.055 0h4.027V5H22.15v2zm8.055 0h4.027V5h-4.027v2zm8.054 0h4.027V5H38.26v2zm8.055 0h4.027V5h-4.027v2zm8.054 0h4.027V5h-4.027v2zm8.055 0h4.027V5h-4.027v2zm8.054 0h4.027V5h-4.027v2zm8.055 0h4.027V5h-4.027v2zm8.054 0h4.028V5h-4.028v2zm8.055 0h4.027V5h-4.027v2zm8.054 0h4.028V5h-4.028v2zm8.055 0h4.027V5h-4.027v2zm8.055 0h4.027V5h-4.027v2zm8.054 0h4.027V5h-4.027v2zm8.055 0h4.027V5h-4.027v2zm8.054 0h4.027V5h-4.027v2zm8.055 0h4.027V5h-4.027v2zm8.054 0h4.028V5h-4.028v2zm8.055 0h4.027V5h-4.027v2zm8.054 0h4.028V5h-4.028v2zm8.055 0h4.027V5h-4.027v2zm8.054 0h4.028V5h-4.028v2zm8.055 0h4.027V5h-4.027v2zm8.054 0h4.028V5h-4.028v2zm8.055 0h4.027V5h-4.027v2zm8.055 0h4.027V5h-4.027v2zm8.054 0h4.027V5h-4.027v2zm8.055 0h4.027V5h-4.027v2zm8.054 0h4.027V5h-4.027v2zm8.055 0h4.027V5h-4.027v2zm8.054 0h4.028V5h-4.028v2zm8.055 0h4.027V5h-4.027v2zm8.054 0h4.028V5h-4.028v2zm8.055 0h4.027V5h-4.027v2zm8.054 0h4.028V5h-4.028v2zm8.055 0h4.027V5h-4.027v2zm8.055 0h4.027V5h-4.027v2zm8.054 0h4.027V5h-4.027v2zm8.055 0h4.027V5h-4.027v2zm8.054 0h4.028V5h-4.028v2zm8.055 0h4.027V5h-4.027v2zm8.054 0h4.028V5h-4.028v2zm8.055 0h4.027V5h-4.027v2zm8.055 0h4.027V5h-4.027v2zm8.054 0h4.027V5h-4.027v2zm8.055 0h4.027V5h-4.027v2zm8.054 0h4.028V5h-4.028v2zm8.055 0h4.027V5h-4.027v2zm8.054 0h4.028V5h-4.028v2zm8.055 0h4.027V5h-4.027v2zm8.055 0h4.027V5h-4.027v2zm8.054 0h4.027V5h-4.027v2z" fill="#CD394B"/></svg>