<svg width="144" height="30" fill="none" xmlns="http://www.w3.org/2000/svg"><path d="M29.443 18.615c-1.986 8.035-10.088 12.933-18.096 10.94C3.339 27.563-1.543 19.434.443 11.4 2.429 3.363 10.53-1.535 18.539.458l.04.01c7.987 2.011 12.846 10.127 10.864 18.147z" fill="#fff"/><path d="M18.332 12.825c-.467 1.874-3.315.913-4.24.684l.818-3.279c.91.225 3.889.656 3.408 2.595h.014zm-.51 5.299c-.503 2.041-3.93.936-5.041.66l.9-3.621c1.112.28 4.67.829 4.142 2.96zm3.736-5.27c.294-1.996-1.219-3.069-3.268-3.78l.672-2.703-1.657-.413-.654 2.633a55.05 55.05 0 00-1.311-.31l.653-2.66-1.639-.412-.672 2.703-1.046-.234-2.264-.567-.434 1.757s1.214.28 1.19.3a.875.875 0 01.766.936l-.765 3.078a.885.885 0 01.168.056l-.173-.047-1.07 4.315a.597.597 0 01-.75.389h-.001c0 .023-1.195-.296-1.195-.296l-.813 1.874 2.134.53 1.167.304-.677 2.731 1.638.412.673-2.703c.441.122.876.235 1.302.338l-.663 2.712 1.639.407.677-2.726c2.8.53 4.897.319 5.784-2.22.714-2.042-.037-3.218-1.508-3.986 1.074-.249 1.868-.937 2.096-2.418z" fill="#0B6984"/><path d="M38.897 25.294a5.074 5.074 0 002.493-.646 6.484 6.484 0 002.026-1.696 8.69 8.69 0 001.34-2.45 8.376 8.376 0 00.495-2.848 5.581 5.581 0 00-.607-2.843c-.402-.68-1.15-1.026-2.232-1.026a6.96 6.96 0 00-1.4.192 3.374 3.374 0 00-1.532.796l-2.474 10.38.396.076c.118.029.24.048.36.056.155.02.31.027.467.023l.667-.014zm4.916-16.226a7.142 7.142 0 013.137.647 6.253 6.253 0 012.194 1.747 7.306 7.306 0 011.307 2.59 11.85 11.85 0 01.416 3.19 12.993 12.993 0 01-3.614 8.99 12.415 12.415 0 01-3.935 2.726 11.976 11.976 0 01-4.911 1.021H37.21a18.017 18.017 0 01-1.942-.168 22.135 22.135 0 01-2.334-.469 11.362 11.362 0 01-2.334-.834L37.16.937 43.018 0l-2.334 9.785a9.04 9.04 0 011.508-.529 6.714 6.714 0 011.63-.192l-.01.005zm15.831-2.009a3.471 3.471 0 01-2.12-.698 2.492 2.492 0 01-.934-2.146 3.537 3.537 0 01.322-1.494 3.96 3.96 0 01.855-1.218 4.214 4.214 0 011.227-.815c.472-.203.98-.307 1.494-.305a3.462 3.462 0 012.101.703 2.5 2.5 0 01.934 2.145 3.563 3.563 0 01-.318 1.5 4.024 4.024 0 01-.85 1.212c-.357.344-.772.62-1.227.815a3.67 3.67 0 01-1.494.3h.01zm-2.722 22.386h-5.603L56.053 9.49h5.635l-4.767 19.955zM66.59 4.52l5.86-.909-1.457 5.88h6.275l-1.13 4.627h-6.224l-1.662 6.96a8.143 8.143 0 00-.266 1.632 3.02 3.02 0 00.191 1.31c.157.375.446.677.813.848a3.65 3.65 0 001.68.31 8.747 8.747 0 001.76-.174c.584-.114 1.158-.27 1.718-.468l.42 4.328c-.804.29-1.626.53-2.46.717a13.97 13.97 0 01-3.137.304c-1.742 0-3.086-.262-4.048-.777a4.511 4.511 0 01-2.044-2.127 6.791 6.791 0 01-.528-3.092c.063-1.24.24-2.473.528-3.682L66.59 4.501v.019zm10.472 16.957c-.012-1.656.27-3.3.83-4.858a11.989 11.989 0 012.382-3.986 11.154 11.154 0 013.763-2.69 11.992 11.992 0 014.934-.987 13.052 13.052 0 013.044.323c.84.2 1.656.485 2.437.852l-1.947 4.39a17.845 17.845 0 00-1.568-.549 6.776 6.776 0 00-1.985-.248 5.544 5.544 0 00-4.42 1.949c-1.093 1.29-1.641 3.022-1.644 5.2a5.373 5.373 0 00.83 3.129c.554.796 1.576 1.194 3.063 1.194.713 0 1.424-.076 2.12-.23.62-.132 1.23-.322 1.816-.566l.416 4.516a21.76 21.76 0 01-2.334.74 12.992 12.992 0 01-3.063.318 10.373 10.373 0 01-4.006-.68 7.535 7.535 0 01-2.68-1.84 6.951 6.951 0 01-1.535-2.717 11.22 11.22 0 01-.467-3.279l.014.019zm27.642-7.734a3.564 3.564 0 00-2.194.717 6.23 6.23 0 00-1.583 1.822 9.054 9.054 0 00-.99 2.409 10.37 10.37 0 00-.317 2.481 6.103 6.103 0 00.603 2.96c.406.708 1.134 1.064 2.194 1.064a3.517 3.517 0 002.194-.721 6.268 6.268 0 001.588-1.822 8.941 8.941 0 00.966-2.408c.203-.813.31-1.648.317-2.487a6.058 6.058 0 00-.602-2.96c-.406-.703-1.139-1.06-2.194-1.06l.018.005zm-2.801 16.236a9.061 9.061 0 01-3.483-.61 6.42 6.42 0 01-2.437-1.705 7.362 7.362 0 01-1.456-2.6 10.605 10.605 0 01-.467-3.316c.004-1.546.25-3.083.733-4.553.469-1.479 1.2-2.86 2.157-4.08a11.593 11.593 0 013.515-2.979 9.657 9.657 0 014.762-1.157 9.208 9.208 0 013.464.61 6.508 6.508 0 012.451 1.681 7.456 7.456 0 011.452 2.6 10.49 10.49 0 01.467 3.32 15.19 15.19 0 01-.714 4.554 13.172 13.172 0 01-2.12 4.099 11.143 11.143 0 01-3.497 2.974 9.85 9.85 0 01-4.827 1.162zm20.005-22.92a3.445 3.445 0 01-2.115-.698 2.49 2.49 0 01-.934-2.146 3.55 3.55 0 01.322-1.494c.2-.454.482-.866.831-1.218a4.295 4.295 0 011.233-.815 3.72 3.72 0 011.489-.305 3.467 3.467 0 012.12.703c.647.515.996 1.319.934 2.145a3.556 3.556 0 01-.328 1.5 3.932 3.932 0 01-.844 1.212c-.358.344-.773.62-1.228.815a3.679 3.679 0 01-1.481.3h.001zm-2.717 22.386h-5.602l4.724-19.955h5.64l-4.762 19.955zm8.795-19.046c.425-.122.897-.272 1.401-.436a23.219 23.219 0 011.741-.468 20.95 20.95 0 012.153-.342c.897-.096 1.8-.141 2.703-.136 2.95 0 4.986.86 6.106 2.58.671 1.032 1.011 2.289 1.019 3.773v.107c-.005.965-.149 2.025-.43 3.18l-2.573 10.773h-5.621l2.498-10.549a23.45 23.45 0 00.359-1.915 4.555 4.555 0 000-1.63 1.95 1.95 0 00-.7-1.139 2.694 2.694 0 00-1.685-.435c-.748.001-1.495.078-2.227.23l-3.67 15.457h-5.654l4.58-19.05z" fill="#fff"/></svg>