<svg width="21" height="20" fill="none" xmlns="http://www.w3.org/2000/svg"><path d="M18.357 0H2.643C1.46 0 .5.96.5 2.143v15.714C.5 19.04 1.46 20 2.643 20h15.714c1.183 0 2.143-.96 2.143-2.143V2.143C20.5.96 19.54 0 18.357 0zM6.17 15.736a.891.891 0 11-1.544-.892l.638-1.103c.719-.219 1.308-.05 1.768.508l-.862 1.487zm6.2-2.405H4.25a.895.895 0 01-.893-.893c0-.49.402-.893.893-.893h2.277l2.92-5.054-.916-1.58a.894.894 0 01.326-1.218.894.894 0 011.219.326l.397.687.397-.687a.891.891 0 111.544.892l-3.83 6.635h2.772c.902 0 1.407 1.058 1.014 1.785zm4.38 0h-1.295l.875 1.513a.894.894 0 01-.326 1.219.894.894 0 01-1.218-.326c-1.469-2.54-2.567-4.45-3.304-5.718-.746-1.295-.214-2.59.317-3.027.585 1.014 1.46 2.532 2.63 4.554h2.321a.892.892 0 110 1.785z" fill="#0B6984"/></svg>