<svg width="20" height="20" fill="none" xmlns="http://www.w3.org/2000/svg"><g clip-path="url(#clip0_86_1943)"><path d="M5.899 19.626a4.407 4.407 0 01-1.035-.96 12.462 12.462 0 01-.889-1.212 11.799 11.799 0 01-1.484-3.03c-.417-1.25-.62-2.448-.62-3.62 0-1.309.284-2.451.838-3.411a4.8 4.8 0 011.748-1.817 4.656 4.656 0 012.366-.7c.293 0 .609.043.944.124.24.068.534.176.892.31.455.175.706.283.79.309.268.097.492.14.668.14.134 0 .323-.043.537-.108.121-.042.348-.117.674-.257.323-.117.576-.218.778-.293.31-.091.609-.175.876-.218.325-.049.647-.065.957-.04.592.04 1.133.167 1.618.349.85.342 1.536.876 2.047 1.634a3.964 3.964 0 00-.605.459 5.095 5.095 0 00-1.026 1.253 4.265 4.265 0 00-.537 2.1c.013.901.245 1.696.7 2.383.326.5.755.927 1.28 1.279.26.176.485.296.7.377-.101.313-.209.616-.335.915-.29.674-.635 1.319-1.042 1.927-.362.525-.645.915-.86 1.175-.335.397-.657.7-.983.912a2.196 2.196 0 01-1.211.364 2.746 2.746 0 01-.863-.104 9.49 9.49 0 01-.713-.27 5.71 5.71 0 00-.752-.284 3.919 3.919 0 00-1.937-.003 6.18 6.18 0 00-.758.27c-.348.147-.58.245-.713.287a3.697 3.697 0 01-.824.143c-.433 0-.837-.124-1.237-.375l.01-.008zM11.61 4.24c-.566.283-1.107.404-1.644.365-.084-.541 0-1.094.225-1.7.199-.517.465-.983.833-1.4.38-.433.84-.791 1.357-1.048.55-.283 1.075-.436 1.576-.459.065.567 0 1.124-.208 1.725a4.988 4.988 0 01-.833 1.465 4.268 4.268 0 01-1.322 1.052h.016z" fill="#0B6984"/></g><defs><clipPath id="clip0_86_1943"><path fill="#fff" d="M0 0h20v20H0z"/></clipPath></defs></svg>