<svg width="21" height="20" fill="none" xmlns="http://www.w3.org/2000/svg"><path d="M14.86 12c.08-.66.14-1.32.14-2 0-.68-.06-1.34-.14-2h3.38c.16.64.26 1.31.26 2s-.1 1.36-.26 2h-3.38zm-1.77 5.56c.6-1.11 1.06-2.31 1.38-3.56h2.95a8.03 8.03 0 01-4.33 3.56zM12.84 12H8.16c-.1-.66-.16-1.32-.16-2 0-.68.06-1.35.16-2h4.68c.09.65.16 1.32.16 2 0 .68-.07 1.34-.16 2zm-2.34 5.96C9.67 16.76 9 15.43 8.59 14h3.82c-.41 1.43-1.08 2.76-1.91 3.96zM6.5 6H3.58A7.923 7.923 0 017.9 2.44C7.3 3.55 6.85 4.75 6.5 6zm-2.92 8H6.5c.35 1.25.8 2.45 1.4 3.56A8.008 8.008 0 013.58 14zm-.82-2c-.16-.64-.26-1.31-.26-2s.1-1.36.26-2h3.38C6.06 8.66 6 9.32 6 10c0 .68.06 1.34.14 2H2.76zm7.74-9.97c.83 1.2 1.5 2.54 1.91 3.97H8.59C9 4.57 9.67 3.23 10.5 2.03zM17.42 6h-2.95a15.65 15.65 0 00-1.38-3.56c1.84.63 3.37 1.9 4.33 3.56zM10.5 0C4.97 0 .5 4.5.5 10a10 10 0 1010-10z" fill="#0B6984"/></svg>