<svg width="322" height="77" fill="none" xmlns="http://www.w3.org/2000/svg"><g clip-path="url(#clip0_8_24)" fill="#CD394B"><path d="M41.844 67.037a33.2 33.2 0 00-4.236-9.432 41.199 41.199 0 00-10.55-11.134 35.653 35.653 0 00-11.938-6.153c-.94-.265-8.657-2.109-8.657-2.109s7.693-1.752 8.615-2.017a38.042 38.042 0 0011.265-5.43 40.837 40.837 0 0010.41-10.42 34.623 34.623 0 005.083-10.71 33.19 33.19 0 01.416-1.711c0-.083-.05-.166-.067-.25C41.935 6.668 39.95 0 39.95 0s-1.72 5.928-2.076 7.639a36.863 36.863 0 01-5.442 11.45 43.71 43.71 0 01-11.14 11.141 41.072 41.072 0 01-12.07 5.812c-.99.283-9.222 2.16-9.222 2.16s8.266 1.967 9.271 2.25a38.07 38.07 0 0112.777 6.575 43.882 43.882 0 0111.315 11.898 35.376 35.376 0 014.535 10.08c.25.988 2.044 7.995 2.044 7.995s1.977-7.007 2.227-8.004c0-.116.066-.24.09-.357l-.415-1.602z"/><path d="M58.044 47.019a43.882 43.882 0 00-11.315 11.898 35.377 35.377 0 00-4.536 10.087C41.944 69.993 40.15 77 40.15 77s-1.977-7.007-2.227-8.004c0-.116-.066-.24-.1-.357.2-.764.35-1.361.408-1.602a33.2 33.2 0 014.237-9.432A40.943 40.943 0 0153.035 46.47m.705-15.708a41.101 41.101 0 01-10.408-10.42 34.779 34.779 0 01-5.076-10.71 27.453 27.453 0 00-.424-1.711c0-.083.058-.166.075-.25C38.156 6.668 40.142 0 40.142 0s1.72 5.928 2.076 7.639a37.014 37.014 0 005.442 11.45A43.876 43.876 0 0058.8 30.23"/></g><g clip-path="url(#clip1_8_24)"><path d="M49.16 65.989s-1.291-5.034-1.47-5.746a25.55 25.55 0 00-3.252-7.235 31.34 31.34 0 00-8.125-8.543 27.173 27.173 0 00-9.167-4.731c-.722-.196-6.655-1.613-6.655-1.613s5.907-1.354 6.62-1.55a29.349 29.349 0 008.659-4.17 31.47 31.47 0 008.018-8.017 26.398 26.398 0 003.902-8.224c.259-1.229 1.488-5.488 1.488-5.488s1.426 4.794 1.604 5.506a23.745 23.745 0 001.915 4.99 30.765 30.765 0 004.179 6.067 37.413 37.413 0 005.817 5.149 27.458 27.458 0 008.535 4.178c.713.196 4.847 1.586 4.847 1.586s-4.152 1.363-4.874 1.56c-1.98.57-3.88 1.387-5.657 2.431a36.522 36.522 0 00-6.548 4.91 29.212 29.212 0 00-4.962 5.88 25.115 25.115 0 00-3.261 7.296 1483.6 1483.6 0 01-1.613 5.764z" fill="#fff"/></g><path d="M282.055 56.387v-27.72h4.343l-.483 8.793h.912c.465-2.109 1.09-3.86 1.876-5.254.787-1.43 1.752-2.485 2.896-3.164 1.179-.715 2.52-1.072 4.021-1.072 1.787 0 3.253.447 4.397 1.34 1.144.858 1.984 1.984 2.52 3.378.572 1.394.858 2.931.858 4.611h.858c.393-2.001 1-3.7 1.823-5.093.822-1.394 1.84-2.449 3.056-3.164 1.215-.715 2.609-1.072 4.182-1.072 1.43 0 2.681.286 3.753.858 1.073.572 1.984 1.43 2.735 2.573.75 1.109 1.304 2.485 1.662 4.13.357 1.643.536 3.538.536 5.683v15.173h-4.879v-14.53c0-2.109-.197-3.86-.59-5.255-.393-1.43-.983-2.484-1.769-3.163-.751-.715-1.716-1.072-2.896-1.072-1.322 0-2.52.464-3.592 1.394-1.037.893-1.895 2.162-2.574 3.806-.643 1.61-1.072 3.45-1.287 5.523v13.297h-4.772V42.34c0-2.217-.196-4.058-.589-5.523-.394-1.466-.983-2.574-1.77-3.324-.75-.751-1.733-1.126-2.949-1.126-1.43 0-2.663.5-3.699 1.5-1.037.966-1.877 2.27-2.52 3.915-.608 1.644-1.001 3.485-1.18 5.523v13.082h-4.879zm-24.713.698c-3.074 0-5.398-1.072-6.971-3.217-1.572-2.145-2.359-5.344-2.359-9.597V28.668h4.933v15.174c0 3.002.465 5.236 1.394 6.702.929 1.465 2.395 2.198 4.397 2.198 1.108 0 2.091-.268 2.949-.804.893-.536 1.68-1.305 2.359-2.306.679-1 1.233-2.18 1.662-3.538a21.87 21.87 0 00.858-4.504V28.668h4.879v27.72H267.1l.429-8.9h-.804c-.465 2.216-1.126 4.039-1.984 5.469-.822 1.394-1.859 2.43-3.11 3.11-1.251.679-2.681 1.018-4.289 1.018zm-39.532-.697v-4.45l15.71-18.445v-.697h-15.602v-4.128h22.09v4.182l-16.031 18.659v.697h16.138v4.182H217.81zm-18.095.696c-2.181 0-4.111-.321-5.791-.965-1.644-.679-3.039-1.644-4.182-2.895-1.144-1.251-2.002-2.735-2.574-4.45-.572-1.716-.858-3.646-.858-5.791 0-2.18.286-4.182.858-6.005.572-1.823 1.412-3.414 2.52-4.772a10.894 10.894 0 014.075-3.11c1.609-.75 3.449-1.126 5.523-1.126 1.823 0 3.485.304 4.986.912a9.307 9.307 0 013.807 2.841c1.072 1.251 1.877 2.842 2.413 4.772.536 1.895.75 4.129.643 6.702l-21.769.161v-3.324l18.82-.16-1.662 2.251c.179-2.252-.036-4.11-.643-5.576-.608-1.466-1.484-2.574-2.628-3.325-1.108-.75-2.43-1.125-3.967-1.125-1.645 0-3.092.429-4.343 1.286-1.252.858-2.217 2.091-2.896 3.7-.643 1.608-.965 3.557-.965 5.844 0 3.289.733 5.809 2.198 7.56 1.466 1.716 3.646 2.574 6.542 2.574 1.108 0 2.073-.125 2.895-.375.858-.286 1.573-.662 2.145-1.126a5.998 5.998 0 001.448-1.716 8.42 8.42 0 00.911-2.091l4.289 1.019a11.299 11.299 0 01-1.501 3.485 9.366 9.366 0 01-2.466 2.573c-.965.715-2.091 1.27-3.378 1.663s-2.77.59-4.45.59zm-32.514 0c-2.181 0-4.111-.321-5.791-.965-1.644-.679-3.039-1.644-4.182-2.895-1.144-1.251-2.002-2.735-2.574-4.45-.572-1.716-.858-3.646-.858-5.791 0-2.18.286-4.182.858-6.005.572-1.823 1.412-3.414 2.52-4.772a10.894 10.894 0 014.075-3.11c1.608-.75 3.449-1.126 5.523-1.126 1.823 0 3.485.304 4.986.912a9.307 9.307 0 013.807 2.841c1.072 1.251 1.876 2.842 2.413 4.772.536 1.895.75 4.129.643 6.702l-21.769.161v-3.324l18.82-.16-1.662 2.251c.179-2.252-.036-4.11-.643-5.576-.608-1.466-1.484-2.574-2.628-3.325-1.108-.75-2.43-1.125-3.967-1.125-1.645 0-3.092.429-4.343 1.286-1.252.858-2.217 2.091-2.896 3.7-.643 1.608-.965 3.557-.965 5.844 0 3.289.733 5.809 2.198 7.56 1.466 1.716 3.646 2.574 6.542 2.574 1.108 0 2.073-.125 2.895-.375.858-.286 1.573-.662 2.145-1.126a5.978 5.978 0 001.447-1.716c.394-.643.698-1.34.912-2.091l4.289 1.019a11.299 11.299 0 01-1.501 3.485 9.366 9.366 0 01-2.466 2.573c-.965.715-2.091 1.27-3.378 1.663s-2.77.59-4.45.59zm-34.993-.697v-27.72h4.397l-.429 9.651h.912c.321-2.109.822-3.932 1.501-5.469.679-1.537 1.573-2.734 2.681-3.592 1.144-.858 2.555-1.287 4.235-1.287.358 0 .769.036 1.234.107.464.036 1.001.161 1.608.375l-.268 5.094a6.706 6.706 0 00-1.608-.429 7.93 7.93 0 00-1.555-.16c-1.394 0-2.61.446-3.646 1.34-1.001.894-1.841 2.109-2.52 3.646-.68 1.501-1.234 3.199-1.662 5.093v13.351h-4.88zm-37.008.001V21h12.975c1.966 0 3.754.179 5.362.536 1.644.358 3.039.912 4.182 1.662a7.176 7.176 0 012.628 2.842c.643 1.18.965 2.592.965 4.236 0 1.358-.268 2.556-.804 3.592-.537 1.037-1.395 1.877-2.574 2.52-1.144.644-2.663 1.144-4.558 1.502v.59c3.289.285 5.666 1.179 7.132 2.68 1.501 1.502 2.251 3.468 2.251 5.898 0 2.002-.482 3.7-1.447 5.094-.93 1.358-2.377 2.413-4.343 3.163-1.93.715-4.433 1.073-7.507 1.073H95.2zm4.718-4.182h10.027c2.681 0 4.665-.447 5.951-1.341 1.323-.93 1.984-2.341 1.984-4.236 0-2.18-.911-3.807-2.734-4.879-1.788-1.108-4.504-1.662-8.15-1.662h-7.078v12.117zm0-15.764h6.113c3.503 0 6.112-.465 7.828-1.394 1.716-.965 2.574-2.395 2.574-4.29 0-1.894-.751-3.306-2.252-4.235-1.466-.93-3.7-1.394-6.703-1.394h-7.56v11.313z" fill="#fff"/><defs><clipPath id="clip0_8_24"><path fill="#fff" d="M0 0h58.8v77H0z"/></clipPath><clipPath id="clip1_8_24"><path fill="#fff" transform="translate(20.49 10.69)" d="M0 0h55.566v55.299H0z"/></clipPath></defs></svg>