<svg width="1304" height="316" fill="none" xmlns="http://www.w3.org/2000/svg"><g opacity=".8"><path fill-rule="evenodd" clip-rule="evenodd" d="M914 16c-27.614 0-50 22.386-50 50s22.386 50 50 50 50-22.386 50-50-22.386-50-50-50zm0 78.572c11.129 0 20.77-6.361 25.487-15.647-.7-.343-1.432-.68-2.178-.902-1.116-.33-2.261-.348-3.368.023-.97.327-1.842.878-2.704 1.422l-.019.012-.268.172-.004.002-.013.008c-1.797 1.13-3.831 2.41-6.419 2.41-3.846 0-6.548-2.302-7.41-6.318-.667-3.111-3.104-15.111-3.104-15.111a1295.123 1295.123 0 01-3.104 15.11c-.862 4.015-3.562 6.319-7.409 6.319-2.592 0-4.633-1.284-6.432-2.42h-.003l-.27-.172c-.866-.548-1.746-1.105-2.721-1.432a5.518 5.518 0 00-3.37-.025c-.746.222-1.479.557-2.179.902C893.23 88.21 902.871 94.572 914 94.572zm25.175-20.663c.681.275 1.353.574 2.014.895A28.56 28.56 0 00942.571 66c0-15.78-12.791-28.571-28.571-28.571-15.78 0-28.571 12.79-28.571 28.571a28.538 28.538 0 001.382 8.804c.648-.311 1.326-.62 2.016-.895 3.266-1.305 6.259-.868 9.257.954 0 0 1.095.67 1.421.875l.02.014.012.007c1.386.87 2.693 1.691 3.95 1.691 1.209 0 2.399-.325 2.902-2.67.786-3.657 2.7-12.644 3.536-17.096.489-2.614.759-4.023 1.039-4.982.49-1.673 1.384-2.59 2.652-2.741 0 0 .223-.032.384-.032.162 0 .364.028.364.028 1.281.147 2.181 1.06 2.673 2.745.279.957.549 2.368 1.04 4.984.835 4.452 2.75 13.437 3.535 17.094.504 2.345 1.693 2.668 2.902 2.668 1.261 0 2.572-.823 3.961-1.696l.021-.014c.327-.206 1.42-.875 1.42-.875 2.998-1.822 5.991-2.26 9.259-.954z" fill="#1A84A3"/><g clip-path="url(#clip0_25_135)"><path fill-rule="evenodd" clip-rule="evenodd" d="M110 30c-27.614 0-50 22.386-50 50s22.386 50 50 50 50-22.386 50-50-22.386-50-50-50zM97.471 67.5H122.5v25.03l16.071 15.566V51.429H81.907L97.471 67.5zm.029 2.616V92.5h22.382l-16.025 16.071H81.429V86.139L97.5 70.116z" fill="#1A84A3" fill-opacity=".8"/></g><path fill-rule="evenodd" clip-rule="evenodd" d="M30 216c-16.569 0-30 13.431-30 30 0 16.569 13.431 30 30 30 16.569 0 30-13.431 30-30 0-16.569-13.431-30-30-30zm13.346 36.836c.204-.476.398-.972.583-1.492a7.578 7.578 0 01-2.291-1.458c-1.504-1.355-2.27-3.063-2.292-5.115-.023-2.632 1.207-4.684 3.694-6.15-1.39-1.92-3.48-2.987-6.262-3.206-1.028-.084-2.281.131-3.766.651-1.57.56-2.497.841-2.77.841-.366 0-1.2-.24-2.498-.715-1.303-.471-2.351-.712-3.15-.712a8.276 8.276 0 00-4.072 1.117 8.325 8.325 0 00-3.013 2.962c-.959 1.556-1.438 3.414-1.438 5.568 0 1.88.355 3.823 1.064 5.828.661 1.858 1.506 3.489 2.533 4.893.958 1.314 1.757 2.243 2.396 2.785 1.002.906 2.003 1.335 3.01 1.293.662-.021 1.527-.242 2.601-.664 1.074-.421 2.076-.629 3.01-.629.892 0 1.867.208 2.928.629 1.058.422 1.966.63 2.72.63 1.05-.022 2.03-.441 2.943-1.26.59-.497 1.357-1.393 2.29-2.689a17.388 17.388 0 001.78-3.107zm-6.384-24.407c0-.214-.01-.429-.032-.643-.839.043-1.733.289-2.678.736-.942.453-1.722 1.022-2.335 1.705-1.228 1.351-1.92 3.003-1.92 4.546 0 .203.014.407.04.609 1.907.15 3.665-.803 5.119-2.456 1.203-1.388 1.806-2.89 1.806-4.497zM376 77c-27.614 0-50 22.386-50 50s22.386 50 50 50 50-22.386 50-50-22.386-50-50-50zm-32.802 65.882c1.498 1.214 3.415 1.868 5.756 1.963h-.002c2.605.107 5.825-.509 9.421-1.797 1.407-.503 2.207-.834 5.198-2.139 18.893-8.245 55.29-24.134 55.286-24.138 0-.003-12.82 3.474-28.484 7.725-15.664 4.252-28.694 7.783-28.957 7.845-3.82.896-6.946.809-9.084-.259-1.219-.611-2.305-1.714-2.937-2.987-.918-1.852-1.007-4.238-.265-7.018.465-1.732 1.315-3.734 2.309-5.434.115-.197.207-.357.202-.357-.011 0-1.687 1.887-2.25 2.534-3.825 4.385-6.016 7.551-7.436 10.746-1.659 3.729-2.094 7.129-1.248 9.718a7.667 7.667 0 001.295 2.378c.368.436.768.843 1.196 1.22z" fill="#1A84A3"/><path fill-rule="evenodd" clip-rule="evenodd" d="M252 243c-16.569 0-30 13.431-30 30 0 16.569 13.431 30 30 30 16.569 0 30-13.431 30-30 0-16.569-13.431-30-30-30zm3.824 31.209c-1.484-.69-3.452-1.852-3.424-3.933.022-2.812 2.741-4.776 6.609-4.776 1.248.003 2.487.22 3.661.642l-.687 3.063c-1.752-.771-3.298-.717-3.858-.646-1.131.14-1.648.692-1.66 1.208-.015.685.869 1.129 1.932 1.662 1.583.794 3.561 1.787 3.551 4.068-.015 3.005-2.703 4.943-6.812 4.943-1.751-.015-3.439-.365-4.35-.767l.707-3.166.071.031c.897.402 2.032.91 3.947.882 1.127-.016 2.331-.445 2.342-1.415.007-.633-.506-1.087-2.029-1.796zm11.79-7.648c.283-.643.915-1.061 1.665-1.061h3.341l2.951 15h-3.618l-.268-2.443h-5.017l-1.024 2.443h-4.106l6.076-13.939zm3.424 8.534l-1.185-5.427-2.06 5.427h3.245zm-27.061 5.405l3.444-15h3.912l-3.443 15h-3.913zm-6.418-4.9l4.074-10.1h4.109l-6.547 15h-4.134l-2.915-12.081c-.189-.71-.353-.971-.929-1.27-.94-.49-2.493-.946-3.86-1.229l.093-.42h6.658c.848 0 1.612.54 1.804 1.472l1.647 8.628z" fill="#1A84A3" fill-opacity=".6"/><path fill-rule="evenodd" clip-rule="evenodd" d="M600 0c-16.569 0-30 13.431-30 30 0 16.569 13.431 30 30 30 16.569 0 30-13.431 30-30 0-16.569-13.431-30-30-30zm-10.645 12.88c5.366.22 14.071 2.132 21.583 8.748 3.876 3.308 6.319 6.985 6.201 12.425-.119 7.573-6.917 10.735-13.952 10.514-1.43 0-3.278-.293-5.126-.883-.179 2.133-.537 3.53-1.313 3.456-.774-.073-1.072-1.985-1.192-4.411-4.174-1.765-7.929-4.779-7.75-8.97.179-1.397 1.848-4.484 8.108-5.22.238-3.455.596-6.469 1.192-6.469.358 0 .895 2.205 1.074 6.322 6.856-.147 9.956 2.132 10.015 3.236 0 1.102-1.43 2.572-2.444 2.719-.929.136-.906-.286-.896-.47l.002-.044c0-.221 1.073-1.177 1.192-1.25.06-.074.179-.22-.119-.293l-.028-.01c-.323-.104-2.011-.65-7.543-.58h-.12v2.207c0 2.72 0 5.293-.06 7.426 1.431.44 2.981.66 4.532.735 7.511.146 11.149-4.192 11.208-8.676.059-7.793-10.85-17.425-25.398-18.527-4.362-.36-4.356.122-4.353.35l.001.018c0 .046.128.116.302.21.371.202.95.516.95.966 0 .367-1.014.147-1.371-.074-.298-.147-1.193-.883-1.193-1.618 0-.588.537-2.058 6.498-1.837zm6.38 18.894c-4.114.294-6.499 1.25-6.618 2.867-.12 1.398 2.563 3.971 6.44 5.735 0-1.618 0-3.308.06-4.779 0-1.037.052-2.27.107-3.575l.011-.248z" fill="#1A84A3"/><path fill-rule="evenodd" clip-rule="evenodd" d="M906 213c0-16.569 13.431-30 30-30 16.569 0 30 13.431 30 30 0 16.569-13.431 30-30 30-16.569 0-30-13.431-30-30zm55.714 7.5v-3.214h-6.428V205.5h-3.215v15h9.643zm-28.746-16.071l-8.427 6.682v.125a7.51 7.51 0 00-6.755-5.717v-.019h-6.429v15h6.429v-.02a7.505 7.505 0 006.755-5.715v.128l8.427 6.678 8.389-6.678v5.607H951v-3.214h-6.429V205.5h-3.214v5.607l-8.169 6.682-1.729-1.559 3.891-3.117 4.106-3.339-2.376-2.001-7.997 6.452-1.728-1.559 7.995-6.236-2.377-2.001h-.005zm-15.718 4.285h-2.679v8.572h2.679a4.282 4.282 0 003.03-1.256 4.282 4.282 0 000-6.06 4.282 4.282 0 00-3.03-1.256z" fill="#1A84A3" fill-opacity=".6"/><path fill-rule="evenodd" clip-rule="evenodd" d="M1144 96c-27.61 0-50 22.386-50 50s22.39 50 50 50 50-22.386 50-50-22.39-50-50-50zm-28.57 21.429h21.01l-21.01 57.142v-57.142zm57.14 0h-21.01l21.01 57.142v-57.142zm-37.81 45.714l9.24-24.763 13.44 36.188h-9.24l-3.36-11.425h-10.08z" fill="#1A84A3"/><path fill-rule="evenodd" clip-rule="evenodd" d="M1274 256c-16.57 0-30 13.431-30 30 0 16.569 13.43 30 30 30s30-13.431 30-30c0-16.569-13.43-30-30-30zm17.1 35.774l.16-.138c.81-.994 1.46-2.126 2.09-3.221.04-.077.09-.154.13-.232.28-.481.57-.976.87-1.45a.27.27 0 00.03-.124c0-.087-.06-.176-.12-.227-.23-.097-.46.027-.67.176-1.22.958-2.06 2.333-2.78 3.511l-.03.059-.07.135v.006c-.25.51-.51 1.036-.5 1.601.02.08.07.18.15.208.27.104.5-.099.73-.294l.01-.01zm-7.62-3.955c.17.762 1 1.04 1.05 1.007.27-.449.48-.952.62-1.464v-.032l.01-.025c.01-.136.03-.284.03-.429 0-.248-.05-.481-.25-.609a.778.778 0 00-.69.125c-.44.258-.9.77-.77 1.427zm-2.27 3.699c0 .145.04.287.12.408.71.813 2.42-1.522 2.92-2.612-.4-.172-1.07-.577-1.36-1.209-.7.884-1.69 2.506-1.68 3.413zm11.91.341c-.09.253.14.338.31.228.92-.529 1.65-1.623 2.24-2.493a.568.568 0 01.07-.1h.55c-.06.092-.14.23-.24.402-.64 1.123-2.1 3.683-3.27 4.308l-.15.085c-.32.173-.61.335-.98.267-.64-.079-.54-1.757-.43-2.196-.1.11-.26.328-.44.586-.43.619-1.02 1.465-1.51 1.595-.61.117-1.28-1.012-1.06-2.519-.07.086-.14.174-.21.264-1 1.231-2.24 2.776-2.95 1.918-.53-.65-.15-2.643.42-4.26 0 0 .18-.555.21-.624-.01-.003-.01-.005-.02-.005-.31.079-.7.101-.84.109l-.04.002c-.13.216-.26.449-.4.693-.83 1.485-1.89 3.372-3.27 4.086-.23.12-.84.369-1.32.129-.46-.259-.6-1.53-.51-2.334.13-1.026.59-1.922 1.05-2.758.85-1.317 2.04-2.915 3.63-3.562.35-.157.88-.254 1.3-.046.37.259.46.633.46 1.03 0 .185-.02.374-.04.56-.14.646-.42 1.242-.64 1.685.11.07.73-.074.89-.194 2.22-4.555 4.76-7.89 7.77-10.204l.03-.014c.12-.084.25-.182.39-.282.49-.371 1.04-.779 1.56-.68.1.018.19.068.27.142.07.074.11.168.13.269.11.66-.16 1.424-.43 1.918-.23.075-.58.139-.58.139l.25-.499c.17-.342.33-.643.31-1.048-.05-.107-.11-.112-.16-.107-.44.088-1 .623-1.55 1.146l-.35.332c-2.24 2.195-4.87 6.782-5.27 7.743.92-.44 3.95-3.386 5.43-5.414.3-.01.56-.06.56-.06-.24.456-1.86 2.503-3.79 4.309-.85.795-1.75 1.524-2.72 2.18-.42.893-.83 1.876-1.01 2.911-.02.143-.07.758.39.721.6-.129 1.67-1.87 1.67-1.87.08-.12.16-.243.24-.369.98-1.525 2.24-3.471 3.88-4.411.4-.226.99-.344 1.4-.094.09.06.32.337.39.462 0 0 .17-.291.25-.417h1.65l-2.44 4.376s-.87 1.317-1.08 1.965zm-18.92-8.74l-1.56-.067.86-1.444h1.54l-.84 1.511zm19.23-2.757c1.48.149 2.7-.276 3.88-.932 1.43-.799 2.4-1.889 2.4-1.889s-.66 1.391-1.96 2.494c-1.22 1.095-3.42 2.245-5.49 1.727.37-.48.77-.947 1.17-1.4zm-11.87 3.009c.54-.13 2.62-1.367 2.87-4.13a.735.735 0 00-.02-.291c-1.35.679-2.7 1.843-3.44 3.404-.5 1.159.27 1.081.59 1.017zm-2.41 2.147c.39-.023.77.191.92.523.35.711.12 1.644-.08 2.304-.82 2.222-2.6 4.963-4.45 5.859-.85.337-2.07.541-2.98-.397-1.07-1.104-.83-3.775-.39-5.042.57-1.879 1.64-3.783 3.37-5.986 2.34-2.813 4.67-4.58 7.03-5.244.66-.158 1.55-.214 2.09.369 0 0 .26-.088.55-.189.73-.26 2.04-.447 3.8.5l.08.042c.75.406 1.52.818 2.24 1.251l.47.282c-.33.3-.9.901-1.25 1.299-.29-.124-.79-.432-1.35-.776-.83-.507-1.79-1.091-2.38-1.284 0 0-1.27-.573-1.9-.249.01.11.02.258.02.369 0 .914-.1 1.566-.49 2.392-.69 1.09-1.99 2.425-3.29 2.721-.28.018-.63-.01-.83-.361-.38-.674-.05-1.575.22-2.137 1.06-2.224 3.53-3.258 3.53-3.258-.38-.146-.83-.092-1.31.148-2.37 1.151-4.23 3.146-5.82 5.247-1.55 2.264-2.63 4.25-2.88 6.584-.06.822.21 1.459.73 1.765.83.498 1.79-.149 2.43-.685a8.71 8.71 0 001.91-2.486c.64-1.255.81-2.553.33-2.71-.55-.153-1.03.42-1.28.775a4.396 4.396 0 00-.77 1.825c-.92.407-1.74 1.151-2.14 1.603.12-1.007.31-1.64.66-2.407.66-1.492 1.92-2.531 3.21-2.647zm-19.93-.91l.31-.71c.11-.314.2-.653.2-.953 0-.221-.05-.425-.19-.581-.22-.172-.6-.084-.84.082-.26.19-.84.713-.69 1.377.1.342.43.629.87.763l.14.022.01.004c.08.017.14.031.19-.004zm-.38.679a.209.209 0 00.02-.055c.02-.043.03-.06.03-.074 0-.009-.01-.014-.01-.014-.48-.138-1.12-.438-1.46-1.085-.01-.007-.01-.009-.01-.011v-.003a.086.086 0 00-.03.009c-.54.772-1.1 1.603-1.46 2.545l-.04.139c-.12.388-.28.868.02 1.215.14.172.41.129.61.064.66-.334 1.18-1.026 1.61-1.582l.01-.016.71-1.132zm8.91-.867c-.02.025-.03.047-.05.068-1.27 1.681-1.68 2.897-1.72 3.294 0 .058 0 .118.03.172.02.054.06.1.11.133.09.064.22.055.3.032.57-.309.92-.753 1.26-1.27 0 0 .25-.37.25-.365.56-.919 1.14-1.947 1.68-2.914.21-.374.41-.739.61-1.084-.03-.203-.33-.49-1.08.161-.22.185-1.04 1.297-1.39 1.773zm-12.39-.108c1.57-2.06 3.53-3.261 4.51-2.632.9.644.2 2.267-.02 2.787-.02.053-.04.095-.05.123.35.088 1.45-.764 2.1-1.471.52-.564 1.55-1.355 2.11-1.563.42-.2 1.06-.264 1.49-.015.28.163.33.561.35.913.06.979-1.08 2.653-1.66 1.84-.12-.35-.01-.792.36-1.179.1-.096.21-.169.33-.216a.93.93 0 01.39-.058c.12-.18.09-.442-.09-.549-.2-.116-.58-.037-.94.235-1.26.985-2.34 2.682-2.99 4.479-.11.338-.17.851.03 1.202.55.836 1.84-.328 1.84-.328.88-.763 1.72-1.818 2.38-2.755 1.72-2.439 3.94-4.732 4.94-3.365.01.01.02.024.03.038.01.019.02.038.03.044.01-.018.19-.3.19-.3h1.62l-3.38 6.059c-.07.142-.12.345 0 .441.09.064.25-.017.25-.017.81-.385 2.01-2.023 2.24-2.332.02-.032.04-.05.04-.05h.56c-.24.344-.48.732-.72 1.134-.65 1.071-1.36 2.237-2.34 2.915-.38.245-1.03.658-1.52.487-.51-.319-.51-1.26-.47-1.74 0 0-.01.006-.02.017-.13.2-1.36 2.011-2.37 1.723-.36-.111-.88-.933-.46-2.365l.05-.226-.27.254c-.18.177-.37.375-.56.579-.88.915-1.87 1.951-3.04 1.759-.94-.29-1.02-1.56-1.05-2.061-.01-.068-.01-.122-.01-.157-.12-.903.9-2.658 1.05-2.908.01-.019.01-.029.01-.03-.27.077-.54.142-.81.194l-.39.629-.03.042c-.39.643-.8 1.309-1.33 1.865l-.1.106c-.79.911-2.8 3.001-3.81 1.832-.67-.993.1-3.531 1.53-5.38zm3.98 7.364c4.18-1.141 6.85-1.21 8.77 0 .66.42 1.17.868 1.62 1.265.21.183.4.355.59.509-1.23-.886-2.78-1.251-3.83-.6-1.06.65-1.57 1.705-1.57 1.705-1.71-3.062-7.4-1.798-8.41-1.558-.45.18-.89.415-1.33.647-.78.417-1.55.829-2.36.911-1.78.148-3.34-1.451-4.06-2.781-.93-1.918-.31-4.274.38-5.918 1.19-2.725 3.3-5.215 5.93-7.013 1.2-.726 2.51-1.381 3.91-1.302.41.074.74.29.93.604.45.883-.12 1.83-.51 2.324-.37.438-1.21.606-1.18-.194.03-.521.46-.909.62-1.03.19-.125.44-.147.59-.147.15-.13.25-1.035-.92-.739-1.53.471-2.69 1.644-3.94 3.011-2.24 2.629-3.5 4.999-3.96 7.461-.2 1.51.06 2.559.82 3.21 1.67 1.137 3 .814 6.16.05.53-.128 1.11-.267 1.75-.415z" fill="#1A84A3" fill-opacity=".8"/></g><defs><clipPath id="clip0_25_135"><rect x="60" y="30" width="100" height="100" rx="50" fill="#fff"/></clipPath></defs></svg>