<svg width="338" height="40" fill="none" xmlns="http://www.w3.org/2000/svg"><path d="M332.984 32.1V.496h4.109v31.602h-4.109zm-19.758.586c-1.264 0-2.407-.24-3.431-.722a5.969 5.969 0 01-2.438-2.212c-.602-.993-.903-2.243-.903-3.747 0-1.114.196-2.092.587-2.935.422-.843 1.054-1.565 1.897-2.167.872-.602 1.986-1.099 3.34-1.49 1.355-.391 3.01-.722 4.967-.993a35.833 35.833 0 002.708-.452c.723-.15 1.249-.39 1.58-.722.332-.361.497-.888.497-1.58 0-1.144-.391-2.107-1.174-2.89-.782-.782-2.016-1.173-3.702-1.173-.873 0-1.76.15-2.663.451a5.837 5.837 0 00-2.393 1.535c-.662.692-1.084 1.67-1.264 2.935l-3.793-1.264a9.372 9.372 0 011.174-2.935 7.978 7.978 0 012.167-2.212c.873-.632 1.881-1.114 3.025-1.445 1.174-.33 2.468-.496 3.883-.496 1.956 0 3.581.33 4.876.993 1.324.662 2.302 1.685 2.934 3.07.662 1.354.993 3.1.993 5.237v5.192c0 .933.015 1.956.045 3.07.061 1.083.136 2.182.226 3.295.09 1.084.181 2.107.271 3.07h-3.792l-.271-2.889a96.301 96.301 0 01-.136-2.89h-.586a12.963 12.963 0 01-1.806 3.116c-.753.963-1.701 1.745-2.845 2.347-1.113.602-2.438.903-3.973.903zm1.219-3.34a6.51 6.51 0 001.987-.317 6.863 6.863 0 002.032-1.038c.692-.482 1.339-1.099 1.941-1.851.632-.753 1.189-1.655 1.67-2.709v-4.515l1.174.226c-.482.482-1.129.843-1.941 1.084-.783.24-1.656.436-2.619.587a96.56 96.56 0 00-2.889.496c-.963.15-1.851.392-2.664.723-.782.3-1.414.737-1.896 1.309s-.722 1.354-.722 2.348c0 1.203.361 2.121 1.083 2.753.723.602 1.671.903 2.844.903zm-16.076 3.204c-2.167 0-3.777-.586-4.831-1.76-1.053-1.174-1.58-2.965-1.58-5.373V12.19h-3.521l.045-3.43h2.212c.753 0 1.294-.136 1.625-.407.362-.271.572-.722.632-1.354l.452-3.522h2.528v5.282h6.727v3.477h-6.727v13.092c0 1.204.271 2.077.813 2.618.572.512 1.384.768 2.438.768a7.24 7.24 0 001.76-.226c.632-.15 1.249-.451 1.851-.903v4.109c-.872.33-1.685.556-2.438.677-.722.12-1.384.18-1.986.18zm-18.51-.45V8.757h4.108V32.1h-4.108zm2.077-27.405c-.963 0-1.686-.195-2.167-.587-.482-.39-.723-.978-.723-1.76 0-.783.241-1.37.723-1.761.481-.391 1.188-.587 2.122-.587.963 0 1.685.196 2.167.587.481.391.722.978.722 1.76 0 .753-.241 1.34-.722 1.761-.482.392-1.189.587-2.122.587zm-29.589 34.718V8.76h3.702l-.226 6.004h.677c.361-1.324.858-2.468 1.49-3.431a6.864 6.864 0 012.528-2.303c1.023-.571 2.257-.857 3.702-.857 2.137 0 3.913.541 5.327 1.625 1.445 1.053 2.529 2.513 3.251 4.38.722 1.835 1.084 3.927 1.084 6.274 0 2.348-.362 4.44-1.084 6.276-.722 1.836-1.791 3.296-3.205 4.38-1.385 1.053-3.085 1.58-5.102 1.58-1.625 0-2.98-.332-4.063-.994a7.79 7.79 0 01-2.528-2.709 16.804 16.804 0 01-1.49-3.476h-.768c.181.813.331 1.655.452 2.528.12.873.21 1.746.271 2.619.09.842.135 1.655.135 2.438v6.32h-4.153zm11.106-10.293c1.324 0 2.438-.377 3.341-1.129.902-.782 1.595-1.836 2.076-3.16.482-1.325.723-2.814.723-4.47 0-1.776-.256-3.296-.768-4.56-.481-1.264-1.174-2.242-2.077-2.934-.903-.723-2.001-1.084-3.295-1.084-1.114 0-2.107.256-2.98.768a6.791 6.791 0 00-2.167 1.986 9.635 9.635 0 00-1.4 2.71 9.64 9.64 0 00-.451 2.889v.541c0 .602.09 1.28.271 2.032.18.722.451 1.46.812 2.212a9.506 9.506 0 001.355 2.077 7.045 7.045 0 001.986 1.535c.753.391 1.611.587 2.574.587zm-30.864 3.566c-1.264 0-2.408-.24-3.431-.722a5.963 5.963 0 01-2.438-2.212c-.602-.993-.903-2.243-.903-3.747 0-1.114.195-2.092.587-2.935.421-.843 1.053-1.565 1.896-2.167.873-.602 1.986-1.099 3.341-1.49 1.354-.391 3.009-.722 4.966-.993a35.96 35.96 0 002.709-.452c.722-.15 1.249-.39 1.58-.722.331-.361.496-.888.496-1.58 0-1.144-.391-2.107-1.174-2.89-.782-.782-2.016-1.173-3.702-1.173-.872 0-1.76.15-2.663.451a5.837 5.837 0 00-2.393 1.535c-.662.692-1.084 1.67-1.264 2.935l-3.792-1.264a9.37 9.37 0 011.173-2.935 7.992 7.992 0 012.167-2.212c.873-.632 1.882-1.114 3.025-1.445 1.174-.33 2.468-.496 3.883-.496 1.956 0 3.581.33 4.876.993 1.324.662 2.302 1.685 2.934 3.07.662 1.354.993 3.1.993 5.237v5.192c0 .933.015 1.956.046 3.07.06 1.083.135 2.182.225 3.295.091 1.084.181 2.107.271 3.07h-3.792l-.271-2.889a93.087 93.087 0 01-.135-2.89h-.587a12.963 12.963 0 01-1.806 3.116c-.753.963-1.701 1.745-2.844 2.347-1.114.602-2.438.903-3.973.903zm1.219-3.34c.662 0 1.324-.106 1.986-.317a6.851 6.851 0 002.032-1.038c.692-.482 1.339-1.099 1.941-1.851.632-.753 1.189-1.655 1.67-2.709v-4.515l1.174.226c-.481.482-1.128.843-1.941 1.084a18.98 18.98 0 01-2.619.587 96.56 96.56 0 00-2.889.496c-.963.15-1.851.392-2.664.723-.782.3-1.414.737-1.896 1.309-.481.572-.722 1.354-.722 2.348 0 1.203.361 2.121 1.083 2.753.723.602 1.671.903 2.845.903zm-23.881 3.34c-2.136 0-4.063-.33-5.778-.993-1.686-.662-3.115-1.64-4.289-2.935-1.174-1.294-2.077-2.874-2.709-4.74-.602-1.896-.903-4.048-.903-6.456 0-2.438.316-4.62.948-6.546.632-1.957 1.535-3.627 2.709-5.011a11.55 11.55 0 014.244-3.16c1.655-.753 3.506-1.13 5.553-1.13 1.565 0 3.01.226 4.334.678 1.324.421 2.468 1.053 3.431 1.896a8.278 8.278 0 012.302 2.98c.542 1.173.828 2.483.858 3.927l-3.928.994c.031-1.535-.285-2.8-.948-3.793a6.242 6.242 0 00-2.618-2.302c-1.084-.512-2.257-.768-3.522-.768a8.56 8.56 0 00-3.431.723c-1.083.451-2.046 1.173-2.889 2.167-.843.963-1.52 2.212-2.032 3.747-.481 1.505-.722 3.326-.722 5.463 0 2.739.391 4.95 1.174 6.636.812 1.686 1.941 2.935 3.386 3.747 1.444.783 3.115 1.174 5.011 1.174 1.836 0 3.311-.33 4.424-.993a6.33 6.33 0 002.483-2.844c.542-1.234.858-2.649.949-4.244l3.702.677a14.374 14.374 0 01-.723 4.289 9.844 9.844 0 01-2.076 3.567c-.934 1.023-2.137 1.82-3.612 2.392-1.475.572-3.251.858-5.328.858zm-37.16-.586V.496h4.108V18.51a26.827 26.827 0 003.386-2.167 31.597 31.597 0 003.025-2.573 23.533 23.533 0 002.393-2.664c.692-.873 1.219-1.655 1.58-2.348h4.831c-.572 1.114-1.31 2.243-2.213 3.386a26.246 26.246 0 01-2.934 3.16 20.683 20.683 0 01-3.431 2.484 13.299 13.299 0 01-3.612 1.49v.541c1.505-.12 2.829.06 3.973.542a9.057 9.057 0 013.025 2.077c.903.903 1.73 1.941 2.483 3.115a46.936 46.936 0 012.167 3.657l1.399 2.89h-4.65l-.993-2.078a43.29 43.29 0 00-2.483-4.153c-.843-1.264-1.806-2.257-2.889-2.98-1.084-.722-2.378-1.083-3.883-1.083h-1.174v10.293h-4.108zm-15.316.586c-1.625 0-3.07-.18-4.334-.541-1.264-.332-2.318-.813-3.161-1.445a6.897 6.897 0 01-1.941-2.348c-.451-.903-.692-1.896-.722-2.98l3.476-.902c-.06.993.181 1.866.722 2.618.572.722 1.37 1.28 2.393 1.67 1.054.392 2.318.587 3.793.587 1.775 0 3.145-.3 4.108-.902.993-.603 1.49-1.43 1.49-2.484 0-.842-.271-1.49-.813-1.94-.542-.482-1.294-.859-2.257-1.13-.933-.3-2.047-.571-3.341-.812a64.208 64.208 0 01-3.251-.813 14.64 14.64 0 01-2.979-1.174 6.398 6.398 0 01-2.122-1.986c-.542-.813-.813-1.821-.813-3.025 0-1.415.376-2.634 1.129-3.657.752-1.023 1.821-1.82 3.205-2.393 1.385-.571 3.04-.857 4.966-.857 1.927 0 3.567.3 4.921.903 1.355.571 2.423 1.384 3.206 2.438.782 1.053 1.219 2.287 1.309 3.701l-3.567.903c-.03-.993-.301-1.836-.812-2.528-.482-.692-1.174-1.204-2.077-1.535-.903-.36-1.956-.542-3.16-.542-1.595 0-2.859.301-3.793.903-.933.602-1.399 1.43-1.399 2.484 0 .782.271 1.414.813 1.896.571.481 1.339.857 2.302 1.128.963.271 2.032.542 3.205.813 1.204.24 2.348.512 3.432.813 1.113.3 2.106.692 2.979 1.173a5.608 5.608 0 012.077 1.942c.512.782.768 1.79.768 3.024 0 1.536-.407 2.83-1.219 3.883-.813 1.023-1.957 1.806-3.432 2.348-1.444.511-3.145.767-5.101.767zm-19.91-.586V8.757h4.109V32.1h-4.109zm2.077-27.405c-.963 0-1.686-.195-2.167-.587-.482-.39-.722-.978-.722-1.76 0-.783.24-1.37.722-1.761.481-.391 1.189-.587 2.122-.587.963 0 1.685.196 2.167.587.481.391.722.978.722 1.76 0 .753-.241 1.34-.722 1.761-.482.392-1.189.587-2.122.587zm-31.169 27.404V2.302h10.384c1.505 0 2.874.12 4.108.361 1.264.241 2.378.602 3.341 1.084.993.482 1.821 1.068 2.483 1.76a6.459 6.459 0 011.535 2.439c.361.903.542 1.91.542 3.024 0 1.054-.166 2.017-.497 2.89a6.242 6.242 0 01-1.399 2.302c-.632.662-1.415 1.204-2.348 1.626-.933.39-2.016.662-3.25.812v.587c1.083.12 2.031.406 2.844.858.812.451 1.505 1.113 2.077 1.986.571.843 1.068 1.972 1.489 3.386l1.897 6.682h-4.47l-1.535-6.095c-.271-1.234-.737-2.227-1.4-2.98a5.655 5.655 0 00-2.392-1.67c-.963-.361-2.092-.542-3.386-.542h-5.869V32.1h-4.154zm4.154-14.673h5.869c2.678 0 4.695-.481 6.049-1.444 1.385-.963 2.077-2.438 2.077-4.425 0-1.986-.662-3.446-1.986-4.379-1.295-.963-3.311-1.445-6.05-1.445h-5.959v11.693zM90.101 32.1V8.757h3.702l-.361 8.127h.767c.271-1.776.692-3.31 1.264-4.605.572-1.294 1.325-2.303 2.258-3.025.963-.722 2.152-1.083 3.566-1.083.301 0 .647.03 1.039.09.391.03.842.135 1.354.316l-.226 4.289a5.647 5.647 0 00-1.354-.361 6.676 6.676 0 00-1.309-.136c-1.174 0-2.197.377-3.07 1.129-.843.752-1.55 1.776-2.122 3.07-.572 1.264-1.038 2.694-1.4 4.289v11.241h-4.108zm-15.461.586c-1.836 0-3.46-.27-4.876-.812-1.384-.572-2.558-1.385-3.521-2.438-.963-1.054-1.685-2.303-2.167-3.747-.482-1.445-.722-3.07-.722-4.876 0-1.836.24-3.522.722-5.057.482-1.535 1.189-2.874 2.122-4.018a9.177 9.177 0 013.431-2.618c1.354-.632 2.904-.948 4.65-.948 1.535 0 2.935.255 4.199.767a7.834 7.834 0 013.205 2.393c.903 1.053 1.58 2.393 2.032 4.018.451 1.595.632 3.476.541 5.643l-18.329.136v-2.8l15.846-.135-1.4 1.896c.151-1.896-.03-3.46-.54-4.695-.513-1.234-1.25-2.167-2.213-2.799-.933-.632-2.047-.948-3.34-.948-1.385 0-2.604.361-3.658 1.083-1.053.723-1.866 1.761-2.438 3.116-.541 1.354-.812 2.994-.812 4.92 0 2.77.617 4.891 1.85 6.366 1.235 1.445 3.07 2.167 5.509 2.167.933 0 1.745-.105 2.438-.316.722-.24 1.324-.557 1.805-.948a5.033 5.033 0 001.22-1.445 7.098 7.098 0 00.767-1.76l3.612.858a9.525 9.525 0 01-1.265 2.934 7.894 7.894 0 01-2.076 2.167c-.813.602-1.761 1.069-2.844 1.4-1.084.33-2.333.496-3.748.496zM47.407 40c-2.468 0-4.5-.196-6.095-.587-1.565-.361-2.724-.933-3.476-1.715-.752-.753-1.129-1.701-1.129-2.845 0-1.384.542-2.528 1.626-3.43 1.083-.904 2.723-1.506 4.92-1.807v-.812c-1.595 0-2.799-.196-3.611-.587-.813-.392-1.22-.979-1.22-1.761 0-.813.407-1.49 1.22-2.032.812-.572 2.137-1.098 3.973-1.58v-.858c-1.836-.03-3.236-.571-4.199-1.625-.963-1.083-1.445-2.483-1.445-4.198 0-1.536.407-2.86 1.22-3.973.842-1.144 2.046-2.017 3.611-2.619 1.595-.632 3.491-.948 5.688-.948h11.016v3.476l-7.223-1.128v.857c1.745.362 3.085.979 4.018 1.852.933.842 1.4 1.986 1.4 3.43 0 1.295-.377 2.424-1.13 3.387-.752.963-1.865 1.715-3.34 2.257-1.445.512-3.236.767-5.373.767-.42 0-.872-.015-1.354-.045-.451-.06-1.053-.15-1.806-.27-.812.511-1.475.978-1.986 1.399-.482.421-.723.797-.723 1.129 0 .33.226.602.678.812.481.18 1.053.301 1.715.361.662.06 1.28.09 1.851.09h5.282c.602 0 1.355.06 2.258.181.933.12 1.85.377 2.754.768a5.747 5.747 0 012.347 1.806c.632.812.948 1.941.948 3.386 0 1.625-.481 2.95-1.444 3.973-.964 1.023-2.363 1.76-4.199 2.212-1.836.451-4.093.677-6.772.677zm.09-3.386c2.017 0 3.642-.136 4.876-.406 1.264-.241 2.182-.632 2.754-1.174.602-.542.903-1.234.903-2.077 0-.782-.21-1.384-.632-1.806a3.106 3.106 0 00-1.49-.948 7.589 7.589 0 00-1.806-.316c-.602-.06-1.113-.09-1.535-.09h-5.282c-1.745.391-2.95.933-3.612 1.625-.662.692-.993 1.43-.993 2.212 0 .843.301 1.475.903 1.896.602.422 1.415.708 2.438.858a24.74 24.74 0 003.476.226zm.542-15.756c1.896 0 3.326-.392 4.289-1.174.963-.783 1.445-1.836 1.445-3.16 0-1.415-.497-2.574-1.49-3.477-.963-.933-2.423-1.4-4.38-1.4-1.895 0-3.355.437-4.379 1.31-.993.873-1.49 2.002-1.49 3.386 0 .903.226 1.7.678 2.393.481.662 1.158 1.189 2.031 1.58.903.361 2.002.542 3.296.542zM27.452 32.1V8.757h4.109V32.1h-4.109zM29.53 4.694c-.963 0-1.686-.195-2.167-.587-.482-.39-.722-.978-.722-1.76 0-.783.24-1.37.722-1.761C27.844.196 28.55 0 29.484 0c.963 0 1.685.196 2.167.587.481.391.722.978.722 1.76 0 .753-.24 1.34-.722 1.761-.482.392-1.189.587-2.122.587zM9.574 32.099V2.302h4.154V32.1H9.574zM.5 5.914V2.302h22.302v3.612H.5z" fill="#fff"/></svg>