<svg width="30" height="30" fill="none" xmlns="http://www.w3.org/2000/svg"><rect width="30" height="30" rx="10" fill="#CD394B"/><path d="M16.5 6a9 9 0 00-9 9h-3l4 4 4-4h-3c0-3.87 3.13-7 7-7s7 3.13 7 7a6.995 6.995 0 01-11.06 5.7L11 22.14c1.58 1.2 3.5 1.86 5.5 1.86a9 9 0 000-18zm4.29 10.19l-1-.74c.01-.15.01-.3 0-.45.02-.15.02-.3 0-.45l1-.74c.08-.07.11-.19.06-.31l-.91-1.5a.234.234 0 00-.29-.12l-1.15.42c-.23-.18-.5-.33-.76-.45l-.17-1.18a.214.214 0 00-.21-.17H15.6c-.1 0-.21.08-.23.19l-.17 1.19c-.27.12-.53.25-.77.42l-1.12-.45a.23.23 0 00-.28.1l-.9 1.55c-.05.11-.03.22.06.29l1 .76c-.03.3-.03.6 0 .9l-1 .74c-.08.07-.11.19-.06.31l.9 1.5c.05.11.17.16.28.12l1.12-.45c.23.18.49.33.76.45l.18 1.18c.02.11.13.2.23.17h1.8c.1 0 .21-.08.22-.19l.18-1.19c.26-.12.51-.26.75-.42l1.13.45c.1 0 .22 0 .28-.12l.9-1.55c.05-.1.02-.22-.07-.29v.03zm-4.29.31c-.83 0-1.5-.67-1.5-1.5s.67-1.5 1.5-1.5 1.5.67 1.5 1.5c0 .82-.66 1.5-1.5 1.5z" fill="#fff"/></svg>