<svg width="178" height="30" fill="none" xmlns="http://www.w3.org/2000/svg"><path d="M156.796 12.646c-.954.665-2.337.993-4.231.993h-1.878l1.44-7.777h1.381c1.572 0 2.72.253 3.511.767.618.402 1.351 1.2 1.351 2.712 0 1.823-.852 2.803-1.574 3.305zM44.77 22.407H30.236l.94-5.083h9.115l1.036-5.726H32.3l.873-5.032H47.68l-2.91 15.841zM164.625 2.203C162.488.738 159.255 0 155.015 0h-11.103l-4.127 22.408h-14.544l.933-5.084h8.762l1.042-5.71-8.757.016.937-5.062h9.024L138.383 0h-18.331l-3.917 21.257h-6.721L113.36.001h-9.583l-3.918 21.257h-6.553L97.255.001h-9.574l-4.137 22.408H68.897l.923-5.084h8.802l1.037-5.677-8.79-.008.934-5.072h9.124L82.122 0H25.015l-3.25 17.757L15.288 0h-9.94L0 28.979h9.491l3.238-18.246 6.285 18.246h34.02l4.135-22.412h5.323L58.355 28.98h89.516l2.593-14.149 4.203 14.149h9.496l-4.351-11.56.994-.215c2.188-.469 3.902-1.478 5.09-2.991 1.191-1.527 1.796-3.487 1.796-5.842 0-2.742-1.001-4.759-3.067-6.168zm7.826 23.349l1.294-.068c.274-.013.49-.054.641-.119a.673.673 0 00.339-.292.722.722 0 00.099-.414.69.69 0 00-.261-.522c-.163-.131-.415-.185-.752-.17l-1.44.074.08 1.51zm-.478 2.573l-.233-4.558 2.023-.102c.404-.021.713.004.929.076.217.07.392.207.529.408.137.2.214.424.223.675.019.324-.073.6-.27.834-.198.231-.513.39-.947.472.163.07.289.137.375.207.185.152.361.347.53.582l.851 1.2-.752.039-.651-.918a8.544 8.544 0 00-.467-.607 1.37 1.37 0 00-.322-.288.935.935 0 00-.28-.108 1.854 1.854 0 00-.337-.004l-.697.035.101 2.026-.605.03z" fill="#fff"/><path d="M169.999 25.92a3.506 3.506 0 01.906-2.547 3.536 3.536 0 016.155 2.185c.003.06.007.124.007.182a3.545 3.545 0 01-3.357 3.532 3.542 3.542 0 01-3.711-3.353zm3.312-4.436a4.24 4.24 0 00-2.943 1.401 4.233 4.233 0 00-1.092 3.074 4.269 4.269 0 004.473 4.036 4.265 4.265 0 004.034-4.472v-.003a4.263 4.263 0 00-4.472-4.036z" fill="#fff"/></svg>