<svg width="16" height="16" fill="none" xmlns="http://www.w3.org/2000/svg"><path d="M5.053 0c.465 0 .842.377.842.842v.842h3.368V.842a.842.842 0 011.684 0v.842h2.527c.93 0 1.684.754 1.684 1.684v10.948c0 .93-.754 1.684-1.684 1.684H1.684C.754 16 0 15.246 0 14.316V3.368c0-.93.754-1.684 1.684-1.684h2.527V.842c0-.465.377-.842.842-.842zM4.21 3.368H1.684v2.527h11.79V3.368h-2.527v.843a.842.842 0 01-1.684 0v-.843H5.895v.843a.842.842 0 01-1.684 0v-.843zm9.263 4.211H1.684v6.737h11.79V7.579z" fill="#023144"/></svg>