<svg width="493" height="500" fill="none" xmlns="http://www.w3.org/2000/svg"><mask id="a" style="mask-type:alpha" maskUnits="userSpaceOnUse" x="0" y="0" width="493" height="500"><rect width="493" height="500" rx="20" fill="#0B6984"/></mask><g clip-path="url(#clip0_96_1928)" mask="url(#a)"><path d="M18.595 239.646l6.208-6.38 6.207 6.38-6.207 6.38-6.208-6.38z" fill="url(#paint0_linear_96_1928)"/><path d="M14.604 290.28l10.199-10.481L35 290.28l-10.198 10.482-10.199-10.482z" fill="url(#paint1_linear_96_1928)"/><path d="M10.614 340.915l14.189-14.583 14.189 14.583-14.19 14.582-14.188-14.582z" fill="url(#paint2_linear_96_1928)"/><path d="M6.624 391.549l18.179-18.684 18.179 18.684-18.18 18.684-18.178-18.684z" fill="url(#paint3_linear_96_1928)"/><path d="M2.633 442.183l22.17-22.785 22.17 22.785-22.17 22.785-22.17-22.785z" fill="url(#paint4_linear_96_1928)"/><path d="M2.633 492.817l22.17-22.785 22.17 22.785-22.17 22.785-22.17-22.785z" fill="url(#paint5_linear_96_1928)"/><path d="M67.861 239.646l6.208-6.38 6.207 6.38-6.207 6.38-6.208-6.38z" fill="url(#paint6_linear_96_1928)"/><path d="M63.87 290.28l10.199-10.481 10.198 10.481-10.198 10.482L63.87 290.28z" fill="url(#paint7_linear_96_1928)"/><path d="M59.88 340.915l14.189-14.583 14.189 14.583-14.189 14.582-14.189-14.582z" fill="url(#paint8_linear_96_1928)"/><path d="M55.89 391.549l18.179-18.684 18.179 18.684-18.18 18.684-18.178-18.684z" fill="url(#paint9_linear_96_1928)"/><path d="M51.899 442.183l22.17-22.785 22.17 22.785-22.17 22.785-22.17-22.785z" fill="url(#paint10_linear_96_1928)"/><path d="M51.899 492.817l22.17-22.785 22.17 22.785-22.17 22.785-22.17-22.785z" fill="url(#paint11_linear_96_1928)"/><path d="M117.127 239.646l6.208-6.38 6.207 6.38-6.207 6.38-6.208-6.38z" fill="url(#paint12_linear_96_1928)"/><path d="M113.137 290.28l10.198-10.481 10.198 10.481-10.198 10.482-10.198-10.482z" fill="url(#paint13_linear_96_1928)"/><path d="M109.146 340.915l14.189-14.583 14.189 14.583-14.189 14.582-14.189-14.582z" fill="url(#paint14_linear_96_1928)"/><path d="M105.156 391.549l18.179-18.684 18.179 18.684-18.179 18.684-18.179-18.684z" fill="url(#paint15_linear_96_1928)"/><path d="M101.165 442.183l22.17-22.785 22.169 22.785-22.169 22.785-22.17-22.785z" fill="url(#paint16_linear_96_1928)"/><path d="M101.165 492.817l22.17-22.785 22.169 22.785-22.169 22.785-22.17-22.785z" fill="url(#paint17_linear_96_1928)"/><path d="M166.394 239.646l6.207-6.38 6.208 6.38-6.208 6.38-6.207-6.38z" fill="url(#paint18_linear_96_1928)"/><path d="M162.403 290.28l10.198-10.481 10.198 10.481-10.198 10.482-10.198-10.482z" fill="url(#paint19_linear_96_1928)"/><path d="M158.412 340.915l14.189-14.583 14.188 14.583-14.188 14.582-14.189-14.582z" fill="url(#paint20_linear_96_1928)"/><path d="M154.422 391.549l18.179-18.684 18.179 18.684-18.179 18.684-18.179-18.684z" fill="url(#paint21_linear_96_1928)"/><path d="M150.431 442.183l22.17-22.785 22.17 22.785-22.17 22.785-22.17-22.785z" fill="url(#paint22_linear_96_1928)"/><path d="M150.431 492.817l22.17-22.785 22.17 22.785-22.17 22.785-22.17-22.785z" fill="url(#paint23_linear_96_1928)"/><path d="M215.66 239.646l6.207-6.38 6.208 6.38-6.208 6.38-6.207-6.38z" fill="url(#paint24_linear_96_1928)"/><path d="M211.669 290.28l10.198-10.481 10.198 10.481-10.198 10.482-10.198-10.482z" fill="url(#paint25_linear_96_1928)"/><path d="M207.678 340.915l14.189-14.583 14.188 14.583-14.188 14.582-14.189-14.582z" fill="url(#paint26_linear_96_1928)"/><path d="M203.688 391.549l18.179-18.684 18.179 18.684-18.179 18.684-18.179-18.684z" fill="url(#paint27_linear_96_1928)"/><path d="M199.697 442.183l22.17-22.785 22.17 22.785-22.17 22.785-22.17-22.785z" fill="url(#paint28_linear_96_1928)"/><path d="M199.697 492.817l22.17-22.785 22.17 22.785-22.17 22.785-22.17-22.785z" fill="url(#paint29_linear_96_1928)"/><path d="M264.925 239.646l6.208-6.38 6.207 6.38-6.207 6.38-6.208-6.38z" fill="url(#paint30_linear_96_1928)"/><path d="M260.935 290.28l10.198-10.481 10.198 10.481-10.198 10.482-10.198-10.482z" fill="url(#paint31_linear_96_1928)"/><path d="M256.944 340.915l14.189-14.583 14.189 14.583-14.189 14.582-14.189-14.582z" fill="url(#paint32_linear_96_1928)"/><path d="M252.954 391.549l18.179-18.684 18.179 18.684-18.179 18.684-18.179-18.684z" fill="url(#paint33_linear_96_1928)"/><path d="M248.963 442.183l22.17-22.785 22.17 22.785-22.17 22.785-22.17-22.785z" fill="url(#paint34_linear_96_1928)"/><path d="M248.963 492.817l22.17-22.785 22.17 22.785-22.17 22.785-22.17-22.785z" fill="url(#paint35_linear_96_1928)"/><path d="M314.191 239.646l6.208-6.38 6.207 6.38-6.207 6.38-6.208-6.38z" fill="url(#paint36_linear_96_1928)"/><path d="M310.201 290.28l10.198-10.481 10.198 10.481-10.198 10.482-10.198-10.482z" fill="url(#paint37_linear_96_1928)"/><path d="M306.21 340.915l14.189-14.583 14.189 14.583-14.189 14.582-14.189-14.582z" fill="url(#paint38_linear_96_1928)"/><path d="M302.22 391.549l18.179-18.684 18.179 18.684-18.179 18.684-18.179-18.684z" fill="url(#paint39_linear_96_1928)"/><path d="M298.229 442.183l22.17-22.785 22.17 22.785-22.17 22.785-22.17-22.785z" fill="url(#paint40_linear_96_1928)"/><path d="M298.229 492.817l22.17-22.785 22.17 22.785-22.17 22.785-22.17-22.785z" fill="url(#paint41_linear_96_1928)"/><path d="M363.458 239.646l6.207-6.38 6.208 6.38-6.208 6.38-6.207-6.38z" fill="url(#paint42_linear_96_1928)"/><path d="M359.467 290.28l10.198-10.481 10.198 10.481-10.198 10.482-10.198-10.482z" fill="url(#paint43_linear_96_1928)"/><path d="M355.477 340.915l14.188-14.583 14.189 14.583-14.189 14.582-14.188-14.582z" fill="url(#paint44_linear_96_1928)"/><path d="M351.486 391.549l18.179-18.684 18.179 18.684-18.179 18.684-18.179-18.684z" fill="url(#paint45_linear_96_1928)"/><path d="M347.496 442.183l22.169-22.785 22.17 22.785-22.17 22.785-22.169-22.785z" fill="url(#paint46_linear_96_1928)"/><path d="M347.496 492.817l22.169-22.785 22.17 22.785-22.17 22.785-22.169-22.785z" fill="url(#paint47_linear_96_1928)"/><path d="M412.724 239.646l6.207-6.38 6.208 6.38-6.208 6.38-6.207-6.38z" fill="url(#paint48_linear_96_1928)"/><path d="M408.733 290.28l10.198-10.481 10.198 10.481-10.198 10.482-10.198-10.482z" fill="url(#paint49_linear_96_1928)"/><path d="M404.743 340.915l14.188-14.583 14.189 14.583-14.189 14.582-14.188-14.582z" fill="url(#paint50_linear_96_1928)"/><path d="M400.752 391.549l18.179-18.684 18.179 18.684-18.179 18.684-18.179-18.684z" fill="url(#paint51_linear_96_1928)"/><path d="M396.762 442.183l22.169-22.785 22.17 22.785-22.17 22.785-22.169-22.785z" fill="url(#paint52_linear_96_1928)"/><path d="M396.762 492.817l22.169-22.785 22.17 22.785-22.17 22.785-22.169-22.785z" fill="url(#paint53_linear_96_1928)"/><path d="M461.99 239.646l6.207-6.38 6.208 6.38-6.208 6.38-6.207-6.38z" fill="url(#paint54_linear_96_1928)"/><path d="M457.999 290.28l10.198-10.481 10.198 10.481-10.198 10.482-10.198-10.482z" fill="url(#paint55_linear_96_1928)"/><path d="M454.009 340.915l14.188-14.583 14.189 14.583-14.189 14.582-14.188-14.582z" fill="url(#paint56_linear_96_1928)"/><path d="M450.018 391.549l18.179-18.684 18.179 18.684-18.179 18.684-18.179-18.684z" fill="url(#paint57_linear_96_1928)"/><path d="M446.027 442.183l22.17-22.785 22.17 22.785-22.17 22.785-22.17-22.785z" fill="url(#paint58_linear_96_1928)"/><path d="M446.027 492.817l22.17-22.785 22.17 22.785-22.17 22.785-22.17-22.785z" fill="url(#paint59_linear_96_1928)"/><path d="M-4.042 214.329L.17 210l4.212 4.329-4.212 4.329-4.212-4.329z" fill="url(#paint60_linear_96_1928)"/><path d="M-8.033 264.963l8.203-8.43 8.202 8.43-8.202 8.431-8.203-8.431z" fill="url(#paint61_linear_96_1928)"/><path d="M-12.023 315.598L.17 303.066l12.193 12.532L.17 328.129l-12.193-12.531z" fill="url(#paint62_linear_96_1928)"/><path d="M-16.014 366.232L.17 349.598l16.184 16.634L.17 382.865l-16.184-16.633z" fill="url(#paint63_linear_96_1928)"/><path d="M-20.005 416.866L.17 396.131l20.199 20.735-20.2 20.76-20.174-20.76z" fill="url(#paint64_linear_96_1928)"/><path d="M-22 467.5L.17 444.715 22.34 467.5.17 490.285-22 467.5z" fill="url(#paint65_linear_96_1928)"/><path d="M-20.005 518.134l20.2-20.76 20.198 20.76L.17 538.894l-20.175-20.76z" fill="url(#paint66_linear_96_1928)"/><path d="M45.224 214.329L49.436 210l4.212 4.329-4.212 4.329-4.212-4.329z" fill="url(#paint67_linear_96_1928)"/><path d="M41.233 264.963l8.203-8.43 8.203 8.43-8.203 8.431-8.203-8.431z" fill="url(#paint68_linear_96_1928)"/><path d="M37.243 315.598l12.193-12.532 12.193 12.532-12.193 12.531-12.193-12.531z" fill="url(#paint69_linear_96_1928)"/><path d="M33.252 366.232l16.184-16.634 16.184 16.634-16.184 16.633-16.184-16.633z" fill="url(#paint70_linear_96_1928)"/><path d="M29.261 416.866l20.2-20.735 20.174 20.735-20.2 20.76-20.174-20.76z" fill="url(#paint71_linear_96_1928)"/><path d="M27.266 467.5l22.17-22.785 22.17 22.785-22.17 22.785-22.17-22.785z" fill="url(#paint72_linear_96_1928)"/><path d="M29.261 518.134l20.2-20.76 20.174 20.76-20.2 20.76-20.174-20.76z" fill="url(#paint73_linear_96_1928)"/><path d="M94.49 214.329L98.702 210l4.212 4.329-4.212 4.329-4.212-4.329z" fill="url(#paint74_linear_96_1928)"/><path d="M90.499 264.963l8.203-8.43 8.203 8.43-8.203 8.431-8.203-8.431z" fill="url(#paint75_linear_96_1928)"/><path d="M86.508 315.598l12.194-12.532 12.193 12.532-12.193 12.531-12.194-12.531z" fill="url(#paint76_linear_96_1928)"/><path d="M82.518 366.232l16.184-16.634 16.184 16.634-16.184 16.633-16.184-16.633z" fill="url(#paint77_linear_96_1928)"/><path d="M78.527 416.866l20.175-20.735 20.199 20.735-20.2 20.76-20.174-20.76z" fill="url(#paint78_linear_96_1928)"/><path d="M76.532 467.5l22.17-22.785 22.17 22.785-22.17 22.785-22.17-22.785z" fill="url(#paint79_linear_96_1928)"/><path d="M78.527 518.134l20.175-20.76 20.199 20.76-20.2 20.76-20.174-20.76z" fill="url(#paint80_linear_96_1928)"/><path d="M143.756 214.329l4.212-4.329 4.212 4.329-4.212 4.329-4.212-4.329z" fill="url(#paint81_linear_96_1928)"/><path d="M139.765 264.963l8.203-8.43 8.203 8.43-8.203 8.431-8.203-8.431z" fill="url(#paint82_linear_96_1928)"/><path d="M135.774 315.598l12.194-12.532 12.193 12.532-12.193 12.531-12.194-12.531z" fill="url(#paint83_linear_96_1928)"/><path d="M131.784 366.232l16.184-16.634 16.184 16.634-16.184 16.633-16.184-16.633z" fill="url(#paint84_linear_96_1928)"/><path d="M127.793 416.866l20.175-20.735 20.199 20.735-20.199 20.76-20.175-20.76z" fill="url(#paint85_linear_96_1928)"/><path d="M125.798 467.5l22.17-22.785 22.17 22.785-22.17 22.785-22.17-22.785z" fill="url(#paint86_linear_96_1928)"/><path d="M127.793 518.134l20.175-20.76 20.199 20.76-20.199 20.76-20.175-20.76z" fill="url(#paint87_linear_96_1928)"/><path d="M193.021 214.329l4.213-4.329 4.212 4.329-4.212 4.329-4.213-4.329z" fill="url(#paint88_linear_96_1928)"/><path d="M189.031 264.963l8.203-8.43 8.203 8.43-8.203 8.431-8.203-8.431z" fill="url(#paint89_linear_96_1928)"/><path d="M185.041 315.598l12.193-12.532 12.193 12.532-12.193 12.531-12.193-12.531z" fill="url(#paint90_linear_96_1928)"/><path d="M181.05 366.232l16.184-16.634 16.184 16.634-16.184 16.633-16.184-16.633z" fill="url(#paint91_linear_96_1928)"/><path d="M177.06 416.866l20.174-20.735 20.199 20.735-20.199 20.76-20.174-20.76z" fill="url(#paint92_linear_96_1928)"/><path d="M175.064 467.5l22.17-22.785 22.17 22.785-22.17 22.785-22.17-22.785z" fill="url(#paint93_linear_96_1928)"/><path d="M177.06 518.134l20.174-20.76 20.199 20.76-20.199 20.76-20.174-20.76z" fill="url(#paint94_linear_96_1928)"/><path d="M242.288 214.329L246.5 210l4.212 4.329-4.212 4.329-4.212-4.329z" fill="url(#paint95_linear_96_1928)"/><path d="M238.297 264.963l8.203-8.43 8.203 8.43-8.203 8.431-8.203-8.431z" fill="url(#paint96_linear_96_1928)"/><path d="M234.307 315.598l12.193-12.532 12.193 12.532-12.193 12.531-12.193-12.531z" fill="url(#paint97_linear_96_1928)"/><path d="M230.316 366.232l16.184-16.634 16.184 16.634-16.184 16.633-16.184-16.633z" fill="url(#paint98_linear_96_1928)"/><path d="M226.326 416.866l20.174-20.735 20.199 20.735-20.199 20.76-20.174-20.76z" fill="url(#paint99_linear_96_1928)"/><path d="M224.33 467.5l22.17-22.785 22.17 22.785-22.17 22.785-22.17-22.785z" fill="url(#paint100_linear_96_1928)"/><path d="M226.326 518.134l20.174-20.76 20.199 20.76-20.199 20.76-20.174-20.76z" fill="url(#paint101_linear_96_1928)"/><path d="M291.554 214.329l4.212-4.329 4.212 4.329-4.212 4.329-4.212-4.329z" fill="url(#paint102_linear_96_1928)"/><path d="M287.563 264.963l8.203-8.43 8.203 8.43-8.203 8.431-8.203-8.431z" fill="url(#paint103_linear_96_1928)"/><path d="M283.573 315.598l12.193-12.532 12.193 12.532-12.193 12.531-12.193-12.531z" fill="url(#paint104_linear_96_1928)"/><path d="M279.582 366.232l16.184-16.634 16.184 16.634-16.184 16.633-16.184-16.633z" fill="url(#paint105_linear_96_1928)"/><path d="M275.592 416.866l20.199-20.735 20.174 20.735-20.199 20.76-20.174-20.76z" fill="url(#paint106_linear_96_1928)"/><path d="M273.596 467.5l22.17-22.785 22.17 22.785-22.17 22.785-22.17-22.785z" fill="url(#paint107_linear_96_1928)"/><path d="M275.592 518.134l20.199-20.76 20.199 20.76-20.199 20.76-20.199-20.76z" fill="url(#paint108_linear_96_1928)"/><path d="M340.82 214.329l4.212-4.329 4.212 4.329-4.212 4.329-4.212-4.329z" fill="url(#paint109_linear_96_1928)"/><path d="M336.829 264.963l8.203-8.43 8.203 8.43-8.203 8.431-8.203-8.431z" fill="url(#paint110_linear_96_1928)"/><path d="M332.839 315.598l12.193-12.532 12.194 12.532-12.194 12.531-12.193-12.531z" fill="url(#paint111_linear_96_1928)"/><path d="M328.848 366.232l16.184-16.634 16.184 16.634-16.184 16.633-16.184-16.633z" fill="url(#paint112_linear_96_1928)"/><path d="M324.857 416.866l20.2-20.735 20.174 20.735-20.199 20.76-20.175-20.76z" fill="url(#paint113_linear_96_1928)"/><path d="M322.862 467.5l22.17-22.785 22.17 22.785-22.17 22.785-22.17-22.785z" fill="url(#paint114_linear_96_1928)"/><path d="M324.857 518.134l20.2-20.76 20.199 20.76-20.199 20.76-20.2-20.76z" fill="url(#paint115_linear_96_1928)"/><path d="M390.086 214.329l4.212-4.329 4.212 4.329-4.212 4.329-4.212-4.329z" fill="url(#paint116_linear_96_1928)"/><path d="M386.095 264.963l8.203-8.43 8.203 8.43-8.203 8.431-8.203-8.431z" fill="url(#paint117_linear_96_1928)"/><path d="M382.105 315.598l12.193-12.532 12.194 12.532-12.194 12.531-12.193-12.531z" fill="url(#paint118_linear_96_1928)"/><path d="M378.114 366.232l16.184-16.634 16.184 16.634-16.184 16.633-16.184-16.633z" fill="url(#paint119_linear_96_1928)"/><path d="M374.124 416.866l20.199-20.735 20.174 20.735-20.199 20.76-20.174-20.76z" fill="url(#paint120_linear_96_1928)"/><path d="M372.128 467.5l22.17-22.785 22.17 22.785-22.17 22.785-22.17-22.785z" fill="url(#paint121_linear_96_1928)"/><path d="M374.124 518.134l20.199-20.76 20.199 20.76-20.199 20.76-20.199-20.76z" fill="url(#paint122_linear_96_1928)"/><path d="M439.352 214.329l4.212-4.329 4.213 4.329-4.213 4.329-4.212-4.329z" fill="url(#paint123_linear_96_1928)"/><path d="M435.361 264.963l8.203-8.43 8.203 8.43-8.203 8.431-8.203-8.431z" fill="url(#paint124_linear_96_1928)"/><path d="M431.371 315.598l12.193-12.532 12.194 12.532-12.194 12.531-12.193-12.531z" fill="url(#paint125_linear_96_1928)"/><path d="M427.38 366.232l16.184-16.634 16.184 16.634-16.184 16.633-16.184-16.633z" fill="url(#paint126_linear_96_1928)"/><path d="M423.39 416.866l20.199-20.735 20.174 20.735-20.199 20.76-20.174-20.76z" fill="url(#paint127_linear_96_1928)"/><path d="M421.395 467.5l22.169-22.785 22.17 22.785-22.17 22.785-22.169-22.785z" fill="url(#paint128_linear_96_1928)"/><path d="M423.39 518.134l20.199-20.76 20.199 20.76-20.199 20.76-20.199-20.76z" fill="url(#paint129_linear_96_1928)"/><path d="M488.618 214.329L492.83 210l4.213 4.329-4.213 4.329-4.212-4.329z" fill="url(#paint130_linear_96_1928)"/><path d="M484.627 264.963l8.203-8.43 8.203 8.43-8.203 8.431-8.203-8.431z" fill="url(#paint131_linear_96_1928)"/><path d="M480.637 315.598l12.193-12.532 12.193 12.532-12.193 12.531-12.193-12.531z" fill="url(#paint132_linear_96_1928)"/><path d="M476.646 366.232l16.184-16.634 16.184 16.634-16.184 16.633-16.184-16.633z" fill="url(#paint133_linear_96_1928)"/><path d="M472.656 416.866l20.199-20.735 20.174 20.735-20.199 20.76-20.174-20.76z" fill="url(#paint134_linear_96_1928)"/><path d="M470.661 467.5l22.169-22.785L515 467.5l-22.17 22.785-22.169-22.785z" fill="url(#paint135_linear_96_1928)"/><path d="M472.656 518.134l20.199-20.76 20.199 20.76-20.199 20.76-20.199-20.76z" fill="url(#paint136_linear_96_1928)"/></g><defs><linearGradient id="paint0_linear_96_1928" x1="24.803" y1="246.026" x2="24.803" y2="239.646" gradientUnits="userSpaceOnUse"><stop stop-color="#023144"/><stop offset="1" stop-color="#0B6984"/></linearGradient><linearGradient id="paint1_linear_96_1928" x1="24.803" y1="300.762" x2="24.803" y2="290.28" gradientUnits="userSpaceOnUse"><stop stop-color="#023144"/><stop offset="1" stop-color="#0B6984"/></linearGradient><linearGradient id="paint2_linear_96_1928" x1="24.803" y1="355.497" x2="24.803" y2="340.915" gradientUnits="userSpaceOnUse"><stop stop-color="#023144"/><stop offset="1" stop-color="#0B6984"/></linearGradient><linearGradient id="paint3_linear_96_1928" x1="24.803" y1="410.233" x2="24.803" y2="391.549" gradientUnits="userSpaceOnUse"><stop stop-color="#023144"/><stop offset="1" stop-color="#0B6984"/></linearGradient><linearGradient id="paint4_linear_96_1928" x1="24.802" y1="464.968" x2="24.802" y2="442.183" gradientUnits="userSpaceOnUse"><stop stop-color="#023144"/><stop offset="1" stop-color="#0B6984"/></linearGradient><linearGradient id="paint5_linear_96_1928" x1="24.802" y1="515.602" x2="24.802" y2="492.817" gradientUnits="userSpaceOnUse"><stop stop-color="#023144"/><stop offset="1" stop-color="#0B6984"/></linearGradient><linearGradient id="paint6_linear_96_1928" x1="74.069" y1="246.026" x2="74.069" y2="239.646" gradientUnits="userSpaceOnUse"><stop stop-color="#023144"/><stop offset="1" stop-color="#0B6984"/></linearGradient><linearGradient id="paint7_linear_96_1928" x1="74.069" y1="300.762" x2="74.069" y2="290.28" gradientUnits="userSpaceOnUse"><stop stop-color="#023144"/><stop offset="1" stop-color="#0B6984"/></linearGradient><linearGradient id="paint8_linear_96_1928" x1="74.069" y1="355.497" x2="74.069" y2="340.915" gradientUnits="userSpaceOnUse"><stop stop-color="#023144"/><stop offset="1" stop-color="#0B6984"/></linearGradient><linearGradient id="paint9_linear_96_1928" x1="74.069" y1="410.233" x2="74.069" y2="391.549" gradientUnits="userSpaceOnUse"><stop stop-color="#023144"/><stop offset="1" stop-color="#0B6984"/></linearGradient><linearGradient id="paint10_linear_96_1928" x1="74.069" y1="464.968" x2="74.069" y2="442.183" gradientUnits="userSpaceOnUse"><stop stop-color="#023144"/><stop offset="1" stop-color="#0B6984"/></linearGradient><linearGradient id="paint11_linear_96_1928" x1="74.069" y1="515.602" x2="74.069" y2="492.817" gradientUnits="userSpaceOnUse"><stop stop-color="#023144"/><stop offset="1" stop-color="#0B6984"/></linearGradient><linearGradient id="paint12_linear_96_1928" x1="123.335" y1="246.026" x2="123.335" y2="239.646" gradientUnits="userSpaceOnUse"><stop stop-color="#023144"/><stop offset="1" stop-color="#0B6984"/></linearGradient><linearGradient id="paint13_linear_96_1928" x1="123.335" y1="300.762" x2="123.335" y2="290.28" gradientUnits="userSpaceOnUse"><stop stop-color="#023144"/><stop offset="1" stop-color="#0B6984"/></linearGradient><linearGradient id="paint14_linear_96_1928" x1="123.335" y1="355.497" x2="123.335" y2="340.915" gradientUnits="userSpaceOnUse"><stop stop-color="#023144"/><stop offset="1" stop-color="#0B6984"/></linearGradient><linearGradient id="paint15_linear_96_1928" x1="123.335" y1="410.233" x2="123.335" y2="391.549" gradientUnits="userSpaceOnUse"><stop stop-color="#023144"/><stop offset="1" stop-color="#0B6984"/></linearGradient><linearGradient id="paint16_linear_96_1928" x1="123.335" y1="464.968" x2="123.335" y2="442.183" gradientUnits="userSpaceOnUse"><stop stop-color="#023144"/><stop offset="1" stop-color="#0B6984"/></linearGradient><linearGradient id="paint17_linear_96_1928" x1="123.335" y1="515.602" x2="123.335" y2="492.817" gradientUnits="userSpaceOnUse"><stop stop-color="#023144"/><stop offset="1" stop-color="#0B6984"/></linearGradient><linearGradient id="paint18_linear_96_1928" x1="172.601" y1="246.026" x2="172.601" y2="239.646" gradientUnits="userSpaceOnUse"><stop stop-color="#023144"/><stop offset="1" stop-color="#0B6984"/></linearGradient><linearGradient id="paint19_linear_96_1928" x1="172.601" y1="300.762" x2="172.601" y2="290.28" gradientUnits="userSpaceOnUse"><stop stop-color="#023144"/><stop offset="1" stop-color="#0B6984"/></linearGradient><linearGradient id="paint20_linear_96_1928" x1="172.601" y1="355.497" x2="172.601" y2="340.915" gradientUnits="userSpaceOnUse"><stop stop-color="#023144"/><stop offset="1" stop-color="#0B6984"/></linearGradient><linearGradient id="paint21_linear_96_1928" x1="172.601" y1="410.233" x2="172.601" y2="391.549" gradientUnits="userSpaceOnUse"><stop stop-color="#023144"/><stop offset="1" stop-color="#0B6984"/></linearGradient><linearGradient id="paint22_linear_96_1928" x1="172.601" y1="464.968" x2="172.601" y2="442.183" gradientUnits="userSpaceOnUse"><stop stop-color="#023144"/><stop offset="1" stop-color="#0B6984"/></linearGradient><linearGradient id="paint23_linear_96_1928" x1="172.601" y1="515.602" x2="172.601" y2="492.817" gradientUnits="userSpaceOnUse"><stop stop-color="#023144"/><stop offset="1" stop-color="#0B6984"/></linearGradient><linearGradient id="paint24_linear_96_1928" x1="221.867" y1="246.026" x2="221.867" y2="239.646" gradientUnits="userSpaceOnUse"><stop stop-color="#023144"/><stop offset="1" stop-color="#0B6984"/></linearGradient><linearGradient id="paint25_linear_96_1928" x1="221.867" y1="300.762" x2="221.867" y2="290.28" gradientUnits="userSpaceOnUse"><stop stop-color="#023144"/><stop offset="1" stop-color="#0B6984"/></linearGradient><linearGradient id="paint26_linear_96_1928" x1="221.867" y1="355.497" x2="221.867" y2="340.915" gradientUnits="userSpaceOnUse"><stop stop-color="#023144"/><stop offset="1" stop-color="#0B6984"/></linearGradient><linearGradient id="paint27_linear_96_1928" x1="221.867" y1="410.233" x2="221.867" y2="391.549" gradientUnits="userSpaceOnUse"><stop stop-color="#023144"/><stop offset="1" stop-color="#0B6984"/></linearGradient><linearGradient id="paint28_linear_96_1928" x1="221.867" y1="464.968" x2="221.867" y2="442.183" gradientUnits="userSpaceOnUse"><stop stop-color="#023144"/><stop offset="1" stop-color="#0B6984"/></linearGradient><linearGradient id="paint29_linear_96_1928" x1="221.867" y1="515.602" x2="221.867" y2="492.817" gradientUnits="userSpaceOnUse"><stop stop-color="#023144"/><stop offset="1" stop-color="#0B6984"/></linearGradient><linearGradient id="paint30_linear_96_1928" x1="271.133" y1="246.026" x2="271.133" y2="239.646" gradientUnits="userSpaceOnUse"><stop stop-color="#023144"/><stop offset="1" stop-color="#0B6984"/></linearGradient><linearGradient id="paint31_linear_96_1928" x1="271.133" y1="300.762" x2="271.133" y2="290.28" gradientUnits="userSpaceOnUse"><stop stop-color="#023144"/><stop offset="1" stop-color="#0B6984"/></linearGradient><linearGradient id="paint32_linear_96_1928" x1="271.133" y1="355.497" x2="271.133" y2="340.915" gradientUnits="userSpaceOnUse"><stop stop-color="#023144"/><stop offset="1" stop-color="#0B6984"/></linearGradient><linearGradient id="paint33_linear_96_1928" x1="271.133" y1="410.233" x2="271.133" y2="391.549" gradientUnits="userSpaceOnUse"><stop stop-color="#023144"/><stop offset="1" stop-color="#0B6984"/></linearGradient><linearGradient id="paint34_linear_96_1928" x1="271.133" y1="464.968" x2="271.133" y2="442.183" gradientUnits="userSpaceOnUse"><stop stop-color="#023144"/><stop offset="1" stop-color="#0B6984"/></linearGradient><linearGradient id="paint35_linear_96_1928" x1="271.133" y1="515.602" x2="271.133" y2="492.817" gradientUnits="userSpaceOnUse"><stop stop-color="#023144"/><stop offset="1" stop-color="#0B6984"/></linearGradient><linearGradient id="paint36_linear_96_1928" x1="320.399" y1="246.026" x2="320.399" y2="239.646" gradientUnits="userSpaceOnUse"><stop stop-color="#023144"/><stop offset="1" stop-color="#0B6984"/></linearGradient><linearGradient id="paint37_linear_96_1928" x1="320.399" y1="300.762" x2="320.399" y2="290.28" gradientUnits="userSpaceOnUse"><stop stop-color="#023144"/><stop offset="1" stop-color="#0B6984"/></linearGradient><linearGradient id="paint38_linear_96_1928" x1="320.399" y1="355.497" x2="320.399" y2="340.915" gradientUnits="userSpaceOnUse"><stop stop-color="#023144"/><stop offset="1" stop-color="#0B6984"/></linearGradient><linearGradient id="paint39_linear_96_1928" x1="320.399" y1="410.233" x2="320.399" y2="391.549" gradientUnits="userSpaceOnUse"><stop stop-color="#023144"/><stop offset="1" stop-color="#0B6984"/></linearGradient><linearGradient id="paint40_linear_96_1928" x1="320.399" y1="464.968" x2="320.399" y2="442.183" gradientUnits="userSpaceOnUse"><stop stop-color="#023144"/><stop offset="1" stop-color="#0B6984"/></linearGradient><linearGradient id="paint41_linear_96_1928" x1="320.399" y1="515.602" x2="320.399" y2="492.817" gradientUnits="userSpaceOnUse"><stop stop-color="#023144"/><stop offset="1" stop-color="#0B6984"/></linearGradient><linearGradient id="paint42_linear_96_1928" x1="369.665" y1="246.026" x2="369.665" y2="239.646" gradientUnits="userSpaceOnUse"><stop stop-color="#023144"/><stop offset="1" stop-color="#0B6984"/></linearGradient><linearGradient id="paint43_linear_96_1928" x1="369.665" y1="300.762" x2="369.665" y2="290.28" gradientUnits="userSpaceOnUse"><stop stop-color="#023144"/><stop offset="1" stop-color="#0B6984"/></linearGradient><linearGradient id="paint44_linear_96_1928" x1="369.665" y1="355.497" x2="369.665" y2="340.915" gradientUnits="userSpaceOnUse"><stop stop-color="#023144"/><stop offset="1" stop-color="#0B6984"/></linearGradient><linearGradient id="paint45_linear_96_1928" x1="369.665" y1="410.233" x2="369.665" y2="391.549" gradientUnits="userSpaceOnUse"><stop stop-color="#023144"/><stop offset="1" stop-color="#0B6984"/></linearGradient><linearGradient id="paint46_linear_96_1928" x1="369.665" y1="464.968" x2="369.665" y2="442.183" gradientUnits="userSpaceOnUse"><stop stop-color="#023144"/><stop offset="1" stop-color="#0B6984"/></linearGradient><linearGradient id="paint47_linear_96_1928" x1="369.665" y1="515.602" x2="369.665" y2="492.817" gradientUnits="userSpaceOnUse"><stop stop-color="#023144"/><stop offset="1" stop-color="#0B6984"/></linearGradient><linearGradient id="paint48_linear_96_1928" x1="418.931" y1="246.026" x2="418.931" y2="239.646" gradientUnits="userSpaceOnUse"><stop stop-color="#023144"/><stop offset="1" stop-color="#0B6984"/></linearGradient><linearGradient id="paint49_linear_96_1928" x1="418.931" y1="300.762" x2="418.931" y2="290.28" gradientUnits="userSpaceOnUse"><stop stop-color="#023144"/><stop offset="1" stop-color="#0B6984"/></linearGradient><linearGradient id="paint50_linear_96_1928" x1="418.931" y1="355.497" x2="418.931" y2="340.915" gradientUnits="userSpaceOnUse"><stop stop-color="#023144"/><stop offset="1" stop-color="#0B6984"/></linearGradient><linearGradient id="paint51_linear_96_1928" x1="418.931" y1="410.233" x2="418.931" y2="391.549" gradientUnits="userSpaceOnUse"><stop stop-color="#023144"/><stop offset="1" stop-color="#0B6984"/></linearGradient><linearGradient id="paint52_linear_96_1928" x1="418.931" y1="464.968" x2="418.931" y2="442.183" gradientUnits="userSpaceOnUse"><stop stop-color="#023144"/><stop offset="1" stop-color="#0B6984"/></linearGradient><linearGradient id="paint53_linear_96_1928" x1="418.931" y1="515.602" x2="418.931" y2="492.817" gradientUnits="userSpaceOnUse"><stop stop-color="#023144"/><stop offset="1" stop-color="#0B6984"/></linearGradient><linearGradient id="paint54_linear_96_1928" x1="468.197" y1="246.026" x2="468.197" y2="239.646" gradientUnits="userSpaceOnUse"><stop stop-color="#023144"/><stop offset="1" stop-color="#0B6984"/></linearGradient><linearGradient id="paint55_linear_96_1928" x1="468.197" y1="300.762" x2="468.197" y2="290.28" gradientUnits="userSpaceOnUse"><stop stop-color="#023144"/><stop offset="1" stop-color="#0B6984"/></linearGradient><linearGradient id="paint56_linear_96_1928" x1="468.197" y1="355.497" x2="468.197" y2="340.915" gradientUnits="userSpaceOnUse"><stop stop-color="#023144"/><stop offset="1" stop-color="#0B6984"/></linearGradient><linearGradient id="paint57_linear_96_1928" x1="468.197" y1="410.233" x2="468.197" y2="391.549" gradientUnits="userSpaceOnUse"><stop stop-color="#023144"/><stop offset="1" stop-color="#0B6984"/></linearGradient><linearGradient id="paint58_linear_96_1928" x1="468.197" y1="464.968" x2="468.197" y2="442.183" gradientUnits="userSpaceOnUse"><stop stop-color="#023144"/><stop offset="1" stop-color="#0B6984"/></linearGradient><linearGradient id="paint59_linear_96_1928" x1="468.197" y1="515.602" x2="468.197" y2="492.817" gradientUnits="userSpaceOnUse"><stop stop-color="#023144"/><stop offset="1" stop-color="#0B6984"/></linearGradient><linearGradient id="paint60_linear_96_1928" x1=".17" y1="218.658" x2=".17" y2="214.329" gradientUnits="userSpaceOnUse"><stop stop-color="#023144"/><stop offset="1" stop-color="#0B6984"/></linearGradient><linearGradient id="paint61_linear_96_1928" x1=".17" y1="273.394" x2=".17" y2="264.963" gradientUnits="userSpaceOnUse"><stop stop-color="#023144"/><stop offset="1" stop-color="#0B6984"/></linearGradient><linearGradient id="paint62_linear_96_1928" x1=".17" y1="328.129" x2=".17" y2="315.598" gradientUnits="userSpaceOnUse"><stop stop-color="#023144"/><stop offset="1" stop-color="#0B6984"/></linearGradient><linearGradient id="paint63_linear_96_1928" x1=".17" y1="382.865" x2=".17" y2="366.232" gradientUnits="userSpaceOnUse"><stop stop-color="#023144"/><stop offset="1" stop-color="#0B6984"/></linearGradient><linearGradient id="paint64_linear_96_1928" x1=".182" y1="437.626" x2=".182" y2="416.878" gradientUnits="userSpaceOnUse"><stop stop-color="#023144"/><stop offset="1" stop-color="#0B6984"/></linearGradient><linearGradient id="paint65_linear_96_1928" x1=".17" y1="490.285" x2=".17" y2="467.5" gradientUnits="userSpaceOnUse"><stop stop-color="#023144"/><stop offset="1" stop-color="#0B6984"/></linearGradient><linearGradient id="paint66_linear_96_1928" x1=".194" y1="538.894" x2=".194" y2="518.134" gradientUnits="userSpaceOnUse"><stop stop-color="#023144"/><stop offset="1" stop-color="#0B6984"/></linearGradient><linearGradient id="paint67_linear_96_1928" x1="49.436" y1="218.658" x2="49.436" y2="214.329" gradientUnits="userSpaceOnUse"><stop stop-color="#023144"/><stop offset="1" stop-color="#0B6984"/></linearGradient><linearGradient id="paint68_linear_96_1928" x1="49.436" y1="273.394" x2="49.436" y2="264.963" gradientUnits="userSpaceOnUse"><stop stop-color="#023144"/><stop offset="1" stop-color="#0B6984"/></linearGradient><linearGradient id="paint69_linear_96_1928" x1="49.436" y1="328.129" x2="49.436" y2="315.598" gradientUnits="userSpaceOnUse"><stop stop-color="#023144"/><stop offset="1" stop-color="#0B6984"/></linearGradient><linearGradient id="paint70_linear_96_1928" x1="49.436" y1="382.865" x2="49.436" y2="366.232" gradientUnits="userSpaceOnUse"><stop stop-color="#023144"/><stop offset="1" stop-color="#0B6984"/></linearGradient><linearGradient id="paint71_linear_96_1928" x1="49.448" y1="437.626" x2="49.448" y2="416.878" gradientUnits="userSpaceOnUse"><stop stop-color="#023144"/><stop offset="1" stop-color="#0B6984"/></linearGradient><linearGradient id="paint72_linear_96_1928" x1="49.436" y1="490.285" x2="49.436" y2="467.5" gradientUnits="userSpaceOnUse"><stop stop-color="#023144"/><stop offset="1" stop-color="#0B6984"/></linearGradient><linearGradient id="paint73_linear_96_1928" x1="49.448" y1="538.894" x2="49.448" y2="518.134" gradientUnits="userSpaceOnUse"><stop stop-color="#023144"/><stop offset="1" stop-color="#0B6984"/></linearGradient><linearGradient id="paint74_linear_96_1928" x1="98.702" y1="218.658" x2="98.702" y2="214.329" gradientUnits="userSpaceOnUse"><stop stop-color="#023144"/><stop offset="1" stop-color="#0B6984"/></linearGradient><linearGradient id="paint75_linear_96_1928" x1="98.702" y1="273.394" x2="98.702" y2="264.963" gradientUnits="userSpaceOnUse"><stop stop-color="#023144"/><stop offset="1" stop-color="#0B6984"/></linearGradient><linearGradient id="paint76_linear_96_1928" x1="98.702" y1="328.129" x2="98.702" y2="315.598" gradientUnits="userSpaceOnUse"><stop stop-color="#023144"/><stop offset="1" stop-color="#0B6984"/></linearGradient><linearGradient id="paint77_linear_96_1928" x1="98.702" y1="382.865" x2="98.702" y2="366.232" gradientUnits="userSpaceOnUse"><stop stop-color="#023144"/><stop offset="1" stop-color="#0B6984"/></linearGradient><linearGradient id="paint78_linear_96_1928" x1="98.714" y1="437.626" x2="98.714" y2="416.878" gradientUnits="userSpaceOnUse"><stop stop-color="#023144"/><stop offset="1" stop-color="#0B6984"/></linearGradient><linearGradient id="paint79_linear_96_1928" x1="98.702" y1="490.285" x2="98.702" y2="467.5" gradientUnits="userSpaceOnUse"><stop stop-color="#023144"/><stop offset="1" stop-color="#0B6984"/></linearGradient><linearGradient id="paint80_linear_96_1928" x1="98.714" y1="538.894" x2="98.714" y2="518.134" gradientUnits="userSpaceOnUse"><stop stop-color="#023144"/><stop offset="1" stop-color="#0B6984"/></linearGradient><linearGradient id="paint81_linear_96_1928" x1="147.968" y1="218.658" x2="147.968" y2="214.329" gradientUnits="userSpaceOnUse"><stop stop-color="#023144"/><stop offset="1" stop-color="#0B6984"/></linearGradient><linearGradient id="paint82_linear_96_1928" x1="147.968" y1="273.394" x2="147.968" y2="264.963" gradientUnits="userSpaceOnUse"><stop stop-color="#023144"/><stop offset="1" stop-color="#0B6984"/></linearGradient><linearGradient id="paint83_linear_96_1928" x1="147.968" y1="328.129" x2="147.968" y2="315.598" gradientUnits="userSpaceOnUse"><stop stop-color="#023144"/><stop offset="1" stop-color="#0B6984"/></linearGradient><linearGradient id="paint84_linear_96_1928" x1="147.968" y1="382.865" x2="147.968" y2="366.232" gradientUnits="userSpaceOnUse"><stop stop-color="#023144"/><stop offset="1" stop-color="#0B6984"/></linearGradient><linearGradient id="paint85_linear_96_1928" x1="147.98" y1="437.626" x2="147.98" y2="416.878" gradientUnits="userSpaceOnUse"><stop stop-color="#023144"/><stop offset="1" stop-color="#0B6984"/></linearGradient><linearGradient id="paint86_linear_96_1928" x1="147.968" y1="490.285" x2="147.968" y2="467.5" gradientUnits="userSpaceOnUse"><stop stop-color="#023144"/><stop offset="1" stop-color="#0B6984"/></linearGradient><linearGradient id="paint87_linear_96_1928" x1="147.98" y1="538.894" x2="147.98" y2="518.134" gradientUnits="userSpaceOnUse"><stop stop-color="#023144"/><stop offset="1" stop-color="#0B6984"/></linearGradient><linearGradient id="paint88_linear_96_1928" x1="197.234" y1="218.658" x2="197.234" y2="214.329" gradientUnits="userSpaceOnUse"><stop stop-color="#023144"/><stop offset="1" stop-color="#0B6984"/></linearGradient><linearGradient id="paint89_linear_96_1928" x1="197.234" y1="273.394" x2="197.234" y2="264.963" gradientUnits="userSpaceOnUse"><stop stop-color="#023144"/><stop offset="1" stop-color="#0B6984"/></linearGradient><linearGradient id="paint90_linear_96_1928" x1="197.234" y1="328.129" x2="197.234" y2="315.598" gradientUnits="userSpaceOnUse"><stop stop-color="#023144"/><stop offset="1" stop-color="#0B6984"/></linearGradient><linearGradient id="paint91_linear_96_1928" x1="197.234" y1="382.865" x2="197.234" y2="366.232" gradientUnits="userSpaceOnUse"><stop stop-color="#023144"/><stop offset="1" stop-color="#0B6984"/></linearGradient><linearGradient id="paint92_linear_96_1928" x1="197.246" y1="437.626" x2="197.246" y2="416.878" gradientUnits="userSpaceOnUse"><stop stop-color="#023144"/><stop offset="1" stop-color="#0B6984"/></linearGradient><linearGradient id="paint93_linear_96_1928" x1="197.234" y1="490.285" x2="197.234" y2="467.5" gradientUnits="userSpaceOnUse"><stop stop-color="#023144"/><stop offset="1" stop-color="#0B6984"/></linearGradient><linearGradient id="paint94_linear_96_1928" x1="197.246" y1="538.894" x2="197.246" y2="518.134" gradientUnits="userSpaceOnUse"><stop stop-color="#023144"/><stop offset="1" stop-color="#0B6984"/></linearGradient><linearGradient id="paint95_linear_96_1928" x1="246.5" y1="218.658" x2="246.5" y2="214.329" gradientUnits="userSpaceOnUse"><stop stop-color="#023144"/><stop offset="1" stop-color="#0B6984"/></linearGradient><linearGradient id="paint96_linear_96_1928" x1="246.5" y1="273.394" x2="246.5" y2="264.963" gradientUnits="userSpaceOnUse"><stop stop-color="#023144"/><stop offset="1" stop-color="#0B6984"/></linearGradient><linearGradient id="paint97_linear_96_1928" x1="246.5" y1="328.129" x2="246.5" y2="315.598" gradientUnits="userSpaceOnUse"><stop stop-color="#023144"/><stop offset="1" stop-color="#0B6984"/></linearGradient><linearGradient id="paint98_linear_96_1928" x1="246.5" y1="382.865" x2="246.5" y2="366.232" gradientUnits="userSpaceOnUse"><stop stop-color="#023144"/><stop offset="1" stop-color="#0B6984"/></linearGradient><linearGradient id="paint99_linear_96_1928" x1="246.512" y1="437.626" x2="246.512" y2="416.878" gradientUnits="userSpaceOnUse"><stop stop-color="#023144"/><stop offset="1" stop-color="#0B6984"/></linearGradient><linearGradient id="paint100_linear_96_1928" x1="246.5" y1="490.285" x2="246.5" y2="467.5" gradientUnits="userSpaceOnUse"><stop stop-color="#023144"/><stop offset="1" stop-color="#0B6984"/></linearGradient><linearGradient id="paint101_linear_96_1928" x1="246.512" y1="538.894" x2="246.512" y2="518.134" gradientUnits="userSpaceOnUse"><stop stop-color="#023144"/><stop offset="1" stop-color="#0B6984"/></linearGradient><linearGradient id="paint102_linear_96_1928" x1="295.766" y1="218.658" x2="295.766" y2="214.329" gradientUnits="userSpaceOnUse"><stop stop-color="#023144"/><stop offset="1" stop-color="#0B6984"/></linearGradient><linearGradient id="paint103_linear_96_1928" x1="295.766" y1="273.394" x2="295.766" y2="264.963" gradientUnits="userSpaceOnUse"><stop stop-color="#023144"/><stop offset="1" stop-color="#0B6984"/></linearGradient><linearGradient id="paint104_linear_96_1928" x1="295.766" y1="328.129" x2="295.766" y2="315.598" gradientUnits="userSpaceOnUse"><stop stop-color="#023144"/><stop offset="1" stop-color="#0B6984"/></linearGradient><linearGradient id="paint105_linear_96_1928" x1="295.766" y1="382.865" x2="295.766" y2="366.232" gradientUnits="userSpaceOnUse"><stop stop-color="#023144"/><stop offset="1" stop-color="#0B6984"/></linearGradient><linearGradient id="paint106_linear_96_1928" x1="295.779" y1="437.626" x2="295.779" y2="416.878" gradientUnits="userSpaceOnUse"><stop stop-color="#023144"/><stop offset="1" stop-color="#0B6984"/></linearGradient><linearGradient id="paint107_linear_96_1928" x1="295.766" y1="490.285" x2="295.766" y2="467.5" gradientUnits="userSpaceOnUse"><stop stop-color="#023144"/><stop offset="1" stop-color="#0B6984"/></linearGradient><linearGradient id="paint108_linear_96_1928" x1="295.791" y1="538.894" x2="295.791" y2="518.134" gradientUnits="userSpaceOnUse"><stop stop-color="#023144"/><stop offset="1" stop-color="#0B6984"/></linearGradient><linearGradient id="paint109_linear_96_1928" x1="345.032" y1="218.658" x2="345.032" y2="214.329" gradientUnits="userSpaceOnUse"><stop stop-color="#023144"/><stop offset="1" stop-color="#0B6984"/></linearGradient><linearGradient id="paint110_linear_96_1928" x1="345.032" y1="273.394" x2="345.032" y2="264.963" gradientUnits="userSpaceOnUse"><stop stop-color="#023144"/><stop offset="1" stop-color="#0B6984"/></linearGradient><linearGradient id="paint111_linear_96_1928" x1="345.032" y1="328.129" x2="345.032" y2="315.598" gradientUnits="userSpaceOnUse"><stop stop-color="#023144"/><stop offset="1" stop-color="#0B6984"/></linearGradient><linearGradient id="paint112_linear_96_1928" x1="345.032" y1="382.865" x2="345.032" y2="366.232" gradientUnits="userSpaceOnUse"><stop stop-color="#023144"/><stop offset="1" stop-color="#0B6984"/></linearGradient><linearGradient id="paint113_linear_96_1928" x1="345.044" y1="437.626" x2="345.044" y2="416.878" gradientUnits="userSpaceOnUse"><stop stop-color="#023144"/><stop offset="1" stop-color="#0B6984"/></linearGradient><linearGradient id="paint114_linear_96_1928" x1="345.032" y1="490.285" x2="345.032" y2="467.5" gradientUnits="userSpaceOnUse"><stop stop-color="#023144"/><stop offset="1" stop-color="#0B6984"/></linearGradient><linearGradient id="paint115_linear_96_1928" x1="345.057" y1="538.894" x2="345.057" y2="518.134" gradientUnits="userSpaceOnUse"><stop stop-color="#023144"/><stop offset="1" stop-color="#0B6984"/></linearGradient><linearGradient id="paint116_linear_96_1928" x1="394.298" y1="218.658" x2="394.298" y2="214.329" gradientUnits="userSpaceOnUse"><stop stop-color="#023144"/><stop offset="1" stop-color="#0B6984"/></linearGradient><linearGradient id="paint117_linear_96_1928" x1="394.298" y1="273.394" x2="394.298" y2="264.963" gradientUnits="userSpaceOnUse"><stop stop-color="#023144"/><stop offset="1" stop-color="#0B6984"/></linearGradient><linearGradient id="paint118_linear_96_1928" x1="394.298" y1="328.129" x2="394.298" y2="315.598" gradientUnits="userSpaceOnUse"><stop stop-color="#023144"/><stop offset="1" stop-color="#0B6984"/></linearGradient><linearGradient id="paint119_linear_96_1928" x1="394.298" y1="382.865" x2="394.298" y2="366.232" gradientUnits="userSpaceOnUse"><stop stop-color="#023144"/><stop offset="1" stop-color="#0B6984"/></linearGradient><linearGradient id="paint120_linear_96_1928" x1="394.31" y1="437.626" x2="394.31" y2="416.878" gradientUnits="userSpaceOnUse"><stop stop-color="#023144"/><stop offset="1" stop-color="#0B6984"/></linearGradient><linearGradient id="paint121_linear_96_1928" x1="394.298" y1="490.285" x2="394.298" y2="467.5" gradientUnits="userSpaceOnUse"><stop stop-color="#023144"/><stop offset="1" stop-color="#0B6984"/></linearGradient><linearGradient id="paint122_linear_96_1928" x1="394.323" y1="538.894" x2="394.323" y2="518.134" gradientUnits="userSpaceOnUse"><stop stop-color="#023144"/><stop offset="1" stop-color="#0B6984"/></linearGradient><linearGradient id="paint123_linear_96_1928" x1="443.564" y1="218.658" x2="443.564" y2="214.329" gradientUnits="userSpaceOnUse"><stop stop-color="#023144"/><stop offset="1" stop-color="#0B6984"/></linearGradient><linearGradient id="paint124_linear_96_1928" x1="443.564" y1="273.394" x2="443.564" y2="264.963" gradientUnits="userSpaceOnUse"><stop stop-color="#023144"/><stop offset="1" stop-color="#0B6984"/></linearGradient><linearGradient id="paint125_linear_96_1928" x1="443.564" y1="328.129" x2="443.564" y2="315.598" gradientUnits="userSpaceOnUse"><stop stop-color="#023144"/><stop offset="1" stop-color="#0B6984"/></linearGradient><linearGradient id="paint126_linear_96_1928" x1="443.564" y1="382.865" x2="443.564" y2="366.232" gradientUnits="userSpaceOnUse"><stop stop-color="#023144"/><stop offset="1" stop-color="#0B6984"/></linearGradient><linearGradient id="paint127_linear_96_1928" x1="443.576" y1="437.626" x2="443.576" y2="416.878" gradientUnits="userSpaceOnUse"><stop stop-color="#023144"/><stop offset="1" stop-color="#0B6984"/></linearGradient><linearGradient id="paint128_linear_96_1928" x1="443.564" y1="490.285" x2="443.564" y2="467.5" gradientUnits="userSpaceOnUse"><stop stop-color="#023144"/><stop offset="1" stop-color="#0B6984"/></linearGradient><linearGradient id="paint129_linear_96_1928" x1="443.589" y1="538.894" x2="443.589" y2="518.134" gradientUnits="userSpaceOnUse"><stop stop-color="#023144"/><stop offset="1" stop-color="#0B6984"/></linearGradient><linearGradient id="paint130_linear_96_1928" x1="492.83" y1="218.658" x2="492.83" y2="214.329" gradientUnits="userSpaceOnUse"><stop stop-color="#023144"/><stop offset="1" stop-color="#0B6984"/></linearGradient><linearGradient id="paint131_linear_96_1928" x1="492.83" y1="273.394" x2="492.83" y2="264.963" gradientUnits="userSpaceOnUse"><stop stop-color="#023144"/><stop offset="1" stop-color="#0B6984"/></linearGradient><linearGradient id="paint132_linear_96_1928" x1="492.83" y1="328.129" x2="492.83" y2="315.598" gradientUnits="userSpaceOnUse"><stop stop-color="#023144"/><stop offset="1" stop-color="#0B6984"/></linearGradient><linearGradient id="paint133_linear_96_1928" x1="492.83" y1="382.865" x2="492.83" y2="366.232" gradientUnits="userSpaceOnUse"><stop stop-color="#023144"/><stop offset="1" stop-color="#0B6984"/></linearGradient><linearGradient id="paint134_linear_96_1928" x1="492.843" y1="437.626" x2="492.843" y2="416.878" gradientUnits="userSpaceOnUse"><stop stop-color="#023144"/><stop offset="1" stop-color="#0B6984"/></linearGradient><linearGradient id="paint135_linear_96_1928" x1="492.83" y1="490.285" x2="492.83" y2="467.5" gradientUnits="userSpaceOnUse"><stop stop-color="#023144"/><stop offset="1" stop-color="#0B6984"/></linearGradient><linearGradient id="paint136_linear_96_1928" x1="492.855" y1="538.894" x2="492.855" y2="518.134" gradientUnits="userSpaceOnUse"><stop stop-color="#023144"/><stop offset="1" stop-color="#0B6984"/></linearGradient><clipPath id="clip0_96_1928"><path fill="#fff" transform="translate(-22 210)" d="M0 0h537v515H0z"/></clipPath></defs></svg>