<svg width="114" height="30" fill="none" xmlns="http://www.w3.org/2000/svg"><g clip-path="url(#clip0_8_311)"><path d="M36.184 6a.473.473 0 00-.467.399l-2.695 17.096a.438.438 0 00.432.505h3.197c.232 0 .43-.17.467-.4l.792-5.02a.472.472 0 01.467-.399h2.907a6.894 6.894 0 006.805-5.836C48.62 8.96 45.975 6.007 42.225 6h-6.04zm3.108 3.816h2.326c1.914 0 2.538 1.13 2.34 2.379-.197 1.252-1.165 2.174-3.017 2.174h-2.367l.718-4.553zm15.3 1.162c-.808.003-1.737.168-2.78.603-2.392.997-3.54 3.057-4.028 4.56 0 0-1.553 4.583 1.955 7.1 0 0 3.254 2.425 6.916-.148l-.063.401a.437.437 0 00.431.506h3.035c.233 0 .431-.17.468-.4l1.846-11.707a.438.438 0 00-.432-.506h-3.035a.473.473 0 00-.467.4l-.1.63s-1.325-1.448-3.747-1.44zm.099 3.698c.348 0 .667.048.953.14 1.31.42 2.052 1.678 1.837 3.042-.265 1.679-1.642 2.915-3.408 2.915-.348 0-.667-.048-.953-.14-1.31-.42-2.056-1.678-1.842-3.042.265-1.679 1.647-2.915 3.413-2.915zM79.889 6a.472.472 0 00-.467.399l-2.696 17.096a.438.438 0 00.432.505h3.197c.233 0 .43-.17.467-.4l.792-5.02a.472.472 0 01.467-.399h2.907a6.893 6.893 0 006.805-5.836C92.324 8.96 89.679 6.007 85.93 6h-6.041zm3.108 3.816h2.325c1.915 0 2.538 1.13 2.341 2.379-.197 1.252-1.165 2.174-3.017 2.174h-2.368l.718-4.553zm15.298 1.162c-.807.003-1.736.168-2.779.603-2.392.997-3.54 3.057-4.028 4.56 0 0-1.552 4.583 1.956 7.1 0 0 3.253 2.425 6.915-.148l-.063.401a.438.438 0 00.433.506h3.034c.233 0 .431-.17.467-.4l1.847-11.707a.439.439 0 00-.432-.506h-3.035a.472.472 0 00-.467.4l-.1.63s-1.326-1.448-3.748-1.44zm.1 3.698c.348 0 .667.048.953.14 1.309.42 2.052 1.678 1.837 3.042-.265 1.679-1.642 2.915-3.408 2.915-.348 0-.667-.048-.953-.14-1.31-.42-2.056-1.678-1.841-3.042.264-1.679 1.646-2.915 3.412-2.915zm-34.583-3.289a.355.355 0 00-.338.464L66.8 22.176l-3.009 4.866a.355.355 0 00.302.54h3.556a.591.591 0 00.505-.285l9.293-15.372a.355.355 0 00-.304-.538h-3.556a.59.59 0 00-.508.29l-3.658 6.176-1.857-6.13a.474.474 0 00-.452-.336h-3.301zM109.525 6a.473.473 0 00-.467.399l-2.696 17.095a.436.436 0 00.432.506h3.197c.232 0 .431-.17.467-.4l2.696-17.095a.437.437 0 00-.432-.506h-3.197z" fill="#fff"/><path d="M9.532 6a.865.865 0 00-.854.73l-1.419 9a.865.865 0 01.854-.73h4.158c4.185 0 7.736-3.053 8.385-7.19a6.93 6.93 0 00.082-.934C19.675 6.318 18.425 6 17.056 6H9.532z" fill="#C7C7C7"/><path d="M20.738 6.876a6.93 6.93 0 01-.082.934c-.649 4.137-4.2 7.19-8.385 7.19H8.113a.864.864 0 00-.854.73L5.954 24l-.817 5.189A.702.702 0 005.83 30h4.514a.865.865 0 00.854-.73l1.189-7.54a.865.865 0 01.854-.73H15.9c4.185 0 7.736-3.054 8.385-7.191.46-2.936-1.018-5.608-3.546-6.934z" fill="#fff"/><path d="M4.404 0a.864.864 0 00-.854.73L.008 23.189A.703.703 0 00.702 24h5.253l1.304-8.27 1.419-9A.865.865 0 019.532 6h7.524c1.37 0 2.618.32 3.682.877C20.811 3.11 17.703 0 13.43 0H4.404z" fill="#fff"/></g><defs><clipPath id="clip0_8_311"><path fill="#fff" d="M0 0h113.159v30H0z"/></clipPath></defs></svg>