<svg width="30" height="30" fill="none" xmlns="http://www.w3.org/2000/svg"><path d="M6.993 6.84h4.49l1.447 3.618-2.325 1.55a1 1 0 00-.445.832c.002.094 0 .001 0 .001v.021a1.785 1.785 0 00.006.135c.005.082.016.193.035.328.039.272.114.643.26 1.082.293.88.87 2.018 1.992 3.14 1.122 1.122 2.26 1.699 3.14 1.992.439.146.81.221 1.082.26a4.424 4.424 0 00.43.04l.033.001h.02s.112-.006.002 0a1 1 0 00.894-.552l.67-1.34 4.436.74v4.32c-2.111.305-7.813.605-12.293-3.875-4.48-4.48-4.18-10.182-3.874-12.293zm5.24 6.486l1.806-1.204a2 2 0 00.748-2.406L13.34 6.097a2 2 0 00-1.857-1.257H6.94c-.909 0-1.764.631-1.913 1.617-.34 2.243-.801 8.864 4.425 14.09 5.226 5.226 11.847 4.765 14.09 4.425.986-.149 1.617-1.004 1.617-1.913v-4.372a2 2 0 00-1.671-1.972l-4.436-.74a2 2 0 00-2.118 1.079l-.346.693a4.66 4.66 0 01-.363-.105c-.62-.207-1.481-.631-2.36-1.509-.877-.878-1.3-1.739-1.508-2.359a4.596 4.596 0 01-.125-.448z" fill="#fff"/></svg>