<svg width="30" height="30" fill="none" xmlns="http://www.w3.org/2000/svg"><rect width="30" height="30" rx="10" fill="#CD394B"/><path fill-rule="evenodd" clip-rule="evenodd" d="M9.858 15.104h.882c1.325 0 2.474 1.034 2.474 2.4 0 1.367-1.15 2.4-2.474 2.4h-1.2v2.1a.9.9 0 01-1.8 0v-4.842c0-.246 0-.514.031-.741.039-.273.137-.612.432-.893.288-.275.628-.36.89-.395.255-.025.51-.034.765-.029zm-.318 3h1.2c.414 0 .674-.31.674-.6s-.26-.6-.674-.6H9.9c-.146 0-.26 0-.36.003v1.197zm14.275-3h1.625a.9.9 0 110 1.8h-1.576c-.52 0-.822.002-1.038.03a.908.908 0 00-.118.02.933.933 0 00-.014.079c-.027.194-.03.474-.03.972v.1h1.726a.9.9 0 110 1.8h-1.726v2.1a.9.9 0 11-1.8 0v-4.053c0-.426 0-.835.048-1.171.053-.38.183-.796.54-1.135.35-.334.768-.45 1.146-.498.344-.044.765-.044 1.217-.044zm-7.853 0h.028c2.195 0 4.05 1.706 4.05 3.9 0 2.195-1.855 3.9-4.05 3.9h-.028c-.172 0-.354 0-.51-.013a1.465 1.465 0 01-1.366-1.184c-.053-.247-.048-.521-.047-.653v-4.1c-.001-.131-.006-.405.048-.652a1.465 1.465 0 011.365-1.184c.156-.014.338-.014.51-.014zm-.123 1.8v4.2h.151c1.284 0 2.25-.981 2.25-2.1 0-1.118-.966-2.1-2.25-2.1h-.151z" fill="#fff"/><path fill-rule="evenodd" clip-rule="evenodd" d="M8.633 25.79c1.092.113 2.503.114 4.48.114h5.127a.9.9 0 110 1.8h-5.18c-1.912 0-3.42 0-4.613-.124-1.22-.128-2.224-.393-3.082-.996a5.858 5.858 0 01-1.212-1.143c-.654-.822-.943-1.788-1.08-2.955-.133-1.133-.133-2.559-.133-4.352V14.99c0-1.75 0-3.108.072-4.204.073-1.112.223-2.016.553-2.85C4.572 5.4 6.69 3.419 9.348 2.487c1.655-.582 3.684-.582 7.243-.582h.435c1.963 0 3.186 0 4.194.353 1.62.569 2.917 1.779 3.535 3.339.21.528.3 1.09.343 1.743.042.64.042 1.427.042 2.416v2.65a.9.9 0 11-1.8 0V9.785c0-1.027 0-1.754-.038-2.328-.038-.564-.108-.917-.22-1.2-.416-1.049-1.306-1.896-2.458-2.302-.681-.24-1.568-.252-3.804-.252-3.852 0-5.548.012-6.876.48-2.193.768-3.9 2.388-4.705 4.416-.233.587-.363 1.282-.432 2.304-.067 1.03-.067 2.328-.067 4.119v3.054c0 1.863 0 3.182.12 4.199.118.994.338 1.587.7 2.044.238.3.522.564.84.791.502.353 1.156.567 2.233.678z" fill="#fff"/><path fill-rule="evenodd" clip-rule="evenodd" d="M3.84 15.704a.9.9 0 01-.9-.9 4.9 4.9 0 014.9-4.9c.223 0 .45.01.662.02l.082.004c.188.008.364.016.542.02.408.01.736-.01.998-.082a1.1 1.1 0 00.778-.777c.07-.263.09-.59.082-.999-.004-.176-.012-.354-.02-.54l-.004-.082a14.4 14.4 0 01-.02-.664 4.9 4.9 0 014.9-4.9.9.9 0 010 1.8 3.1 3.1 0 00-3.1 3.1c0 .176.008.367.017.58l.004.079c.008.186.018.389.023.59.01.456-.005.988-.143 1.501a2.901 2.901 0 01-2.051 2.052c-.514.137-1.046.152-1.502.142a22.582 22.582 0 01-.669-.026c-.193-.01-.386-.016-.58-.017a3.1 3.1 0 00-3.099 3.1.9.9 0 01-.9.9z" fill="#fff"/></svg>