<svg width="58" height="30" fill="none" xmlns="http://www.w3.org/2000/svg"><path d="M41.087 4.694A2.347 2.347 0 1041.089 0a2.347 2.347 0 00-.002 4.694zM23.105 5.96c-.107.267-.869 2.42-2.713 4.653V1.068l-4.914.971V19.34h4.914v-5.348c1.423 2.134 2.126 5.348 2.126 5.348h5.885c-.582-2.42-3.128-6.883-3.128-6.883 2.285-2.897 3.289-5.985 3.448-6.497h-5.618zm12.917-.18c-4.4.141-6.635 2.116-6.635 6.04v7.52h4.802v-6.132c0-2.35.307-3.358 3.096-3.453V5.849c-.47-.1-1.263-.07-1.263-.07zM7.239 7.866c-.602-.04-1.995-.13-1.995-1.384 0-1.514 2.006-1.514 2.758-1.514 1.323 0 3.037.39 4.26.757 0 0 .683.24 1.264.487l.054.015V2.08l-.074-.022c-1.444-.505-3.124-.99-6.237-.99C1.902 1.068 0 4.194 0 6.873c0 1.544.662 5.178 6.81 5.597.52.032 1.903.112 1.903 1.408 0 1.07-1.132 1.701-3.036 1.701-2.087 0-4.112-.531-5.342-1.036v4.269c1.842.482 3.916.724 6.348.724 5.249 0 7.6-2.959 7.6-5.89 0-3.325-2.631-5.486-7.044-5.781zM38.706 19.34h4.763V5.976h-4.763V19.34zm13.73-17.42v17.42H57.2V1.068l-4.764.852zm-6.95 0l4.759-.852V19.34h-4.758V1.92zM5.448 28.328v-2.822c0-.322-.12-.542-.44-.542-.25 0-.488.156-.736.395v2.969H2.884v-2.822c0-.322-.12-.542-.442-.542-.257 0-.486.156-.735.395v2.969H.32v-4.504h1.223l.101.615c.405-.413.818-.707 1.397-.707.616 0 .956.303 1.121.707.405-.404.846-.707 1.406-.707.837 0 1.278.524 1.278 1.397v3.199H5.448zm4.264-3.456c-.533 0-.818.468-.818 1.204 0 .726.294 1.222.818 1.222.533 0 .827-.487.827-1.213 0-.726-.294-1.213-.827-1.213zm-.01 3.547c-1.24 0-2.15-.891-2.15-2.334s.92-2.353 2.16-2.353c1.25 0 2.169.9 2.169 2.344 0 1.442-.929 2.343-2.179 2.343zm5.523-.091v-2.822c0-.322-.13-.542-.46-.542-.267 0-.515.156-.763.404v2.96h-1.388v-4.504h1.223l.101.615c.405-.394.837-.707 1.406-.707.837 0 1.278.524 1.278 1.397v3.199h-1.397zm4.19-3.695c-.386 0-.662.34-.707 1.03h1.415c-.046-.68-.285-1.03-.708-1.03zm2.004 1.792h-2.702c.073.707.496.983 1.103.983.496 0 .983-.184 1.48-.468l.137.974a3.266 3.266 0 01-1.792.505c-1.35 0-2.316-.716-2.316-2.325 0-1.47.9-2.362 2.122-2.362 1.38 0 1.995 1.03 1.995 2.334 0 .138-.009.286-.027.359zm3.195 1.994C24.209 29.596 23.658 30 22.675 30c-.276 0-.395-.027-.524-.055l-.175-1.112c.147.046.285.073.552.073.312 0 .588-.119.735-.432l.055-.137-1.636-4.403 1.489-.175.874 2.84.826-2.775h1.342l-1.599 4.595zm4.3-3.446c-.294 0-.533.174-.763.432v1.783c.184.055.294.083.505.083.543 0 .929-.331.929-1.223 0-.754-.275-1.075-.67-1.075zm-.22 3.41c-.726 0-1.407-.12-1.93-.322v-6.15l1.387-.22v2.629c.285-.294.671-.588 1.204-.588.919 0 1.618.699 1.618 2.224 0 1.673-.892 2.426-2.28 2.426zm4.98-3.511c-.533 0-.818.468-.818 1.204 0 .726.294 1.222.818 1.222.533 0 .827-.487.827-1.213 0-.726-.294-1.213-.827-1.213zm-.01 3.547c-1.24 0-2.15-.891-2.15-2.334s.92-2.353 2.16-2.353c1.25 0 2.169.9 2.169 2.344 0 1.442-.929 2.343-2.179 2.343zm4.853-3.547c-.533 0-.818.468-.818 1.204 0 .726.295 1.222.818 1.222.533 0 .827-.487.827-1.213 0-.726-.294-1.213-.827-1.213zm-.01 3.547c-1.24 0-2.15-.891-2.15-2.334s.919-2.353 2.16-2.353c1.25 0 2.169.9 2.169 2.344 0 1.442-.929 2.343-2.178 2.343zm5.605-.027l-1.305-2.16v2.096H41.42v-6.416l1.387-.22v3.98l1.204-1.848H45.5l-1.416 2.05 1.472 2.315-1.444.203zm3.63-3.759c-.386 0-.662.34-.708 1.03h1.415c-.046-.68-.285-1.03-.707-1.03zm2.004 1.792h-2.703c.074.707.496.983 1.102.983.497 0 .984-.184 1.48-.468l.138.974a3.263 3.263 0 01-1.791.505c-1.352 0-2.317-.716-2.317-2.325 0-1.47.901-2.362 2.123-2.362 1.38 0 1.995 1.03 1.995 2.334 0 .138-.01.286-.028.359zm2.157-.597v2.5h-1.388v-4.504h1.213l.148.891c.275-.514.652-.937 1.314-.983l.23 1.415c-.671.046-1.176.313-1.517.681zm3.702 2.573a4.09 4.09 0 01-1.856-.45l.165-1.058c.534.331 1.186.534 1.701.534.387 0 .57-.129.57-.34 0-.23-.129-.33-.763-.488-1.13-.293-1.609-.597-1.609-1.443 0-.836.626-1.397 1.728-1.397.607 0 1.195.12 1.663.331l-.173 1.057c-.488-.266-1.049-.422-1.48-.422-.332 0-.479.12-.479.294 0 .184.129.284.764.46 1.195.32 1.617.625 1.617 1.461 0 .945-.653 1.461-1.848 1.461z" fill="#fff"/></svg>