<svg width="58" height="74" fill="none" xmlns="http://www.w3.org/2000/svg"><path d="M28 1.167L24.5 10.5 15.167 14l9.333 3.5 3.5 9.334 3.5-9.334 9.333-3.5-9.333-3.5L28 1.167zm0 28L24.5 38.5 15.167 42l9.333 3.5 3.5 9.334 3.5-9.334 9.333-3.5-9.333-3.5-3.5-9.333zm16-14L40.5 24.5 31.167 28l9.333 3.5 3.5 9.334 3.5-9.334 9.333-3.5-9.333-3.5-3.5-9.333zm-30 0L10.5 24.5 1.167 28l9.333 3.5 3.5 9.334 3.5-9.334 9.333-3.5-9.333-3.5-3.5-9.333zM3.799 73.324v-9.646h1.484l-.014 1.988.238.014c.093-.467.242-.863.448-1.19.214-.327.485-.574.812-.742.326-.168.714-.252 1.162-.252.653 0 1.208.163 1.666.49.457.317.802.77 1.036 1.358.242.579.364 1.255.364 2.03 0 .728-.112 1.381-.336 1.96-.215.57-.546 1.022-.994 1.358-.439.327-.985.49-1.638.49-.476 0-.878-.093-1.204-.28a2.25 2.25 0 01-.798-.77 4.684 4.684 0 01-.504-1.134h-.252c.056.252.102.513.14.784.046.261.084.523.112.784.028.252.042.495.042.728v2.03H3.799zm3.654-3.584c.364 0 .672-.098.924-.294.252-.205.443-.485.574-.84.13-.364.196-.78.196-1.246 0-.485-.07-.905-.21-1.26a1.761 1.761 0 00-.588-.826 1.497 1.497 0 00-.924-.294c-.308 0-.579.07-.812.21-.234.14-.43.327-.588.56a2.384 2.384 0 00-.35.728 2.794 2.794 0 00-.112.77v.238c0 .187.023.383.07.588.056.196.135.397.238.602.102.196.228.378.378.546.149.159.326.285.532.378.205.093.429.14.672.14zm8.426 1.442c-.719 0-1.354-.145-1.904-.434a3.239 3.239 0 01-1.302-1.302c-.308-.579-.462-1.288-.462-2.128 0-.859.158-1.568.476-2.128.326-.57.765-.994 1.316-1.274.55-.28 1.171-.42 1.862-.42.718 0 1.353.145 1.904.434.55.29.984.723 1.302 1.302.317.57.476 1.279.476 2.128 0 .859-.159 1.573-.476 2.142a3.04 3.04 0 01-1.316 1.274c-.55.27-1.176.406-1.876.406zm.07-1.344c.392 0 .723-.089.994-.266.27-.187.476-.462.616-.826.15-.364.224-.798.224-1.302 0-.532-.08-.985-.238-1.358-.15-.383-.369-.677-.658-.882-.28-.205-.635-.308-1.064-.308-.374 0-.7.093-.98.28-.28.177-.495.443-.644.798-.14.355-.21.793-.21 1.316 0 .821.172 1.451.518 1.89.354.439.835.658 1.442.658zm5.186 3.486v-9.646h1.484l-.014 1.988.238.014c.093-.467.242-.863.448-1.19a2.13 2.13 0 01.812-.742c.326-.168.714-.252 1.162-.252.653 0 1.208.163 1.666.49.457.317.802.77 1.036 1.358.242.579.364 1.255.364 2.03 0 .728-.112 1.381-.336 1.96A2.954 2.954 0 0127 70.692c-.439.327-.985.49-1.638.49-.476 0-.878-.093-1.204-.28a2.251 2.251 0 01-.798-.77 4.687 4.687 0 01-.504-1.134h-.252c.056.252.102.513.14.784.046.261.084.523.112.784.028.252.042.495.042.728v2.03h-1.764zm3.654-3.584c.364 0 .672-.098.924-.294.252-.205.443-.485.574-.84.13-.364.196-.78.196-1.246 0-.485-.07-.905-.21-1.26a1.76 1.76 0 00-.588-.826 1.497 1.497 0 00-.924-.294c-.308 0-.579.07-.812.21-.234.14-.43.327-.588.56a2.387 2.387 0 00-.35.728 2.797 2.797 0 00-.112.77v.238c0 .187.023.383.07.588.056.196.135.397.238.602.102.196.228.378.378.546.149.159.326.285.532.378.205.093.429.14.672.14zm7.572 1.442c-.84 0-1.474-.285-1.904-.854-.42-.579-.63-1.451-.63-2.618v-4.032h1.778v3.836c0 .737.112 1.288.336 1.652.224.364.57.546 1.036.546a1.3 1.3 0 00.714-.196 1.86 1.86 0 00.532-.574c.15-.252.266-.541.35-.868.094-.327.15-.686.168-1.078v-3.318h1.764V71H35.05l.028-2.31h-.252c-.121.588-.294 1.064-.518 1.428-.214.364-.48.635-.798.812-.317.168-.7.252-1.148.252zM38.498 71v-9.94h1.736V71h-1.736zm5.413.182c-.402 0-.761-.075-1.078-.224a1.82 1.82 0 01-.756-.7c-.178-.308-.266-.69-.266-1.148 0-.383.07-.71.21-.98.149-.27.368-.49.658-.658a3.99 3.99 0 011.078-.434c.429-.121.933-.224 1.512-.308a9.29 9.29 0 00.77-.14c.205-.047.354-.117.448-.21.093-.103.14-.252.14-.448 0-.29-.103-.537-.308-.742-.196-.215-.518-.322-.966-.322-.271 0-.532.047-.784.14a1.566 1.566 0 00-.63.448c-.178.196-.299.457-.364.784l-1.582-.49c.102-.373.252-.695.448-.966.196-.28.438-.518.728-.714.289-.196.62-.34.994-.434.373-.093.784-.14 1.232-.14.681 0 1.241.112 1.68.336.438.215.765.555.98 1.022.214.457.322 1.05.322 1.778v1.372c0 .317.004.649.014.994l.056 1.022c.028.336.06.663.098.98h-1.582c-.038-.261-.07-.541-.098-.84a27.532 27.532 0 01-.07-.91h-.224a3.444 3.444 0 01-.56.98c-.243.29-.542.523-.896.7-.346.168-.747.252-1.204.252zm.7-1.302c.186 0 .373-.033.56-.098a2.23 2.23 0 00.574-.294c.186-.13.359-.29.518-.476.158-.196.294-.425.406-.686l-.028-1.246.336.056a1.78 1.78 0 01-.588.308c-.234.075-.481.13-.742.168-.252.037-.509.084-.77.14a3.504 3.504 0 00-.686.196 1.098 1.098 0 00-.49.336c-.122.14-.182.336-.182.588 0 .317.102.565.308.742.205.177.466.266.784.266zM50.283 71v-7.322h1.484l-.028 2.52h.252c.084-.597.215-1.092.392-1.484.177-.401.425-.7.742-.896.317-.205.71-.308 1.176-.308.093 0 .191.005.294.014.112.01.233.033.364.07l-.07 1.862a1.968 1.968 0 00-.462-.112 2.287 2.287 0 00-.42-.042c-.364 0-.681.093-.952.28a2.062 2.062 0 00-.644.798 4.81 4.81 0 00-.364 1.204V71h-1.764z" fill="#0B6984"/></svg>