<svg width="92" height="30" fill="none" xmlns="http://www.w3.org/2000/svg"><path fill-rule="evenodd" clip-rule="evenodd" d="M22.83 29.766h-7.903L9 6.493c-.281-1.07-.879-2.017-1.757-2.463C5.05 2.91 2.636 2.017 0 1.567V.671h12.73c1.758 0 3.075 1.346 3.295 2.91L19.1 20.367 26.999.67h7.683L22.829 29.766zm16.244 0H31.61L37.756.671h7.463l-6.145 29.095zM54.876 8.731c.22-1.567 1.537-2.463 3.075-2.463 2.416-.225 5.047.225 7.244 1.342l1.317-6.264A18.419 18.419 0 0059.708 0c-7.244 0-12.515 4.03-12.515 9.623 0 4.256 3.734 6.49 6.37 7.836 2.85 1.342 3.948 2.238 3.729 3.58 0 2.013-2.196 2.91-4.389 2.91-2.635 0-5.27-.672-7.683-1.793l-1.318 6.268c2.636 1.117 5.487 1.567 8.123 1.567 8.122.221 13.17-3.805 13.17-9.848 0-7.61-10.319-8.057-10.319-11.412zm36.438 21.035L85.388.671h-6.366c-1.317 0-2.635.896-3.074 2.238L64.974 29.766h7.683l1.534-4.25h9.44l.878 4.25h6.805zM80.12 8.506l2.192 10.966h-6.145L80.12 8.506z" fill="#fff"/></svg>