<svg width="84" height="30" fill="none" xmlns="http://www.w3.org/2000/svg"><path d="M22.534 9.784l-.06-.984s-.053.355-.155.975c-.043.306-.107.678-.176 1.105-.05.425-.256.88-.396 1.381a7.23 7.23 0 01-.612 1.553c-.268.526-.507 1.09-.913 1.585-.18.255-.365.514-.548.777-.195.252-.448.472-.67.71-.426.495-.95.9-1.47 1.297-.491.418-1.11.707-1.629 1.053-.6.26-1.125.582-1.717.776-.564.225-1.12.417-1.668.557-.53.173-1.06.256-1.529.37-.299.053-.575.098-.84.138.026-.081.059-.157.087-.239.255-.776.444-1.572.563-2.38.052-.422.095-.85.125-1.285a9.27 9.27 0 00-.03-1.376c-.424.178-.836.384-1.232.617-.37.23-.727.469-1.074.716a14.36 14.36 0 00-1.84 1.611 17.68 17.68 0 00-2.78 3.769l-.097.167a2.326 2.326 0 00.306 2.682c.9 1.02 1.917 1.933 3.029 2.72.584.411 1.199.777 1.84 1.094.662.323 1.345.63 2.157.828-.041-.833-.21-1.565-.398-2.277a13.176 13.176 0 00-.696-1.964c.607-.197 1.34-.47 2.168-.821.534-.256 1.12-.495 1.708-.835.598-.308 1.203-.68 1.813-1.091.625-.375 1.2-.903 1.81-1.36.55-.552 1.156-1.04 1.641-1.662.503-.6.991-1.198 1.364-1.873.19-.328.409-.634.568-.971.143-.341.288-.676.427-1.008.318-.64.453-1.323.612-1.945.188-.616.25-1.22.287-1.772.036-.554.131-1.046.095-1.493-.031-.44-.047-.828-.07-1.144zM18.849 4.85a17.637 17.637 0 00-2.947-2.81A13.668 13.668 0 0014.097.891C13.44.552 12.764.225 11.96 0c.016.835.163 1.57.33 2.29.165.698.384 1.353.64 1.982-.613.18-1.357.432-2.192.757-.543.24-1.136.46-1.732.784A18.06 18.06 0 007.16 6.85c-.634.358-1.226.866-1.846 1.305-.567.536-1.188 1.003-1.691 1.613-.519.585-1.027 1.167-1.42 1.831-.2.323-.428.623-.596.953-.157.335-.31.669-.46.994-.337.63-.49 1.307-.667 1.924-.208.61-.284 1.21-.34 1.764-.048.551-.163 1.04-.136 1.488L.04 19.87c.02.625.027.985.027.985l.182-.972.207-1.097c.066-.424.284-.873.438-1.37.162-.498.35-1.025.662-1.533.284-.519.54-1.076.96-1.56l.574-.757c.202-.249.46-.46.684-.692.438-.478.974-.867 1.504-1.25.507-.402 1.126-.674 1.66-1.004.607-.244 1.143-.55 1.741-.724a14.129 14.129 0 011.684-.507c.534-.157 1.07-.225 1.54-.325.301-.043.582-.08.844-.112l-.093.235a14.37 14.37 0 00-.635 2.363c-.065.42-.122.847-.166 1.281a9.6 9.6 0 00-.01 1.378c.45-.171.86-.368 1.25-.58.377-.22.745-.448 1.096-.682a14.27 14.27 0 001.892-1.558 17.936 17.936 0 002.894-3.682l.1-.166a2.325 2.325 0 00-.225-2.689zm26.993-1.93c-1.935 8.2-2.182 9.49-2.43 10.903h-.042c-.33-1.929-.48-2.72-2.222-10.902h-3.302c-1.58 7.827-1.807 9.343-2.077 10.902h-.04c-.27-1.703-.46-2.742-2.37-10.902h-3.32l4.216 14.91h2.906c1.601-7.683 1.847-8.764 2.306-11.63h.04c.497 2.863.77 4.319 2.307 11.63h2.989L49 2.921h-3.159zm-2.853 22.373c0-1.326-.316-1.542-.9-1.796.702-.24 1.097-.91 1.097-1.693 0-.608-.344-2.005-2.232-2.005h-3.589v7.093h1.456v-2.775h1.53c1.098 0 1.158.374 1.158 1.344 0 .733.057 1.098.156 1.431h1.64v-.185c-.314-.116-.314-.372-.316-1.414zm-2.432-2.365H38.82v-1.902h1.846c.868 0 1.038.553 1.038.928 0 .704-.375.974-1.148.974zm-9.846-3.126l.001 1.255h2.144v5.839h1.478v-5.839h2.146v-1.255h-5.77zm44.016-4.613v-3.862h7.265V8.692h-7.265V5.561h7.91V2.924H71.67v14.91h11.318V15.19h-8.261zm-4.487 5.866V19.8h-5.048l.002 7.1h1.481v-2.986h3.121v-1.257h-3.12v-1.6h3.564zm-1.754-6.588c0-2.784-.663-3.244-1.889-3.783 1.477-.496 2.307-1.912 2.307-3.55 0-1.29-.73-4.215-4.697-4.215h-7.535v14.91h3.057v-5.84h3.217c2.303 0 2.428.79 2.428 2.829-.002 1.533.124 2.304.333 3.015h3.444v-.396c-.665-.25-.665-.79-.665-2.97zm-5.108-4.985h-3.65V5.494h3.88c1.831 0 2.182 1.161 2.182 1.951-.002 1.474-.792 2.035-2.412 2.037zm9.312 16.155v-1.833h3.458v-1.256H72.69v-1.493h3.766V19.8h-5.218v7.094h5.386v-1.257H72.69zm10.764-.344c0-1.326-.32-1.542-.9-1.796.703-.24 1.1-.91 1.1-1.693 0-.608-.347-2.005-2.234-2.005h-3.586v7.093h1.456v-2.775h1.53c1.094 0 1.158.374 1.158 1.344 0 .733.057 1.098.156 1.431h1.637v-.185c-.315-.116-.315-.372-.317-1.414zm-2.429-2.365H79.29v-1.902h1.843c.872 0 1.041.553 1.041.928 0 .704-.375.974-1.148.974zM62.2 22.857l-1.725-.425c-.298-.068-.756-.187-.756-.74 0-.645.678-.85 1.236-.85 1.297 0 1.411.755 1.458 1.066h1.416c-.01-.868-.592-2.293-2.768-2.293-2.301 0-2.723 1.397-2.723 2.187 0 1.561 1.105 1.817 2.253 2.084l.757.18c.755.18 1.286.325 1.286.878 0 .754-.783.918-1.48.918-1.297 0-1.495-.752-1.506-1.145h-1.414c0 .879.443 2.37 3.033 2.37.619 0 2.795-.188 2.795-2.321-.002-1.274-.888-1.672-1.862-1.909zM50.65 2.917h3.113v14.91h-3.114V2.918zM48 19.802h-1.713l-2.53 7.095h1.564l.493-1.462h2.617l.457 1.462h1.611L48 19.802zm-1.789 4.409l.911-2.806h.012l.886 2.806h-1.81zm9.572-4.409v4.943h-.018l-2.82-4.943h-1.56v7.095h1.382V21.84h.021l2.894 5.058h1.485v-7.095h-1.384z" fill="#fff"/></svg>